{
.appVersion = "895";
copyright = "Copyright (c) 2011 JM Sole (info@jmsole.cl), with Reserved Font Name \"Alfa Slab One\"";
customParameters = (
{
name = licenseURL;
value = "http://scripts.sil.org/OFL";
},
{
name = trademark;
value = "Alfa Slab is a trademark of JM Sole.";
},
{
name = license;
value = "This Font Software is licensed under the SIL Open Font License, Version 1.1. This license is available with a FAQ at: http://scripts.sil.org/OFL";
},
{
name = panose;
value = (
2,
0,
5,
7,
0,
0,
0,
2,
0,
4
);
},
{
name = glyphOrder;
value = (
T,
H,
O,
R,
N,
E,
F,
I,
L,
P,
B,
D,
V,
W,
M,
Z,
U,
Q,
C,
G,
K,
Y,
X,
J,
S,
space,
at,
period,
colon,
d,
i,
m,
n,
h,
s,
b,
p,
q,
l,
g,
k,
o,
u,
c,
e,
z,
a,
v,
f,
j,
r,
t,
w,
x,
y,
acute,
grave,
dieresis,
circumflex,
tilde,
one,
two,
four,
seven,
five,
less,
zero,
three,
eight,
six,
nine,
slash,
backslash,
comma,
semicolon,
asciitilde,
question,
questiondown,
quotedbl,
quoteright,
quoteleft,
quotedblright,
quotedblleft,
exclam,
exclamdown,
mu,
parenleft,
parenright,
ampersand,
plus,
hyphen,
quotesingle,
asterisk,
multiply,
greater,
equal,
bracketleft,
bracketright,
plusminus,
bullet,
endash,
emdash,
asciicircum,
underscore,
braceleft,
braceright,
bar,
cent,
caron,
sterling,
percent,
numbersign,
cedilla,
ring,
paragraph,
thorn,
Thorn,
eth,
periodcentered,
brokenbar,
section,
germandbls,
quotesinglbase,
quotedblbase,
currency,
onesuperior,
twosuperior,
threesuperior,
onequarter,
onehalf,
threequarters,
guilsinglleft,
guilsinglright,
guillemotleft,
guillemotright,
A,
nbspace,
ae,
oe,
AE,
OE,
Eth,
ij,
IJ,
oslash,
Oslash,
dotaccentcmb,
dotlessj,
dotlessi,
aacute,
agrave,
adieresis,
acircumflex,
atilde,
aring,
eacute,
egrave,
edieresis,
ecircumflex,
igrave,
idieresis,
icircumflex,
itilde,
iacute,
jcircumflex,
nacute,
ntilde,
oacute,
ograve,
odieresis,
ocircumflex,
otilde,
rcaron,
uacute,
ugrave,
udieresis,
ucircumflex,
yacute,
ydieresis,
lslash,
ldot,
Ccedilla,
ccedilla,
hbar,
commaaccent,
kcommaaccent,
rcommaaccent,
Lslash,

glyphs = (
{
glyphname = T;
lastChange = "2016-07-26 11:06:05 +0000";
layers = (
{
background = {
paths = (
{
closed = 1;
nodes = (
"6 482 LINE",
"218 482 LINE",
"218 611 LINE",
"246 611 LINE",
"246 176 LINE",
"188 176 LINE",
"188 0 LINE",
"596 0 LINE",
"596 176 LINE",
"538 176 LINE",
"538 611 LINE",
"567 611 LINE",
"567 482 LINE",
"780 482 LINE",
"780 778 LINE",
"6 778 LINE"
);
}
);
};
layerId = UUID0;
paths = (
{
closed = 1;
nodes = (
"188 614 LINE",
"252 614 LINE",
"252 164 LINE",
"182 164 LINE",
"182 0 LINE",
"602 0 LINE",
"602 164 LINE",
"532 164 LINE",
"532 614 LINE",
"596 614 LINE",
"596 778 LINE",
"188 778 LINE"
);
},
{
closed = 1;
nodes = (
"16 536 LINE",
"188 536 LINE",
"188 778 LINE",
"16 778 LINE"
);
},
{
closed = 1;
nodes = (
"596 536 LINE",
"768 536 LINE",
"768 778 LINE",
"596 778 LINE"
);
}
);
width = 770;
}
);
unicode = 0054;
},
{
glyphname = H;
lastChange = "2016-07-26 11:06:05 +0000";
layers = (
{
background = {
paths = (
{
closed = 1;
nodes = (
"450 0 LINE",
"841 0 LINE",
"841 176 LINE",
"784 176 LINE",
"784 611 LINE",
"841 611 LINE",
"841 778 LINE",
"450 778 LINE",
"450 611 LINE",
"495 611 LINE",
"495 462 LINE",
"382 462 LINE",
"382 611 LINE",
"427 611 LINE",
"427 778 LINE",
"36 778 LINE",
"36 611 LINE",
"94 611 LINE",
"94 176 LINE",
"36 176 LINE",
"36 0 LINE",
"427 0 LINE",
"427 176 LINE",
"382 176 LINE",
"382 329 LINE",
"495 329 LINE",
"495 176 LINE",
"450 176 LINE"
);
}
);
};
layerId = UUID0;
paths = (
{
closed = 1;
nodes = (
"24 614 LINE",
"84 614 LINE",
"84 164 LINE",
"24 164 LINE",
"24 0 LINE",
"415 0 LINE",
"415 164 LINE",
"364 164 LINE",
"364 614 LINE",
"415 614 LINE",
"415 778 LINE",
"24 778 LINE"
);
},
{
closed = 1;
nodes = (
"463 614 LINE",
"514 614 LINE",
"514 164 LINE",
"463 164 LINE",
"463 0 LINE",
"854 0 LINE",
"854 164 LINE",
"794 164 LINE",
"794 614 LINE",
"854 614 LINE",
"854 778 LINE",
"463 778 LINE"
);
},
{
closed = 1;
nodes = (
"315 329 LINE",
"562 329 LINE",
"562 462 LINE",
"315 462 LINE"
);
}
);
width = 868;
}
);
unicode = 0048;
},
{
glyphname = O;
lastChange = "2016-07-26 11:06:05 +0000";
layers = (
{
anchors = (
{
name = top_cap;
position = "{402, 811}";
}
);
layerId = UUID0;
paths = (
{
closed = 1;
nodes = (
"402 164 LINE",
"357 164 OFFCURVE",
"334 186 OFFCURVE",
"334 238 CURVE SMOOTH",
"334 540 LINE SMOOTH",
"334 592 OFFCURVE",
"357 614 OFFCURVE",
"402 614 CURVE SMOOTH",
"447 614 OFFCURVE",
"470 592 OFFCURVE",
"470 540 CURVE SMOOTH",
"470 238 LINE SMOOTH",
"470 186 OFFCURVE",
"447 164 OFFCURVE",
"402 164 CURVE SMOOTH"
);
},
{
closed = 1;
nodes = (
"784 389 LINE",
"784 681 OFFCURVE",
"635 792 OFFCURVE",
"402 792 CURVE SMOOTH",
"169 792 OFFCURVE",
"20 681 OFFCURVE",
"20 389 CURVE SMOOTH",
"20 97 OFFCURVE",
"169 -14 OFFCURVE",
"402 -14 CURVE SMOOTH",
"635 -14 OFFCURVE",
"784 97 OFFCURVE",
"784 389 CURVE SMOOTH"
);
}
);
width = 798;
}
);
unicode = 004F;
},
{
glyphname = R;
lastChange = "2016-07-26 11:06:05 +0000";
layers = (
{
anchors = (
{
name = top_cap;
position = "{388, 811}";
}
);
background = {
paths = (
{
closed = 1;
nodes = (
"1594 611 LINE",
"1652 611 LINE",
"1652 176 LINE",
"1594 176 LINE",
"1594 0 LINE",
"2032 0 LINE",
"2032 176 LINE",
"1940 176 LINE",
"1940 329 LINE",
"2030 329 OFFCURVE",
"2057 279 OFFCURVE",
"2057 176 CURVE SMOOTH",
"2057 0 LINE",
"2374 0 LINE",
"2374 176 LINE",
"2327 176 LINE",
"2327 344 OFFCURVE",
"2227 378 OFFCURVE",
"2162 392 CURVE",
"2225 404 OFFCURVE",
"2346 438 OFFCURVE",
"2346 574 CURVE SMOOTH",
"2346 696 OFFCURVE",
"2248 778 OFFCURVE",
"2116 778 CURVE SMOOTH",
"1594 778 LINE"
);
},
{
closed = 1;
nodes = (
"1940 460 LINE",
"1940 611 LINE",
"1992 611 LINE SMOOTH",
"2029 611 OFFCURVE",
"2059 589 OFFCURVE",
"2059 534 CURVE SMOOTH",
"2059 474 OFFCURVE",
"2027 460 OFFCURVE",
"1992 460 CURVE SMOOTH"
);
},
{
closed = 1;
nodes = (
"366 450 LINE",
"366 614 LINE",
"420 614 LINE SMOOTH",
"458 614 OFFCURVE",
"478 595 OFFCURVE",
"478 550 CURVE SMOOTH",
"478 514 LINE SMOOTH",
"478 469 OFFCURVE",
"458 450 OFFCURVE",
"420 450 CURVE SMOOTH"
);
},
{
closed = 1;
nodes = (
"432 164 LINE",
"366 164 LINE",
"366 328 LINE",
"495 328 LINE SMOOTH",
"659 328 OFFCURVE",
"760 388 OFFCURVE",
"760 553 CURVE SMOOTH",
"760 718 OFFCURVE",
"659 778 OFFCURVE",
"495 778 CURVE SMOOTH",
"26 778 LINE",
"26 614 LINE",
"86 614 LINE",
"86 164 LINE",
"26 164 LINE",
"26 0 LINE",
"432 0 LINE"
);
},
{
closed = 1;
nodes = (
"366 328 LINE",
"449 328 OFFCURVE",
"483 315 OFFCURVE",
"483 235 CURVE SMOOTH",
"483 0 LINE",
"800 0 LINE",
"800 164 LINE",
"753 164 LINE",
"753 241 LINE SMOOTH",
"753 352 OFFCURVE",
"683 373 OFFCURVE",
"605 373 CURVE"
);
}
);
};
layerId = UUID0;
paths = (
{
closed = 1;
nodes = (
"366 328 LINE",
"449 328 OFFCURVE",
"483 315 OFFCURVE",
"483 235 CURVE SMOOTH",
"483 0 LINE",
"800 0 LINE",
"800 164 LINE",
"753 164 LINE",
"753 241 LINE SMOOTH",
"753 311 OFFCURVE",
"721 349 OFFCURVE",
"657 359 CURVE",
"656 369 LINE",
"724 395 OFFCURVE",
"760 465 OFFCURVE",
"760 553 CURVE SMOOTH",
"760 718 OFFCURVE",
"659 778 OFFCURVE",
"495 778 CURVE SMOOTH",
"26 778 LINE",
"26 614 LINE",
"86 614 LINE",
"86 164 LINE",
"26 164 LINE",
"26 0 LINE",
"432 0 LINE",
"432 164 LINE",
"366 164 LINE"
);
},
{
closed = 1;
nodes = (
"366 450 LINE",
"366 614 LINE",
"420 614 LINE SMOOTH",
"458 614 OFFCURVE",
"478 595 OFFCURVE",
"478 550 CURVE SMOOTH",
"478 514 LINE SMOOTH",
"478 469 OFFCURVE",
"458 450 OFFCURVE",
"420 450 CURVE SMOOTH"
);
}
);
width = 814;
}
);
unicode = 0052;
},
{
glyphname = N;
lastChange = "2016-07-26 11:06:05 +0000";
layers = (
{
anchors = (
{
name = top_cap;
position = "{493, 811}";
}
);
background = {
paths = (
{
closed = 1;
nodes = (
"70 611 LINE",
"128 611 LINE",
"128 176 LINE",
"70 176 LINE",
"70 0 LINE",
"396 0 LINE",
"396 176 LINE",
"350 176 LINE",
"350 329 LINE",
"358 329 LINE",
"555 0 LINE",
"866 0 LINE",
"866 611 LINE",
"924 611 LINE",
"924 778 LINE",
"599 778 LINE",
"599 611 LINE",
"644 611 LINE",
"644 462 LINE",
"636 462 LINE",
"439 778 LINE",
"70 778 LINE"
);
}
);
};
layerId = UUID0;
paths = (
{
closed = 1;
nodes = (
"22 614 LINE",
"82 614 LINE",
"82 164 LINE",
"22 164 LINE",
"22 0 LINE",
"372 0 LINE",
"372 164 LINE",
"312 164 LINE",
"312 614 LINE",
"372 614 LINE",
"393 778 LINE",
"22 778 LINE"
);
},
{
closed = 1;
nodes = (
"596 614 LINE",
"656 614 LINE",
"656 164 LINE",
"596 164 LINE",
"605 0 LINE",
"886 0 LINE",
"886 614 LINE",
"946 614 LINE",
"946 778 LINE",
"596 778 LINE"
);
},
{
closed = 1;
nodes = (
"393 778 LINE",
"227 582 LINE",
"605 0 LINE",
"714 288 LINE"
);
}
);
width = 952;
}
);
unicode = 004E;
},
{
glyphname = E;
lastChange = "2016-07-26 11:06:05 +0000";
layers = (
{
anchors = (
{
name = top_cap;
position = "{392, 811}";
}
);
layerId = UUID0;
paths = (
{
closed = 1;
nodes = (
"487 476 LINE",
"711 476 LINE",
"711 778 LINE",
"26 778 LINE",
"26 614 LINE",
"86 614 LINE",
"86 164 LINE",
"26 164 LINE",
"26 0 LINE",
"711 0 LINE",
"711 322 LINE",
"487 322 LINE",
"487 164 LINE",
"366 164 LINE",
"366 342 LINE",
"454 342 LINE",
"454 456 LINE",
"366 456 LINE",
"366 614 LINE",
"487 614 LINE"
);
}
);
width = 735;
}
);
unicode = 0045;
},
{
glyphname = F;
lastChange = "2016-07-26 11:06:05 +0000";
layers = (
{
background = {
paths = (
{
closed = 1;
nodes = (
"448 492 LINE",
"656 492 LINE",
"656 778 LINE",
"29 778 LINE",
"29 611 LINE",
"88 611 LINE",
"88 176 LINE",
"29 176 LINE",
"29 0 LINE",
"476 0 LINE",
"476 176 LINE",
"377 176 LINE",
"377 334 LINE",
"463 334 LINE",
"463 469 LINE",
"377 469 LINE",
"377 611 LINE",
"448 611 LINE"
);
}
);
};
layerId = UUID0;
paths = (
{
closed = 1;
nodes = (
"459 519 LINE",
"636 519 LINE",
"636 778 LINE",
"28 778 LINE",
"28 614 LINE",
"88 614 LINE",
"88 164 LINE",
"28 164 LINE",
"28 0 LINE",
"499 0 LINE",
"499 164 LINE",
"368 164 LINE",
"368 334 LINE",
"519 334 LINE",
"519 448 LINE",
"368 448 LINE",
"368 614 LINE",
"459 614 LINE"
);
}
);
width = 644;
}
);
unicode = 0046;
},
{
glyphname = I;
lastChange = "2016-07-26 11:06:05 +0000";
layers = (
{
anchors = (
{
name = top_cap;
position = "{228, 811}";
}
);
layerId = UUID0;
paths = (
{
closed = 1;
nodes = (
"24 614 LINE",
"84 614 LINE",
"84 164 LINE",
"24 164 LINE",
"24 0 LINE",
"424 0 LINE",
"424 164 LINE",
"364 164 LINE",
"364 614 LINE",
"424 614 LINE",
"424 778 LINE",
"24 778 LINE"
);
}
);
width = 438;
}
);
unicode = 0049;
},
{
glyphname = L;
lastChange = "2016-07-26 11:06:05 +0000";
layers = (
{
background = {
paths = (
{
closed = 1;
nodes = (
"26 614 LINE",
"86 614 LINE",
"86 164 LINE",
"26 164 LINE",
"26 0 LINE",
"426 0 LINE",
"426 164 LINE",
"366 164 LINE",
"366 614 LINE",
"426 614 LINE",
"426 778 LINE",
"26 778 LINE"
);
}
);
};
layerId = UUID0;
paths = (
{
closed = 1;
nodes = (
"26 614 LINE",
"86 614 LINE",
"86 164 LINE",
"26 164 LINE",
"26 0 LINE",
"655 0 LINE",
"655 256 LINE",
"456 256 LINE",
"456 164 LINE",
"366 164 LINE",
"366 614 LINE",
"458 614 LINE",
"458 778 LINE",
"26 778 LINE"
);
}
);
width = 671;
}
);
unicode = 004C;
},
{
glyphname = P;
lastChange = "2016-07-26 11:06:05 +0000";
layers = (
{
background = {
paths = (
{
closed = 1;
nodes = (
"30 611 LINE",
"88 611 LINE",
"88 176 LINE",
"30 176 LINE",
"30 0 LINE",
"484 0 LINE",
"484 176 LINE",
"376 176 LINE",
"376 329 LINE",
"546 329 LINE SMOOTH",
"685 329 OFFCURVE",
"771 422 OFFCURVE",
"771 542 CURVE SMOOTH",
"771 662 OFFCURVE",
"685 778 OFFCURVE",
"546 778 CURVE SMOOTH",
"30 778 LINE"
);
},
{
closed = 1;
nodes = (
"376 453 LINE",
"376 611 LINE",
"425 611 LINE SMOOTH",
"468 611 OFFCURVE",
"495 587 OFFCURVE",
"495 531 CURVE SMOOTH",
"495 470 OFFCURVE",
"466 453 OFFCURVE",
"425 453 CURVE SMOOTH"
);
}
);
};
layerId = UUID0;
paths = (
{
closed = 1;
nodes = (
"368 450 LINE",
"368 614 LINE",
"402 614 LINE SMOOTH",
"440 614 OFFCURVE",
"460 595 OFFCURVE",
"460 550 CURVE SMOOTH",
"460 514 LINE SMOOTH",
"460 469 OFFCURVE",
"439 450 OFFCURVE",
"402 450 CURVE SMOOTH"
);
},
{
closed = 1;
nodes = (
"464 164 LINE",
"368 164 LINE",
"368 308 LINE",
"477 308 LINE SMOOTH",
"641 308 OFFCURVE",
"742 372 OFFCURVE",
"742 543 CURVE SMOOTH",
"742 714 OFFCURVE",
"641 778 OFFCURVE",
"477 778 CURVE SMOOTH",
"28 778 LINE",
"28 614 LINE",
"88 614 LINE",
"88 164 LINE",
"28 164 LINE",
"28 0 LINE",
"464 0 LINE"
);
}
);
width = 754;
}
);
unicode = 0050;
},
{
glyphname = B;
lastChange = "2016-07-26 11:06:05 +0000";
layers = (
{
layerId = UUID0;
paths = (
{
closed = 1;
nodes = (
"26 614 LINE",
"86 614 LINE",
"86 164 LINE",
"26 164 LINE",
"26 0 LINE",
"495 0 LINE SMOOTH",
"648 0 OFFCURVE",
"779 52 OFFCURVE",
"779 202 CURVE SMOOTH",
"779 352 OFFCURVE",
"654 377 OFFCURVE",
"594 383 CURVE",
"594 393 LINE",
"649 404 OFFCURVE",
"760 452 OFFCURVE",
"760 581 CURVE SMOOTH",
"760 710 OFFCURVE",
"659 778 OFFCURVE",
"495 778 CURVE SMOOTH",
"26 778 LINE"
);
},
{
closed = 1;
nodes = (
"366 450 LINE",
"366 614 LINE",
"420 614 LINE SMOOTH",
"458 614 OFFCURVE",
"478 595 OFFCURVE",
"478 550 CURVE SMOOTH",
"478 514 LINE SMOOTH",
"478 469 OFFCURVE",
"458 450 OFFCURVE",
"420 450 CURVE SMOOTH"
);
},
{
closed = 1;
nodes = (
"366 164 LINE",
"366 336 LINE",
"427 336 LINE SMOOTH",
"465 336 OFFCURVE",
"485 317 OFFCURVE",
"485 272 CURVE SMOOTH",
"485 228 LINE SMOOTH",
"485 183 OFFCURVE",
"465 164 OFFCURVE",
"427 164 CURVE SMOOTH"
);
}
);
width = 795;
}
);
unicode = 0042;
},
{
glyphname = D;
lastChange = "2016-07-26 11:06:05 +0000";
layers = (
{
background = {
paths = (
{
closed = 1;
nodes = (
"464 164 OFFCURVE",
"484 183 OFFCURVE",
"484 228 CURVE SMOOTH",
"484 550 LINE SMOOTH",
"484 595 OFFCURVE",
"464 614 OFFCURVE",
"426 614 CURVE SMOOTH",
"388 614 OFFCURVE",
"368 595 OFFCURVE",
"368 550 CURVE SMOOTH",
"368 228 LINE SMOOTH",
"368 183 OFFCURVE",
"388 164 OFFCURVE",
"426 164 CURVE SMOOTH"
);
},
{
closed = 1;
nodes = (
"798 97 OFFCURVE",
"653 -14 OFFCURVE",
"426 -14 CURVE SMOOTH",
"199 -14 OFFCURVE",
"54 97 OFFCURVE",
"54 389 CURVE SMOOTH",
"54 681 OFFCURVE",
"199 792 OFFCURVE",
"426 792 CURVE SMOOTH",
"653 792 OFFCURVE",
"798 681 OFFCURVE",
"798 389 CURVE SMOOTH"
);
}
);
};
layerId = UUID0;
paths = (
{
closed = 1;
nodes = (
"28 613 LINE",
"88 613 LINE",
"88 164 LINE",
"28 164 LINE",
"28 0 LINE",
"444 0 LINE SMOOTH",
"649 0 OFFCURVE",
"808 97 OFFCURVE",
"808 389 CURVE SMOOTH",
"808 681 OFFCURVE",
"649 778 OFFCURVE",
"444 778 CURVE SMOOTH",
"28 778 LINE"
);
},
{
closed = 1;
nodes = (
"368 164 LINE",
"368 614 LINE",
"426 614 LINE SMOOTH",
"469 614 OFFCURVE",
"494 592 OFFCURVE",
"494 540 CURVE SMOOTH",
"494 238 LINE SMOOTH",
"494 186 OFFCURVE",
"471 164 OFFCURVE",
"426 164 CURVE SMOOTH"
);
}
);
width = 826;
}
);
unicode = 0044;
},
{
glyphname = V;
lastChange = "2016-07-26 11:06:05 +0000";
layers = (
{
background = {
paths = (
{
closed = 1;
nodes = (
"-31 611 LINE",
"-31 778 LINE",
"405 778 LINE",
"405 611 LINE",
"331 611 LINE",
"412 216 LINE",
"424 216 LINE",
"446 316 OFFCURVE",
"499 589 OFFCURVE",
"503 611 CURVE",
"431 611 LINE",
"431 778 LINE",
"825 778 LINE",
"825 611 LINE",
"781 611 LINE",
"587 0 LINE",
"209 0 LINE",
"15 611 LINE"
);
}
);
};
layerId = UUID0;
paths = (
{
closed = 1;
nodes = (
"776 778 LINE",
"444 778 LINE",
"444 614 LINE",
"776 614 LINE"
);
},
{
closed = 1;
nodes = (
"396 778 LINE",
"14 778 LINE",
"14 614 LINE",
"396 614 LINE"
);
},
{
closed = 1;
nodes = (
"577 0 LINE",
"736 614 LINE",
"494 614 LINE",
"425 219 LINE",
"415 219 LINE",
"346 614 LINE",
"54 614 LINE",
"213 0 LINE"
);
}
);
width = 776;
}
);
unicode = 0056;
},
{
glyphname = W;
lastChange = "2016-07-26 11:06:05 +0000";
layers = (
{
background = {
paths = (
{
closed = 1;
nodes = (
"2565 611 LINE",
"2614 611 LINE",
"2557 283 LINE",
"2497 611 LINE",
"2540 611 LINE",
"2540 778 LINE",
"2147 778 LINE",
"2147 611 LINE",
"2182 611 LINE",
"2205 529 LINE",
"2151 283 LINE",
"2076 611 LINE",
"2122 611 LINE",
"2122 778 LINE",
"1717 778 LINE",
"1717 611 LINE",
"1760 611 LINE",
"1929 0 LINE",
"2275 0 LINE",
"2315 133 LINE",
"2353 0 LINE",
"2707 0 LINE",
"2852 611 LINE",
"2895 611 LINE",
"2895 778 LINE",
"2565 778 LINE"
);
},
{
closed = 1;
nodes = (
"-1749 778 LINE",
"-2161 778 LINE",
"-2161 614 LINE",
"-1749 614 LINE"
);
},
{
closed = 1;
nodes = (
"-1603 0 LINE",
"-1423 778 LINE",
"-1655 778 LINE",
"-1740 239 LINE",
"-1750 239 LINE",
"-1829 614 LINE",
"-2121 614 LINE",
"-1952 0 LINE"
);
},
{
closed = 1;
nodes = (
"-1117 0 LINE",
"-958 614 LINE",
"-1200 614 LINE",
"-1279 239 LINE",
"-1289 239 LINE",
"-1367 778 LINE",
"-1635 778 LINE",
"-1466 0 LINE"
);
},
{
closed = 1;
nodes = (
"-918 778 LINE",
"-1280 778 LINE",
"-1280 614 LINE",
"-918 614 LINE"
);
},
{
closed = 1;
nodes = (
"421 778 LINE",
"14 778 LINE",
"14 614 LINE",
"421 614 LINE"
);
},
{
closed = 1;
nodes = (
"552 0 LINE",
"732 778 LINE",
"520 778 LINE",
"415 239 LINE",
"405 239 LINE",
"346 614 LINE",
"54 614 LINE",
"203 0 LINE"
);
},
{
closed = 1;
nodes = (
"1078 0 LINE",
"1217 614 LINE",
"975 614 LINE",
"916 239 LINE",
"906 239 LINE",
"808 778 LINE",
"560 778 LINE",
"729 0 LINE"
);
},
{
closed = 1;
nodes = (
"1257 778 LINE",
"900 778 LINE",
"900 614 LINE",
"1257 614 LINE"
);
}
);
};
layerId = UUID0;
paths = (
{
closed = 1;
nodes = (
"411 778 LINE",
"14 778 LINE",
"14 614 LINE",
"411 614 LINE"
);
},
{
closed = 1;
nodes = (
"1257 778 LINE",
"910 778 LINE",
"910 614 LINE",
"1257 614 LINE"
);
},
{
closed = 1;
nodes = (
"542 0 LINE",
"638 412 LINE",
"648 412 LINE",
"739 0 LINE",
"1088 0 LINE",
"1217 614 LINE",
"975 614 LINE",
"926 239 LINE",
"916 239 LINE",
"808 778 LINE",
"520 778 LINE",
"405 239 LINE",
"395 239 LINE",
"346 614 LINE",
"54 614 LINE",
"193 0 LINE"
);
}
);
width = 1257;
}
);
unicode = 0057;
},
{
glyphname = M;
lastChange = "2016-07-26 11:06:05 +0000";
layers = (
{
background = {
paths = (
{
closed = 1;
nodes = (
"817 164 LINE",
"1127 164 LINE",
"1127 778 LINE",
"817 778 LINE"
);
},
{
closed = 1;
nodes = (
"569 0 LINE",
"741 350 LINE",
"682 492 OFFCURVE",
"566 778 OFFCURVE",
"566 778 CURVE",
"343 778 LINE",
"343 442 LINE",
"384 442 LINE"
);
},
{
closed = 1;
nodes = (
"384 778 LINE",
"156 778 LINE",
"156 164 LINE",
"384 164 LINE"
);
},
{
closed = 1;
nodes = (
"517 298 LINE",
"642 0 LINE",
"949 778 LINE",
"697 778 LINE"
);
},
{
closed = 1;
nodes = (
"642 128 LINE",
"569 128 LINE",
"569 0 LINE",
"642 0 LINE"
);
},
{
closed = 1;
nodes = (
"98 0 LINE",
"460 0 LINE",
"460 176 LINE",
"98 176 LINE"
);
},
{
closed = 1;
nodes = (
"747 0 LINE",
"1184 0 LINE",
"1184 176 LINE",
"747 176 LINE"
);
},
{
closed = 1;
nodes = (
"98 611 LINE",
"264 611 LINE",
"264 778 LINE",
"98 778 LINE"
);
},
{
closed = 1;
nodes = (
"1032 611 LINE",
"1184 611 LINE",
"1184 778 LINE",
"1032 778 LINE"
);
}
);
};
layerId = UUID0;
paths = (
{
closed = 1;
nodes = (
"757 614 LINE",
"847 614 LINE",
"847 164 LINE",
"787 164 LINE",
"787 0 LINE",
"1187 0 LINE",
"1187 164 LINE",
"1127 164 LINE",
"1127 614 LINE",
"1187 614 LINE",
"1187 778 LINE",
"726 778 LINE"
);
},
{
closed = 1;
nodes = (
"24 614 LINE",
"84 614 LINE",
"84 164 LINE",
"24 164 LINE",
"24 0 LINE",
"374 0 LINE",
"374 164 LINE",
"314 164 LINE",
"314 614 LINE",
"404 614 LINE",
"502 778 LINE",
"24 778 LINE"
);
},
{
closed = 1;
nodes = (
"502 778 LINE",
"263 688 LINE",
"540 0 LINE",
"648 0 LINE",
"665 291 LINE"
);
},
{
closed = 1;
nodes = (
"648 0 LINE",
"910 736 LINE",
"726 778 LINE",
"534 177 LINE"
);
}
);
width = 1203;
}
);
unicode = 004D;
},
{
glyphname = Z;
lastChange = "2016-07-26 11:06:05 +0000";
layers = (
{
background = {
paths = (
{
closed = 1;
nodes = (
"-37 0 LINE",
"741 0 LINE",
"741 270 LINE",
"500 270 LINE",
"500 176 LINE",
"391 176 LINE",
"730 647 LINE",
"730 778 LINE",
"-26 778 LINE",
"-26 520 LINE",
"215 520 LINE",
"215 611 LINE",
"321 611 LINE",
"-37 139 LINE"
);
}
);
};
layerId = UUID0;
paths = (
{
closed = 1;
nodes = (
"22 144 LINE",
"258 8 LINE",
"667 634 LINE",
"432 770 LINE"
);
},
{
closed = 1;
nodes = (
"50 164 LINE",
"22 144 LINE",
"22 0 LINE",
"683 0 LINE",
"683 246 LINE",
"484 246 LINE",
"484 164 LINE"
);
},
{
closed = 1;
nodes = (
"644 614 LINE",
"667 634 LINE",
"667 778 LINE",
"37 778 LINE",
"37 532 LINE",
"236 532 LINE",
"236 614 LINE"
);
}
);
width = 697;
}
);
unicode = 005A;
},
{
glyphname = U;
lastChange = "2016-07-26 11:06:05 +0000";
layers = (
{
anchors = (
{
name = top_cap;
position = "{418, 811}";
}
);
background = {
paths = (
{
closed = 1;
nodes = (
"4 611 LINE",
"62 611 LINE",
"62 261 LINE SMOOTH",
"62 124 OFFCURVE",
"140 -18 OFFCURVE",
"399 -18 CURVE SMOOTH",
"637 -18 OFFCURVE",
"730 124 OFFCURVE",
"730 261 CURVE SMOOTH",
"730 611 LINE",
"788 611 LINE",
"788 778 LINE",
"432 778 LINE",
"432 611 LINE",
"477 611 LINE",
"477 350 LINE SMOOTH",
"477 260 OFFCURVE",
"468 176 OFFCURVE",
"420 176 CURVE SMOOTH",
"372 176 OFFCURVE",
"364 260 OFFCURVE",
"364 350 CURVE SMOOTH",
"364 611 LINE",
"407 611 LINE",
"407 778 LINE",
"4 778 LINE"
);
}
);
};
layerId = UUID0;
paths = (
{
closed = 1;
nodes = (
"731 614 LINE",
"791 614 LINE",
"791 778 LINE",
"438 778 LINE",
"438 614 LINE",
"478 614 LINE",
"478 228 LINE SMOOTH",
"478 183 OFFCURVE",
"458 164 OFFCURVE",
"420 164 CURVE SMOOTH",
"382 164 OFFCURVE",
"362 183 OFFCURVE",
"362 228 CURVE SMOOTH",
"362 614 LINE",
"402 614 LINE",
"402 778 LINE",
"22 778 LINE",
"22 614 LINE",
"82 614 LINE",
"82 279 LINE SMOOTH",
"82 64 OFFCURVE",
"211 -14 OFFCURVE",
"410 -14 CURVE SMOOTH",
"606 -14 OFFCURVE",
"731 64 OFFCURVE",
"731 279 CURVE SMOOTH"
);
}
);
width = 795;
}
);
unicode = 0055;
},
{
glyphname = Q;
lastChange = "2016-07-26 11:06:05 +0000";
layers = (
{
background = {
paths = (
{
closed = 1;
nodes = (
"772 332 OFFCURVE",
"730 241 OFFCURVE",
"644 176 CURVE",
"766 176 LINE",
"766 -77 LINE",
"260 -77 OFFCURVE",
"10 46 OFFCURVE",
"10 400 CURVE SMOOTH",
"10 614 OFFCURVE",
"156 799 OFFCURVE",
"397 799 CURVE SMOOTH",
"634 799 OFFCURVE",
"772 627 OFFCURVE",
"772 447 CURVE SMOOTH"
);
},
{
closed = 1;
nodes = (
"340 249 OFFCURVE",
"349 176 OFFCURVE",
"398 176 CURVE SMOOTH",
"447 176 OFFCURVE",
"457 231 OFFCURVE",
"457 393 CURVE SMOOTH",
"457 556 OFFCURVE",
"447 611 OFFCURVE",
"398 611 CURVE SMOOTH",
"349 611 OFFCURVE",
"340 556 OFFCURVE",
"340 393 CURVE SMOOTH"
);
}
);
};
layerId = UUID0;
paths = (
{
closed = 1;
nodes = (
"398 164 LINE SMOOTH",
"443 164 OFFCURVE",
"466 186 OFFCURVE",
"466 238 CURVE SMOOTH",
"466 540 LINE SMOOTH",
"466 592 OFFCURVE",
"443 614 OFFCURVE",
"398 614 CURVE SMOOTH",
"353 614 OFFCURVE",
"330 592 OFFCURVE",
"330 540 CURVE SMOOTH",
"330 238 LINE SMOOTH",
"330 186 OFFCURVE",
"353 164 OFFCURVE",
"398 164 CURVE SMOOTH"
);
},
{
closed = 1;
nodes = (
"780 419 LINE SMOOTH",
"780 271 OFFCURVE",
"703 204 OFFCURVE",
"671 174 CURVE",
"677 164 LINE",
"796 164 LINE",
"796 -78 LINE",
"416 -78 OFFCURVE",
"211 -58 OFFCURVE",
"83 118 CURVE SMOOTH",
"40 180 OFFCURVE",
"16 270 OFFCURVE",
"16 389 CURVE SMOOTH",
"16 681 OFFCURVE",
"165 792 OFFCURVE",
"398 792 CURVE SMOOTH",
"631 792 OFFCURVE",
"780 673 OFFCURVE",
"780 419 CURVE SMOOTH"
);
}
);
width = 812;
}
);
unicode = 0051;
},
{
glyphname = C;
lastChange = "2016-07-26 11:06:05 +0000";
layers = (
{
anchors = (
{
name = bottom;
position = "{390, -1}";
}
);
background = {
paths = (
{
closed = 1;
nodes = (
"383 164 OFFCURVE",
"342 215 OFFCURVE",
"342 320 CURVE SMOOTH",
"342 550 LINE SMOOTH",
"342 595 OFFCURVE",
"362 614 OFFCURVE",
"400 614 CURVE SMOOTH",
"438 614 OFFCURVE",
"458 595 OFFCURVE",
"458 550 CURVE SMOOTH",
"458 498 LINE",
"678 498 LINE",
"678 728 LINE",
"678 728 OFFCURVE",
"565 792 OFFCURVE",
"400 792 CURVE SMOOTH",
"173 792 OFFCURVE",
"28 681 OFFCURVE",
"28 389 CURVE SMOOTH",
"28 97 OFFCURVE",
"173 -14 OFFCURVE",
"402 -14 CURVE SMOOTH",
"567 -14 OFFCURVE",
"672 46 OFFCURVE",
"672 46 CURVE",
"672 199 LINE",
"672 199 OFFCURVE",
"550 164 OFFCURVE",
"480 164 CURVE SMOOTH"
);
}
);
};
layerId = UUID0;
paths = (
{
closed = 1;
nodes = (
"468 238 LINE SMOOTH",
"468 186 OFFCURVE",
"445 164 OFFCURVE",
"400 164 CURVE SMOOTH",
"355 164 OFFCURVE",
"332 186 OFFCURVE",
"332 238 CURVE SMOOTH",
"332 540 LINE SMOOTH",
"332 592 OFFCURVE",
"355 614 OFFCURVE",
"400 614 CURVE SMOOTH",
"445 614 OFFCURVE",
"468 592 OFFCURVE",
"468 540 CURVE SMOOTH",
"468 468 LINE",
"708 468 LINE",
"708 718 LINE",
"708 718 OFFCURVE",
"596 792 OFFCURVE",
"400 792 CURVE SMOOTH",
"167 792 OFFCURVE",
"18 681 OFFCURVE",
"18 389 CURVE SMOOTH",
"18 97 OFFCURVE",
"167 -14 OFFCURVE",
"402 -14 CURVE SMOOTH",
"596 -14 OFFCURVE",
"708 60 OFFCURVE",
"708 60 CURVE",
"708 319 LINE",
"468 319 LINE"
);
}
);
width = 738;
}
);
unicode = 0043;
},
{
glyphname = G;
lastChange = "2016-07-26 11:06:05 +0000";
layers = (
{
background = {
paths = (
{
closed = 1;
nodes = (
"-1117 270 LINE",
"-1063 270 LINE",
"-1067 208 OFFCURVE",
"-1081 176 OFFCURVE",
"-1120 176 CURVE SMOOTH",
"-1170 176 OFFCURVE",
"-1179 249 OFFCURVE",
"-1179 393 CURVE SMOOTH",
"-1179 538 OFFCURVE",
"-1170 611 OFFCURVE",
"-1120 611 CURVE SMOOTH",
"-1069 611 OFFCURVE",
"-1063 554 OFFCURVE",
"-1063 488 CURVE",
"-813 488 LINE",
"-813 693 LINE",
"-813 693 OFFCURVE",
"-919 799 OFFCURVE",
"-1128 799 CURVE SMOOTH",
"-1357 799 OFFCURVE",
"-1515 646 OFFCURVE",
"-1515 380 CURVE SMOOTH",
"-1515 151 OFFCURVE",
"-1374 -24 OFFCURVE",
"-1158 -24 CURVE SMOOTH",
"-1029 -24 OFFCURVE",
"-951 46 OFFCURVE",
"-951 46 CURVE",
"-935 0 LINE",
"-813 0 LINE",
"-812 270 LINE",
"-763 270 LINE",
"-763 399 LINE",
"-1117 399 LINE"
);
},
{
closed = 1;
nodes = (
"390 164 OFFCURVE",
"349 220 OFFCURVE",
"349 320 CURVE SMOOTH",
"349 550 LINE SMOOTH",
"349 595 OFFCURVE",
"369 614 OFFCURVE",
"407 614 CURVE SMOOTH",
"445 614 OFFCURVE",
"465 595 OFFCURVE",
"465 550 CURVE SMOOTH",
"465 498 LINE",
"685 498 LINE",
"685 728 LINE",
"685 728 OFFCURVE",
"572 792 OFFCURVE",
"407 792 CURVE SMOOTH",
"180 792 OFFCURVE",
"35 681 OFFCURVE",
"35 389 CURVE SMOOTH",
"35 97 OFFCURVE",
"180 -14 OFFCURVE",
"409 -14 CURVE SMOOTH",
"570 -14 OFFCURVE",
"675 46 OFFCURVE",
"675 46 CURVE",
"675 199 LINE",
"675 199 OFFCURVE",
"557 164 OFFCURVE",
"487 164 CURVE SMOOTH"
);
}
);
};
layerId = UUID0;
paths = (
{
closed = 1;
nodes = (
"480 243 LINE SMOOTH",
"480 186 OFFCURVE",
"457 164 OFFCURVE",
"407 164 CURVE SMOOTH",
"357 164 OFFCURVE",
"334 186 OFFCURVE",
"334 243 CURVE SMOOTH",
"334 535 LINE SMOOTH",
"334 592 OFFCURVE",
"357 614 OFFCURVE",
"407 614 CURVE SMOOTH",
"457 614 OFFCURVE",
"480 592 OFFCURVE",
"480 535 CURVE SMOOTH",
"480 488 LINE",
"730 488 LINE",
"730 727 LINE",
"730 727 OFFCURVE",
"610 792 OFFCURVE",
"407 792 CURVE SMOOTH",
"169 792 OFFCURVE",
"20 681 OFFCURVE",
"20 389 CURVE SMOOTH",
"20 97 OFFCURVE",
"169 -14 OFFCURVE",
"409 -14 CURVE SMOOTH",
"610 -14 OFFCURVE",
"730 50 OFFCURVE",
"730 50 CURVE",
"730 329 LINE",
"480 329 LINE"
);
},
{
closed = 1;
nodes = (
"426 250 LINE",
"780 250 LINE",
"780 399 LINE",
"426 399 LINE"
);
}
);
width = 792;
}
);
unicode = 0047;
},
{
glyphname = K;
lastChange = "2016-07-26 11:06:05 +0000";
layers = (
{
background = {
paths = (
{
closed = 1;
nodes = (
"16 614 LINE",
"76 614 LINE",
"76 164 LINE",
"16 164 LINE",
"16 0 LINE",
"416 0 LINE",
"416 164 LINE",
"356 164 LINE",
"356 614 LINE",
"416 614 LINE",
"416 778 LINE",
"16 778 LINE"
);
},
{
closed = 1;
nodes = (
"305 230 LINE",
"780 614 LINE",
"549 642 LINE",
"181 346 LINE"
);
},
{
closed = 1;
nodes = (
"610 511 LINE",
"396 373 LINE",
"593 23 LINE",
"807 161 LINE"
);
},
{
closed = 1;
nodes = (
"452 0 LINE",
"848 0 LINE",
"848 164 LINE",
"452 164 LINE"
);
},
{
closed = 1;
nodes = (
"452 614 LINE",
"830 614 LINE",
"830 778 LINE",
"452 778 LINE"
);
}
);
};
hints = (
{
place = "{-35, 21}";
},
{
place = "{-35, 21}";
}
);
layerId = UUID0;
paths = (
{
closed = 1;
nodes = (
"26 614 LINE",
"86 614 LINE",
"86 164 LINE",
"26 164 LINE",
"26 0 LINE",
"366 0 LINE",
"366 778 LINE",
"26 778 LINE"
);
},
{
closed = 1;
nodes = (
"591 440 LINE",
"288 409 LINE",
"524 0 LINE",
"782 164 LINE"
);
},
{
closed = 1;
nodes = (
"524 164 LINE",
"524 0 LINE",
"822 0 LINE",
"822 164 LINE"
);
},
{
closed = 1;
nodes = (
"807 614 LINE",
"807 778 LINE",
"549 778 LINE",
"549 614 LINE"
);
},
{
closed = 1;
nodes = (
"767 614 LINE",
"549 778 LINE",
"298 409 LINE",
"584 379 LINE"
);
}
);
width = 834;
}
);
unicode = 004B;
},
{
glyphname = Y;
lastChange = "2016-07-26 11:06:05 +0000";
layers = (
{
anchors = (
{
name = top_cap;
position = "{418, 811}";
}
);
background = {
paths = (
{
closed = 1;
nodes = (
"755 778 LINE",
"453 778 LINE",
"453 614 LINE",
"755 614 LINE"
);
},
{
closed = 1;
nodes = (
"395 778 LINE",
"12 778 LINE",
"12 614 LINE",
"395 614 LINE"
);
},
{
closed = 1;
nodes = (
"461 366 LINE",
"360 614 LINE",
"48 614 LINE",
"270 228 LINE"
);
},
{
closed = 1;
nodes = (
"494 209 LINE",
"720 614 LINE",
"488 614 LINE",
"378 343 LINE"
);
},
{
closed = 1;
nodes = (
"247 357 LINE",
"247 164 LINE",
"187 164 LINE",
"187 0 LINE",
"587 0 LINE",
"587 164 LINE",
"527 164 LINE",
"527 357 LINE"
);
}
);
};
layerId = UUID0;
paths = (
{
closed = 1;
nodes = (
"755 778 LINE",
"453 778 LINE",
"453 614 LINE",
"755 614 LINE"
);
},
{
closed = 1;
nodes = (
"395 778 LINE",
"12 778 LINE",
"12 614 LINE",
"395 614 LINE"
);
},
{
closed = 1;
nodes = (
"247 357 LINE",
"247 164 LINE",
"187 164 LINE",
"187 0 LINE",
"587 0 LINE",
"587 164 LINE",
"527 164 LINE",
"527 357 LINE"
);
},
{
closed = 1;
nodes = (
"494 209 LINE",
"720 614 LINE",
"488 614 LINE",
"429 459 LINE",
"419 459 LINE",
"360 614 LINE",
"48 614 LINE",
"270 228 LINE",
"397 320 LINE"
);
}
);
width = 755;
}
);
unicode = 0059;
},
{
glyphname = X;
lastChange = "2016-07-26 11:06:05 +0000";
layers = (
{
background = {
paths = (
{
closed = 1;
nodes = (
"510 334 LINE",
"772 614 LINE",
"533 614 LINE",
"350 420 LINE"
);
},
{
closed = 1;
nodes = (
"393 614 LINE",
"57 614 LINE",
"455 164 LINE",
"792 164 LINE"
);
},
{
closed = 1;
nodes = (
"302 446 LINE",
"38 164 LINE",
"277 164 LINE",
"462 360 LINE"
);
},
{
closed = 1;
nodes = (
"390 164 LINE",
"390 0 LINE",
"832 0 LINE",
"832 164 LINE"
);
},
{
closed = 1;
nodes = (
"-2 164 LINE",
"-2 0 LINE",
"342 0 LINE",
"342 164 LINE"
);
},
{
closed = 1;
nodes = (
"439 614 LINE",
"439 778 LINE",
"17 778 LINE",
"17 614 LINE"
);
},
{
closed = 1;
nodes = (
"812 614 LINE",
"812 778 LINE",
"487 778 LINE",
"487 614 LINE"
);
},
{
closed = 1;
nodes = (
"1583 409 LINE",
"1247 409 LINE",
"1438 0 LINE",
"1716 164 LINE"
);
},
{
closed = 1;
nodes = (
"1438 164 LINE",
"1438 0 LINE",
"1756 0 LINE",
"1756 164 LINE"
);
},
{
closed = 1;
nodes = (
"932 164 LINE",
"932 0 LINE",
"1210 0 LINE",
"1210 164 LINE"
);
},
{
closed = 1;
nodes = (
"1259 614 LINE",
"1259 778 LINE",
"941 778 LINE",
"941 614 LINE"
);
},
{
closed = 1;
nodes = (
"1746 614 LINE",
"1746 778 LINE",
"1468 778 LINE",
"1468 614 LINE"
);
},
{
closed = 1;
nodes = (
"1114 369 LINE",
"1450 369 LINE",
"1259 778 LINE",
"981 614 LINE"
);
},
{
closed = 1;
nodes = (
"972 164 LINE",
"1210 0 LINE",
"1401 409 LINE",
"1105 409 LINE"
);
},
{
closed = 1;
nodes = (
"1706 614 LINE",
"1468 778 LINE",
"1277 369 LINE",
"1573 369 LINE"
);
}
);
};
layerId = UUID0;
paths = (
{
closed = 1;
nodes = (
"802 614 LINE",
"802 778 LINE",
"524 778 LINE",
"449 546 LINE",
"429 546 LINE",
"355 778 LINE",
"37 778 LINE",
"37 614 LINE",
"77 614 LINE",
"184 397 LINE",
"68 164 LINE",
"28 164 LINE",
"28 0 LINE",
"306 0 LINE",
"390 254 LINE",
"410 254 LINE",
"494 0 LINE",
"812 0 LINE",
"812 164 LINE",
"772 164 LINE",
"655 398 LINE",
"762 614 LINE"
);
}
);
width = 826;
}
);
unicode = 0058;
},
{
glyphname = J;
lastChange = "2016-07-26 11:06:05 +0000";
layers = (
{
anchors = (
{
name = top_cap;
position = "{303, 811}";
}
);
background = {
paths = (
{
closed = 1;
nodes = (
"64 228 LINE SMOOTH",
"64 183 OFFCURVE",
"84 164 OFFCURVE",
"122 164 CURVE SMOOTH",
"160 164 OFFCURVE",
"180 183 OFFCURVE",
"180 228 CURVE SMOOTH",
"180 614 LINE",
"59 614 LINE",
"59 778 LINE",
"520 778 LINE",
"520 614 LINE",
"460 614 LINE",
"460 278 LINE SMOOTH",
"460 77 OFFCURVE",
"327 -14 OFFCURVE",
"120 -14 CURVE SMOOTH",
"-50 -14 OFFCURVE",
"-146 60 OFFCURVE",
"-146 60 CURVE",
"-146 258 LINE",
"64 258 LINE"
);
}
);
};
layerId = UUID0;
paths = (
{
closed = 1;
nodes = (
"105 164 LINE SMOOTH",
"150 164 OFFCURVE",
"180 191 OFFCURVE",
"180 258 CURVE SMOOTH",
"180 614 LINE",
"69 614 LINE",
"69 778 LINE",
"520 778 LINE",
"520 614 LINE",
"460 614 LINE",
"460 267 LINE SMOOTH",
"460 63 OFFCURVE",
"326 -14 OFFCURVE",
"162 -14 CURVE SMOOTH",
"66 -14 OFFCURVE",
"14 7 OFFCURVE",
"14 7 CURVE",
"14 175 LINE",
"14 175 OFFCURVE",
"62 164 OFFCURVE",
"105 164 CURVE SMOOTH"
);
}
);
width = 522;
}
);
unicode = 004A;
},
{
glyphname = S;
lastChange = "2016-07-26 11:06:05 +0000";
layers = (
{
background = {
paths = (
{
closed = 1;
nodes = (
"1413 278 LINE",
"1640 278 LINE",
"1640 210 OFFCURVE",
"1678 182 OFFCURVE",
"1742 182 CURVE SMOOTH",
"1796 182 OFFCURVE",
"1826 199 OFFCURVE",
"1826 224 CURVE SMOOTH",
"1826 249 OFFCURVE",
"1792 253 OFFCURVE",
"1738 269 CURVE SMOOTH",
"1495 341 OFFCURVE",
"1404 407 OFFCURVE",
"1404 551 CURVE SMOOTH",
"1404 672 OFFCURVE",
"1487 799 OFFCURVE",
"1785 799 CURVE SMOOTH",
"1965 799 OFFCURVE",
"2064 737 OFFCURVE",
"2112 693 CURVE",
"2112 528 LINE",
"1892 528 LINE",
"1892 560 OFFCURVE",
"1861 600 OFFCURVE",
"1801 600 CURVE SMOOTH",
"1751 600 OFFCURVE",
"1720 590 OFFCURVE",
"1720 569 CURVE SMOOTH",
"1720 541 OFFCURVE",
"1754 534 OFFCURVE",
"1812 520 CURVE SMOOTH",
"1993 474 OFFCURVE",
"2136 414 OFFCURVE",
"2136 249 CURVE SMOOTH",
"2136 79 OFFCURVE",
"2001 -24 OFFCURVE",
"1766 -24 CURVE SMOOTH",
"1582 -24 OFFCURVE",
"1463 33 OFFCURVE",
"1413 68 CURVE"
);
},
{
closed = 1;
nodes = (
"-951 258 LINE",
"-724 258 LINE",
"-724 187 OFFCURVE",
"-686 164 OFFCURVE",
"-622 164 CURVE SMOOTH",
"-558 164 OFFCURVE",
"-538 176 OFFCURVE",
"-538 209 CURVE SMOOTH",
"-538 241 OFFCURVE",
"-572 253 OFFCURVE",
"-626 269 CURVE SMOOTH",
"-869 341 OFFCURVE",
"-960 396 OFFCURVE",
"-960 551 CURVE SMOOTH",
"-960 700 OFFCURVE",
"-884 792 OFFCURVE",
"-579 792 CURVE SMOOTH",
"-372 792 OFFCURVE",
"-252 718 OFFCURVE",
"-252 718 CURVE",
"-252 528 LINE",
"-472 528 LINE",
"-472 580 OFFCURVE",
"-503 614 OFFCURVE",
"-563 614 CURVE SMOOTH",
"-623 614 OFFCURVE",
"-644 606 OFFCURVE",
"-644 575 CURVE SMOOTH",
"-644 544 OFFCURVE",
"-610 534 OFFCURVE",
"-552 520 CURVE SMOOTH",
"-371 474 OFFCURVE",
"-228 420 OFFCURVE",
"-228 249 CURVE SMOOTH",
"-228 64 OFFCURVE",
"-346 -14 OFFCURVE",
"-598 -14 CURVE SMOOTH",
"-828 -14 OFFCURVE",
"-951 60 OFFCURVE",
"-951 60 CURVE"
);
},
{
closed = 1;
nodes = (
"41 215 LINE",
"105 199 OFFCURVE",
"212 184 OFFCURVE",
"287 184 CURVE SMOOTH",
"350 184 OFFCURVE",
"364 198 OFFCURVE",
"364 219 CURVE SMOOTH",
"364 237 OFFCURVE",
"355 252 OFFCURVE",
"316 268 CURVE SMOOTH",
"120 348 OFFCURVE",
"22 395 OFFCURVE",
"22 551 CURVE SMOOTH",
"22 700 OFFCURVE",
"107 792 OFFCURVE",
"363 792 CURVE SMOOTH",
"529 792 OFFCURVE",
"640 748 OFFCURVE",
"640 748 CURVE",
"640 568 LINE",
"571 583 OFFCURVE",
"490 594 OFFCURVE",
"412 594 CURVE SMOOTH",
"360 594 OFFCURVE",
"338 584 OFFCURVE",
"338 561 CURVE SMOOTH",
"338 538 OFFCURVE",
"356 530 OFFCURVE",
"390 518 CURVE SMOOTH",
"544 464 OFFCURVE",
"674 415 OFFCURVE",
"674 243 CURVE SMOOTH",
"674 72 OFFCURVE",
"558 -14 OFFCURVE",
"344 -14 CURVE SMOOTH",
"158 -14 OFFCURVE",
"41 36 OFFCURVE",
"41 36 CURVE"
);
}
);
};
layerId = UUID0;
paths = (
{
closed = 1;
nodes = (
"313 179 LINE SMOOTH",
"263 179 OFFCURVE",
"251 198 OFFCURVE",
"251 238 CURVE",
"31 238 LINE",
"31 40 LINE",
"31 40 OFFCURVE",
"152 -14 OFFCURVE",
"344 -14 CURVE SMOOTH",
"558 -14 OFFCURVE",
"674 72 OFFCURVE",
"674 243 CURVE SMOOTH",
"674 415 OFFCURVE",
"545 468 OFFCURVE",
"390 518 CURVE SMOOTH",
"349 531 OFFCURVE",
"328 538 OFFCURVE",
"328 561 CURVE SMOOTH",
"328 589 OFFCURVE",
"346 599 OFFCURVE",
"390 599 CURVE SMOOTH",
"421 599 OFFCURVE",
"445 587 OFFCURVE",
"445 549 CURVE",
"655 549 LINE",
"655 728 LINE",
"655 728 OFFCURVE",
"556 792 OFFCURVE",
"363 792 CURVE SMOOTH",
"107 792 OFFCURVE",
"22 700 OFFCURVE",
"22 551 CURVE SMOOTH",
"22 395 OFFCURVE",
"118 342 OFFCURVE",
"316 268 CURVE SMOOTH",
"363 251 OFFCURVE",
"374 237 OFFCURVE",
"374 219 CURVE SMOOTH",
"374 193 OFFCURVE",
"357 179 OFFCURVE",
"313 179 CURVE SMOOTH"
);
}
);
width = 686;
}
);
unicode = 0053;
},
{
glyphname = at;
lastChange = "2016-07-26 11:06:05 +0000";
layers = (
{
background = {
paths = (
{
closed = 1;
nodes = (
"-926 -4 OFFCURVE",
"-719 -211 OFFCURVE",
"-464 -211 CURVE SMOOTH",
"-209 -211 OFFCURVE",
"-2 -4 OFFCURVE",
"-2 251 CURVE SMOOTH",
"-2 506 OFFCURVE",
"-209 713 OFFCURVE",
"-464 713 CURVE SMOOTH",
"-719 713 OFFCURVE",
"-926 506 OFFCURVE",
"-926 251 CURVE SMOOTH"
);
},
{
closed = 1;
nodes = (
"-751 411 OFFCURVE",
"-624 539 OFFCURVE",
"-464 539 CURVE SMOOTH",
"-304 539 OFFCURVE",
"-176 411 OFFCURVE",
"-176 251 CURVE SMOOTH",
"-176 91 OFFCURVE",
"-304 -36 OFFCURVE",
"-464 -36 CURVE SMOOTH",
"-624 -36 OFFCURVE",
"-751 91 OFFCURVE",
"-751 251 CURVE SMOOTH"
);
},
{
closed = 1;
nodes = (
"-419 99 LINE",
"-409 99 LINE",
"-419 48 LINE",
"-256 48 LINE",
"-256 272 LINE",
"-419 272 LINE"
);
},
{
closed = 1;
nodes = (
"-256 272 LINE",
"-256 432 OFFCURVE",
"-320 483 OFFCURVE",
"-457 483 CURVE SMOOTH",
"-597 483 OFFCURVE",
"-662 416 OFFCURVE",
"-662 416 CURVE",
"-662 315 LINE",
"-521 315 LINE",
"-521 324 LINE SMOOTH",
"-521 331 OFFCURVE",
"-509 349 OFFCURVE",
"-473 349 CURVE SMOOTH",
"-433 349 OFFCURVE",
"-419 331 OFFCURVE",
"-419 272 CURVE"
);
},
{
closed = 1;
nodes = (
"-419 297 LINE",
"-598 297 OFFCURVE",
"-681 262 OFFCURVE",
"-681 157 CURVE SMOOTH",
"-681 82 OFFCURVE",
"-615 35 OFFCURVE",
"-533 35 CURVE SMOOTH",
"-471 35 OFFCURVE",
"-422 76 OFFCURVE",
"-409 99 CURVE",
"-419 99 LINE"
);
},
{
closed = 1;
nodes = (
"-419 216 LINE SMOOTH",
"-419 194 OFFCURVE",
"-424 166 OFFCURVE",
"-465 166 CURVE SMOOTH",
"-483 166 OFFCURVE",
"-504 171 OFFCURVE",
"-504 193 CURVE SMOOTH",
"-504 218 OFFCURVE",
"-471 225 OFFCURVE",
"-419 225 CURVE"
);
},
{
closed = 1;
nodes = (
"-361 48 LINE",
"-90 48 LINE",
"-90 180 LINE",
"-361 180 LINE"
);
},
{
closed = 1;
nodes = (
"86 -4 OFFCURVE",
"316 -234 OFFCURVE",
"599 -234 CURVE SMOOTH",
"702 -234 OFFCURVE",
"798 -203 OFFCURVE",
"879 -150 CURVE SMOOTH",
"1018 -60 OFFCURVE",
"1112 100 OFFCURVE",
"1112 279 CURVE SMOOTH",
"1112 562 OFFCURVE",
"882 790 OFFCURVE",
"599 790 CURVE SMOOTH",
"316 790 OFFCURVE",
"86 562 OFFCURVE",
"86 279 CURVE SMOOTH"
);
},
{
closed = 1;
nodes = (
"248 474 OFFCURVE",
"403 630 OFFCURVE",
"599 630 CURVE SMOOTH",
"794 630 OFFCURVE",
"950 474 OFFCURVE",
"950 279 CURVE SMOOTH",
"950 154 OFFCURVE",
"888 46 OFFCURVE",
"791 -16 CURVE SMOOTH",
"736 -51 OFFCURVE",
"670 -72 OFFCURVE",
"599 -72 CURVE SMOOTH",
"403 -72 OFFCURVE",
"248 84 OFFCURVE",
"248 279 CURVE SMOOTH"
);
},
{
closed = 1;
nodes = (
"-1596 505 OFFCURVE",
"-1699 375 OFFCURVE",
"-1720 251 CURVE SMOOTH",
"-1746 94 OFFCURVE",
"-1647 28 OFFCURVE",
"-1548 28 CURVE SMOOTH",
"-1484 28 OFFCURVE",
"-1428 73 OFFCURVE",
"-1414 99 CURVE",
"-1376 27 OFFCURVE",
"-1300 4 OFFCURVE",
"-1223 4 CURVE SMOOTH",
"-1101 4 OFFCURVE",
"-1005 98 OFFCURVE",
"-1005 251 CURVE SMOOTH",
"-1005 506 OFFCURVE",
"-1212 713 OFFCURVE",
"-1467 713 CURVE SMOOTH",
"-1722 713 OFFCURVE",
"-1929 506 OFFCURVE",
"-1929 251 CURVE SMOOTH",
"-1929 13 OFFCURVE",
"-1752 -181 OFFCURVE",
"-1537 -181 CURVE SMOOTH",
"-1469 -181 OFFCURVE",
"-1403 -161 OFFCURVE",
"-1366 -140 CURVE",
"-1366 17 LINE",
"-1465 17 LINE",
"-1465 -14 LINE",
"-1481 -30 OFFCURVE",
"-1513 -35 OFFCURVE",
"-1537 -35 CURVE SMOOTH",
"-1673 -35 OFFCURVE",
"-1783 93 OFFCURVE",
"-1783 251 CURVE SMOOTH",
"-1783 427 OFFCURVE",
"-1643 568 OFFCURVE",
"-1467 568 CURVE SMOOTH",
"-1291 568 OFFCURVE",
"-1150 427 OFFCURVE",
"-1150 251 CURVE SMOOTH",
"-1150 195 OFFCURVE",
"-1165 139 OFFCURVE",
"-1224 139 CURVE SMOOTH",
"-1280 139 OFFCURVE",
"-1290 179 OFFCURVE",
"-1263 324 CURVE",
"-1237 472 OFFCURVE",
"-1292 505 OFFCURVE",
"-1409 505 CURVE SMOOTH"
);
},
{
closed = 1;
nodes = (
"-1501 164 OFFCURVE",
"-1530 185 OFFCURVE",
"-1525 268 CURVE SMOOTH",
"-1522 312 OFFCURVE",
"-1497 397 OFFCURVE",
"-1443 397 CURVE SMOOTH",
"-1420 397 OFFCURVE",
"-1424 339 OFFCURVE",
"-1427 286 CURVE",
"-1432 225 OFFCURVE",
"-1441 164 OFFCURVE",
"-1480 164 CURVE SMOOTH"
);
},
{
closed = 1;
nodes = (
"-2446 46 OFFCURVE",
"-2380 -6 OFFCURVE",
"-2287 -6 CURVE SMOOTH",
"-2153 -6 OFFCURVE",
"-2042 118 OFFCURVE",
"-2042 285 CURVE SMOOTH",
"-2042 597 OFFCURVE",
"-2283 823 OFFCURVE",
"-2569 823 CURVE SMOOTH",
"-2867 823 OFFCURVE",
"-3108 582 OFFCURVE",
"-3108 285 CURVE SMOOTH",
"-3108 -18 OFFCURVE",
"-2861 -252 OFFCURVE",
"-2571 -252 CURVE SMOOTH",
"-2431 -252 OFFCURVE",
"-2341 -210 OFFCURVE",
"-2272 -165 CURVE",
"-2355 -32 LINE",
"-2423 -77 OFFCURVE",
"-2509 -96 OFFCURVE",
"-2560 -96 CURVE SMOOTH",
"-2783 -96 OFFCURVE",
"-2949 73 OFFCURVE",
"-2949 285 CURVE SMOOTH",
"-2949 496 OFFCURVE",
"-2781 667 OFFCURVE",
"-2569 667 CURVE SMOOTH",
"-2471 667 OFFCURVE",
"-2381 630 OFFCURVE",
"-2314 566 CURVE",
"-2464 566 LINE",
"-2470 539 LINE",
"-2484 554 OFFCURVE",
"-2516 576 OFFCURVE",
"-2577 576 CURVE SMOOTH",
"-2688 576 OFFCURVE",
"-2829 482 OFFCURVE",
"-2866 301 CURVE SMOOTH",
"-2896 154 OFFCURVE",
"-2827 21 OFFCURVE",
"-2685 21 CURVE SMOOTH",
"-2583 21 OFFCURVE",
"-2520 73 OFFCURVE",
"-2471 127 CURVE"
);
},
{
closed = 1;
nodes = (
"-2199 211 OFFCURVE",
"-2225 160 OFFCURVE",
"-2275 160 CURVE SMOOTH",
"-2331 160 OFFCURVE",
"-2348 210 OFFCURVE",
"-2318 355 CURVE SMOOTH",
"-2281 529 LINE",
"-2230 465 OFFCURVE",
"-2199 382 OFFCURVE",
"-2199 285 CURVE SMOOTH"
);
},
{
closed = 1;
nodes = (
"-2634 199 OFFCURVE",
"-2650 227 OFFCURVE",
"-2631 311 CURVE SMOOTH",
"-2613 392 OFFCURVE",
"-2574 432 OFFCURVE",
"-2538 432 CURVE SMOOTH",
"-2520 432 OFFCURVE",
"-2509 428 OFFCURVE",
"-2500 419 CURVE",
"-2537 255 LINE SMOOTH",
"-2547 211 OFFCURVE",
"-2574 199 OFFCURVE",
"-2594 199 CURVE SMOOTH"
);
},
{
closed = 1;
nodes = (
"1971 510 LINE",
"1896 544 OFFCURVE",
"1799 570 OFFCURVE",
"1715 570 CURVE SMOOTH",
"1528 570 OFFCURVE",
"1381 462 OFFCURVE",
"1381 235 CURVE SMOOTH",
"1381 82 OFFCURVE",
"1448 -14 OFFCURVE",
"1577 -14 CURVE SMOOTH",
"1662 -14 OFFCURVE",
"1716 36 OFFCURVE",
"1741 68 CURVE",
"1741 0 LINE",
"2015 0 LINE",
"2015 164 LINE",
"1971 164 LINE"
);
},
{
closed = 1;
nodes = (
"1625 308 LINE SMOOTH",
"1625 353 OFFCURVE",
"1645 392 OFFCURVE",
"1689 392 CURVE SMOOTH",
"1708 392 OFFCURVE",
"1730 387 OFFCURVE",
"1741 383 CURVE",
"1741 205 LINE",
"1727 185 OFFCURVE",
"1700 164 OFFCURVE",
"1671 164 CURVE SMOOTH",
"1643 164 OFFCURVE",
"1625 180 OFFCURVE",
"1625 218 CURVE SMOOTH"
);
},
{
closed = 1;
nodes = (
"2803 510 LINE",
"2728 544 OFFCURVE",
"2631 570 OFFCURVE",
"2547 570 CURVE SMOOTH",
"2360 570 OFFCURVE",
"2213 462 OFFCURVE",
"2213 235 CURVE SMOOTH",
"2213 82 OFFCURVE",
"2280 -14 OFFCURVE",
"2409 -14 CURVE SMOOTH",
"2501 -14 OFFCURVE",
"2566 46 OFFCURVE",
"2596 89 CURVE",
"2609 39 OFFCURVE",
"2651 -14 OFFCURVE",
"2731 -14 CURVE SMOOTH",
"2795 -14 OFFCURVE",
"2857 7 OFFCURVE",
"2857 7 CURVE",
"2857 164 LINE",
"2857 164 OFFCURVE",
"2838 159 OFFCURVE",
"2824 159 CURVE SMOOTH",
"2813 159 OFFCURVE",
"2803 166 OFFCURVE",
"2803 181 CURVE SMOOTH"
);
},
{
closed = 1;
nodes = (
"2457 308 LINE SMOOTH",
"2457 353 OFFCURVE",
"2481 392 OFFCURVE",
"2523 392 CURVE SMOOTH",
"2540 392 OFFCURVE",
"2562 387 OFFCURVE",
"2573 383 CURVE",
"2573 205 LINE",
"2559 185 OFFCURVE",
"2532 164 OFFCURVE",
"2503 164 CURVE SMOOTH",
"2475 164 OFFCURVE",
"2457 180 OFFCURVE",
"2457 218 CURVE SMOOTH"
);
}
);
};
layerId = UUID0;
paths = (
{
closed = 1;
nodes = (
"520 348 LINE SMOOTH",
"520 393 OFFCURVE",
"544 432 OFFCURVE",
"586 432 CURVE SMOOTH",
"604 432 OFFCURVE",
"625 428 OFFCURVE",
"636 425 CURVE",
"636 195 LINE",
"622 175 OFFCURVE",
"595 154 OFFCURVE",
"566 154 CURVE SMOOTH",
"538 154 OFFCURVE",
"520 170 OFFCURVE",
"520 208 CURVE SMOOTH"
);
},
{
closed = 1;
nodes = (
"699 -60 LINE",
"699 -60 OFFCURVE",
"632 -84 OFFCURVE",
"500 -84 CURVE SMOOTH",
"321 -84 OFFCURVE",
"194 0 OFFCURVE",
"194 229 CURVE SMOOTH",
"194 475 OFFCURVE",
"360 642 OFFCURVE",
"604 642 CURVE SMOOTH",
"823 642 OFFCURVE",
"950 545 OFFCURVE",
"950 341 CURVE SMOOTH",
"950 214 OFFCURVE",
"918 139 OFFCURVE",
"887 139 CURVE SMOOTH",
"876 139 OFFCURVE",
"866 146 OFFCURVE",
"866 161 CURVE SMOOTH",
"866 510 LINE",
"791 544 OFFCURVE",
"694 570 OFFCURVE",
"610 570 CURVE SMOOTH",
"423 570 OFFCURVE",
"276 462 OFFCURVE",
"276 235 CURVE SMOOTH",
"276 82 OFFCURVE",
"343 -14 OFFCURVE",
"472 -14 CURVE SMOOTH",
"564 -14 OFFCURVE",
"629 46 OFFCURVE",
"659 89 CURVE",
"672 39 OFFCURVE",
"714 -14 OFFCURVE",
"820 -14 CURVE SMOOTH",
"960 -14 OFFCURVE",
"1112 100 OFFCURVE",
"1112 363 CURVE SMOOTH",
"1112 624 OFFCURVE",
"928 792 OFFCURVE",
"625 792 CURVE SMOOTH",
"299 792 OFFCURVE",
"32 570 OFFCURVE",
"32 215 CURVE SMOOTH",
"32 -88 OFFCURVE",
"195 -236 OFFCURVE",
"484 -236 CURVE SMOOTH",
"608 -236 OFFCURVE",
"699 -205 OFFCURVE",
"699 -205 CURVE"
);
}
);
width = 1148;
}
);
unicode = 0040;
},
{
glyphname = period;
lastChange = "2016-07-26 11:06:05 +0000";
layers = (
{
layerId = UUID0;
paths = (
{
closed = 1;
nodes = (
"40 0 LINE",
"196 0 LINE",
"196 164 LINE",
"40 164 LINE"
);
}
);
width = 244;
}
);
unicode = 002E;
},
{
glyphname = colon;
lastChange = "2016-07-26 11:06:05 +0000";
layers = (
{
layerId = UUID0;
paths = (
{
closed = 1;
nodes = (
"40 325 LINE",
"196 325 LINE",
"196 489 LINE",
"40 489 LINE"
);
},
{
closed = 1;
nodes = (
"40 0 LINE",
"196 0 LINE",
"196 164 LINE",
"40 164 LINE"
);
}
);
width = 244;
}
);
unicode = 003A;
},
{
glyphname = d;
lastChange = "2016-07-26 11:06:05 +0000";
layers = (
{
background = {
paths = (
{
closed = 1;
nodes = (
"308 614 LINE",
"367 614 LINE",
"367 556 LINE",
"378 488 LINE",
"355 514 OFFCURVE",
"309 570 OFFCURVE",
"230 570 CURVE SMOOTH",
"107 570 OFFCURVE",
"24 453 OFFCURVE",
"24 276 CURVE SMOOTH",
"24 92 OFFCURVE",
"107 -18 OFFCURVE",
"230 -18 CURVE SMOOTH",
"310 -18 OFFCURVE",
"358 31 OFFCURVE",
"378 68 CURVE",
"367 0 LINE",
"641 0 LINE",
"641 164 LINE",
"597 164 LINE",
"597 778 LINE",
"308 778 LINE"
);
},
{
closed = 1;
nodes = (
"365 399 OFFCURVE",
"376 366 OFFCURVE",
"378 297 CURVE SMOOTH",
"378 280 LINE",
"378 262 LINE SMOOTH",
"376 194 OFFCURVE",
"366 164 OFFCURVE",
"326 164 CURVE SMOOTH",
"281 164 OFFCURVE",
"273 202 OFFCURVE",
"273 281 CURVE SMOOTH",
"273 360 OFFCURVE",
"280 399 OFFCURVE",
"325 399 CURVE SMOOTH"
);
}
);
};
layerId = UUID0;
paths = (
{
closed = 1;
nodes = (
"372 488 LINE",
"347 520 OFFCURVE",
"293 570 OFFCURVE",
"217 570 CURVE SMOOTH",
"79 570 OFFCURVE",
"12 462 OFFCURVE",
"12 278 CURVE SMOOTH",
"12 94 OFFCURVE",
"79 -14 OFFCURVE",
"217 -14 CURVE SMOOTH",
"293 -14 OFFCURVE",
"347 36 OFFCURVE",
"372 68 CURVE",
"372 0 LINE",
"646 0 LINE",
"646 164 LINE",
"602 164 LINE",
"602 778 LINE",
"313 778 LINE",
"313 614 LINE",
"372 614 LINE"
);
},
{
closed = 1;
nodes = (
"256 328 LINE SMOOTH",
"256 373 OFFCURVE",
"276 392 OFFCURVE",
"314 392 CURVE SMOOTH",
"352 392 OFFCURVE",
"372 373 OFFCURVE",
"372 328 CURVE SMOOTH",
"372 228 LINE SMOOTH",
"372 183 OFFCURVE",
"352 164 OFFCURVE",
"314 164 CURVE SMOOTH",
"276 164 OFFCURVE",
"256 183 OFFCURVE",
"256 228 CURVE SMOOTH"
);
}
);
width = 656;
}
);
unicode = 0064;
},
{
glyphname = i;
lastChange = "2016-07-26 11:06:05 +0000";
layers = (
{
layerId = UUID0;
paths = (
{
closed = 1;
nodes = (
"292 556 LINE",
"18 556 LINE",
"18 392 LINE",
"62 392 LINE",
"62 164 LINE",
"18 164 LINE",
"18 0 LINE",
"336 0 LINE",
"336 164 LINE",
"292 164 LINE"
);
},
{
closed = 1;
nodes = (
"76 611 LINE",
"260 611 LINE",
"260 778 LINE",
"76 778 LINE"
);
}
);
width = 346;
}
);
unicode = 0069;
},
{
glyphname = m;
lastChange = "2016-07-26 11:06:05 +0000";
layers = (
{
background = {
paths = (
{
closed = 1;
nodes = (
"359 0 LINE",
"677 0 LINE",
"677 164 LINE",
"633 164 LINE",
"633 328 LINE SMOOTH",
"633 495 OFFCURVE",
"565 570 OFFCURVE",
"456 570 CURVE SMOOTH",
"366 570 OFFCURVE",
"319 520 OFFCURVE",
"287 488 CURVE",
"287 556 LINE",
"13 556 LINE",
"13 392 LINE",
"57 392 LINE",
"57 164 LINE",
"13 164 LINE",
"13 0 LINE",
"331 0 LINE",
"331 164 LINE",
"287 164 LINE",
"287 328 LINE SMOOTH",
"287 373 OFFCURVE",
"307 392 OFFCURVE",
"345 392 CURVE SMOOTH",
"383 392 OFFCURVE",
"403 373 OFFCURVE",
"403 328 CURVE SMOOTH",
"403 164 LINE",
"359 164 LINE"
);
},
{
closed = 1;
nodes = (
"705 0 LINE",
"1023 0 LINE",
"1023 164 LINE",
"979 164 LINE",
"979 328 LINE SMOOTH",
"979 495 OFFCURVE",
"911 570 OFFCURVE",
"802 570 CURVE SMOOTH",
"712 570 OFFCURVE",
"665 520 OFFCURVE",
"633 488 CURVE",
"633 556 LINE",
"359 556 LINE",
"359 392 LINE",
"403 392 LINE",
"403 164 LINE",
"359 164 LINE",
"359 0 LINE",
"677 0 LINE",
"677 164 LINE",
"633 164 LINE",
"633 328 LINE SMOOTH",
"633 373 OFFCURVE",
"653 392 OFFCURVE",
"691 392 CURVE SMOOTH",
"729 392 OFFCURVE",
"749 373 OFFCURVE",
"749 328 CURVE SMOOTH",
"749 164 LINE",
"705 164 LINE"
);
}
);
};
layerId = UUID0;
paths = (
{
closed = 1;
nodes = (
"364 0 LINE",
"682 0 LINE",
"682 164 LINE",
"638 164 LINE",
"638 328 LINE SMOOTH",
"638 373 OFFCURVE",
"658 392 OFFCURVE",
"696 392 CURVE SMOOTH",
"734 392 OFFCURVE",
"754 373 OFFCURVE",
"754 328 CURVE SMOOTH",
"754 164 LINE",
"710 164 LINE",
"710 0 LINE",
"1028 0 LINE",
"1028 164 LINE",
"984 164 LINE",
"984 328 LINE SMOOTH",
"984 495 OFFCURVE",
"916 570 OFFCURVE",
"807 570 CURVE SMOOTH",
"706 570 OFFCURVE",
"658 525 OFFCURVE",
"618 488 CURVE",
"592 527 OFFCURVE",
"552 570 OFFCURVE",
"461 570 CURVE SMOOTH",
"371 570 OFFCURVE",
"324 520 OFFCURVE",
"292 488 CURVE",
"292 556 LINE",
"18 556 LINE",
"18 392 LINE",
"62 392 LINE",
"62 164 LINE",
"18 164 LINE",
"18 0 LINE",
"336 0 LINE",
"336 164 LINE",
"292 164 LINE",
"292 328 LINE SMOOTH",
"292 373 OFFCURVE",
"312 392 OFFCURVE",
"350 392 CURVE SMOOTH",
"388 392 OFFCURVE",
"408 373 OFFCURVE",
"408 328 CURVE SMOOTH",
"408 164 LINE",
"364 164 LINE"
);
}
);
width = 1038;
}
);
unicode = 006D;
},
{
glyphname = n;
lastChange = "2016-07-26 15:16:45 +0000";
layers = (
{
anchors = (
{
name = top;
position = "{359, 614}";
}
);
background = {
paths = (
{
closed = 1;
nodes = (
"357 0 LINE",
"675 0 LINE",
"675 164 LINE",
"631 164 LINE",
"631 328 LINE SMOOTH",
"631 495 OFFCURVE",
"563 570 OFFCURVE",
"454 570 CURVE SMOOTH",
"364 570 OFFCURVE",
"317 520 OFFCURVE",
"285 488 CURVE",
"285 556 LINE",
"11 556 LINE",
"11 392 LINE",
"55 392 LINE",
"55 164 LINE",
"11 164 LINE",
"11 0 LINE",
"329 0 LINE",
"329 164 LINE",
"285 164 LINE",
"285 328 LINE SMOOTH",
"285 373 OFFCURVE",
"305 392 OFFCURVE",
"343 392 CURVE SMOOTH",
"381 392 OFFCURVE",
"401 373 OFFCURVE",
"401 328 CURVE SMOOTH",
"401 164 LINE",
"357 164 LINE"
);
}
);
};
layerId = UUID0;
paths = (
{
closed = 1;
nodes = (
"362 0 LINE",
"680 0 LINE",
"680 164 LINE",
"636 164 LINE",
"636 328 LINE SMOOTH",
"636 495 OFFCURVE",
"568 570 OFFCURVE",
"459 570 CURVE SMOOTH",
"369 570 OFFCURVE",
"322 520 OFFCURVE",
"290 488 CURVE",
"290 556 LINE",
"16 556 LINE",
"16 392 LINE",
"60 392 LINE",
"60 164 LINE",
"16 164 LINE",
"16 0 LINE",
"334 0 LINE",
"334 164 LINE",
"290 164 LINE",
"290 328 LINE SMOOTH",
"290 373 OFFCURVE",
"311 392 OFFCURVE",
"350 392 CURVE SMOOTH",
"387 392 OFFCURVE",
"406 373 OFFCURVE",
"406 328 CURVE SMOOTH",
"406 164 LINE",
"362 164 LINE"
);
}
);
width = 688;
}
);
unicode = 006E;
},
{
glyphname = h;
lastChange = "2016-07-26 11:06:05 +0000";
layers = (
{
background = {
paths = (
{
closed = 1;
nodes = (
"359 0 LINE",
"677 0 LINE",
"677 164 LINE",
"633 164 LINE",
"633 328 LINE SMOOTH",
"633 495 OFFCURVE",
"565 570 OFFCURVE",
"456 570 CURVE SMOOTH",
"366 570 OFFCURVE",
"319 520 OFFCURVE",
"287 488 CURVE",
"287 556 LINE",
"13 556 LINE",
"13 392 LINE",
"57 392 LINE",
"57 164 LINE",
"13 164 LINE",
"13 0 LINE",
"331 0 LINE",
"331 164 LINE",
"287 164 LINE",
"287 328 LINE SMOOTH",
"287 373 OFFCURVE",
"307 392 OFFCURVE",
"345 392 CURVE SMOOTH",
"383 392 OFFCURVE",
"403 373 OFFCURVE",
"403 328 CURVE SMOOTH",
"403 164 LINE",
"359 164 LINE"
);
}
);
};
layerId = UUID0;
paths = (
{
closed = 1;
nodes = (
"364 0 LINE",
"682 0 LINE",
"682 164 LINE",
"638 164 LINE",
"638 328 LINE SMOOTH",
"638 495 OFFCURVE",
"570 570 OFFCURVE",
"461 570 CURVE SMOOTH",
"371 570 OFFCURVE",
"324 520 OFFCURVE",
"292 488 CURVE",
"292 778 LINE",
"18 778 LINE",
"18 614 LINE",
"62 614 LINE",
"62 164 LINE",
"18 164 LINE",
"18 0 LINE",
"336 0 LINE",
"336 164 LINE",
"292 164 LINE",
"292 328 LINE SMOOTH",
"292 373 OFFCURVE",
"312 392 OFFCURVE",
"350 392 CURVE SMOOTH",
"388 392 OFFCURVE",
"408 373 OFFCURVE",
"408 328 CURVE SMOOTH",
"408 164 LINE",
"364 164 LINE"
);
}
);
width = 692;
}
);
unicode = 0068;
},
{
glyphname = s;
lastChange = "2016-07-26 15:26:50 +0000";
layers = (
{
anchors = (
{
name = top;
position = "{248, 614}";
}
);
layerId = UUID0;
paths = (
{
closed = 1;
nodes = (
"18 160 LINE",
"77 150 OFFCURVE",
"175 138 OFFCURVE",
"234 138 CURVE SMOOTH",
"293 138 OFFCURVE",
"306 148 OFFCURVE",
"306 164 CURVE SMOOTH",
"306 182 OFFCURVE",
"292 188 OFFCURVE",
"229 197 CURVE SMOOTH",
"90 216 OFFCURVE",
"6 275 OFFCURVE",
"6 387 CURVE SMOOTH",
"6 491 OFFCURVE",
"79 570 OFFCURVE",
"261 570 CURVE SMOOTH",
"377 570 OFFCURVE",
"467 551 OFFCURVE",
"502 537 CURVE",
"502 402 LINE",
"454 409 OFFCURVE",
"366 419 OFFCURVE",
"303 419 CURVE SMOOTH",
"249 419 OFFCURVE",
"226 411 OFFCURVE",
"226 395 CURVE SMOOTH",
"226 379 OFFCURVE",
"240 372 OFFCURVE",
"302 366 CURVE SMOOTH",
"456 350 OFFCURVE",
"528 294 OFFCURVE",
"528 178 CURVE SMOOTH",
"528 59 OFFCURVE",
"449 -14 OFFCURVE",
"276 -14 CURVE SMOOTH",
"157 -14 OFFCURVE",
"59 6 OFFCURVE",
"18 21 CURVE"
);
}
);
width = 543;
},
{
anchors = (
{
name = top;
position = "{279, 614}";
}
);
associatedMasterId = UUID0;
layerId = "0815613E-6862-46A3-ABCB-51B6E61F71FE";
name = "Regular Jul 26 16, 17:39";
paths = (
{
closed = 1;
nodes = (
"35 156 LINE",
"89 148 OFFCURVE",
"180 138 OFFCURVE",
"234 138 CURVE SMOOTH",
"293 138 OFFCURVE",
"306 148 OFFCURVE",
"306 164 CURVE SMOOTH",
"306 182 OFFCURVE",
"292 188 OFFCURVE",
"229 197 CURVE SMOOTH",
"90 216 OFFCURVE",
"6 275 OFFCURVE",
"6 387 CURVE SMOOTH",
"6 491 OFFCURVE",
"79 570 OFFCURVE",
"261 570 CURVE SMOOTH",
"373 570 OFFCURVE",
"459 553 OFFCURVE",
"493 540 CURVE",
"493 405 LINE",
"447 411 OFFCURVE",
"363 419 OFFCURVE",
"303 419 CURVE SMOOTH",
"249 419 OFFCURVE",
"226 411 OFFCURVE",
"226 395 CURVE SMOOTH",
"226 379 OFFCURVE",
"240 372 OFFCURVE",
"302 366 CURVE SMOOTH",
"456 350 OFFCURVE",
"528 294 OFFCURVE",
"528 178 CURVE SMOOTH",
"528 59 OFFCURVE",
"449 -14 OFFCURVE",
"276 -14 CURVE SMOOTH",
"165 -14 OFFCURVE",
"73 4 OFFCURVE",
"35 17 CURVE"
);
}
);
width = 534;
visible = 1;
},
{
anchors = (
{
name = top;
position = "{248, 614}";
}
);
associatedMasterId = UUID0;
layerId = "92020503-0CAB-49BE-BD66-F27B1D652DC0";
name = "Regular Jul 26 16, 20:53";
paths = (
{
closed = 1;
nodes = (
"75 76 LINE",
"124 23 OFFCURVE",
"206 -14 OFFCURVE",
"304 -14 CURVE SMOOTH",
"420 -14 OFFCURVE",
"497 50 OFFCURVE",
"497 158 CURVE SMOOTH",
"497 254 OFFCURVE",
"453 306 OFFCURVE",
"334 356 CURVE SMOOTH",
"274 381 LINE SMOOTH",
"224 401 OFFCURVE",
"200 412 OFFCURVE",
"200 430 CURVE SMOOTH",
"200 444 OFFCURVE",
"211 453 OFFCURVE",
"231 453 CURVE SMOOTH",
"276 453 OFFCURVE",
"320 425 OFFCURVE",
"353 389 CURVE",
"465 389 LINE",
"465 556 LINE",
"343 556 LINE",
"343 456 LINE",
"379 475 LINE",
"379 517 OFFCURVE",
"304 570 OFFCURVE",
"210 570 CURVE SMOOTH",
"93 570 OFFCURVE",
"10 498 OFFCURVE",
"10 397 CURVE SMOOTH",
"10 296 OFFCURVE",
"74 245 OFFCURVE",
"174 204 CURVE SMOOTH",
"254 171 LINE SMOOTH",
"293 156 OFFCURVE",
"307 146 OFFCURVE",
"307 127 CURVE SMOOTH",
"307 111 OFFCURVE",
"293 103 OFFCURVE",
"269 103 CURVE SMOOTH",
"219 103 OFFCURVE",
"165 130 OFFCURVE",
"122 174 CURVE",
"10 174 LINE",
"10 0 LINE",
"132 0 LINE",
"132 107 LINE"
);
}
);
width = 507;
}
);
unicode = 0073;
},
{
glyphname = b;
lastChange = "2016-07-26 11:06:05 +0000";
layers = (
{
background = {
paths = (
{
closed = 1;
nodes = (
"359 0 LINE",
"677 0 LINE",
"677 164 LINE",
"633 164 LINE",
"633 328 LINE SMOOTH",
"633 495 OFFCURVE",
"565 570 OFFCURVE",
"456 570 CURVE SMOOTH",
"366 570 OFFCURVE",
"319 520 OFFCURVE",
"287 488 CURVE",
"287 556 LINE",
"13 556 LINE",
"13 392 LINE",
"57 392 LINE",
"57 164 LINE",
"13 164 LINE",
"13 0 LINE",
"331 0 LINE",
"331 164 LINE",
"287 164 LINE",
"287 328 LINE SMOOTH",
"287 373 OFFCURVE",
"307 392 OFFCURVE",
"345 392 CURVE SMOOTH",
"383 392 OFFCURVE",
"403 373 OFFCURVE",
"403 328 CURVE SMOOTH",
"403 164 LINE",
"359 164 LINE"
);
},
{
closed = 1;
nodes = (
"403 228 LINE SMOOTH",
"403 183 OFFCURVE",
"383 164 OFFCURVE",
"345 164 CURVE SMOOTH",
"307 164 OFFCURVE",
"287 183 OFFCURVE",
"287 228 CURVE SMOOTH",
"287 328 LINE SMOOTH",
"287 373 OFFCURVE",
"307 392 OFFCURVE",
"345 392 CURVE SMOOTH",
"383 392 OFFCURVE",
"403 373 OFFCURVE",
"403 328 CURVE SMOOTH"
);
}
);
};
layerId = UUID0;
paths = (
{
closed = 1;
nodes = (
"292 778 LINE",
"18 778 LINE",
"18 614 LINE",
"62 614 LINE",
"62 164 LINE",
"18 164 LINE",
"18 0 LINE",
"292 0 LINE",
"292 68 LINE",
"317 36 OFFCURVE",
"371 -14 OFFCURVE",
"447 -14 CURVE SMOOTH",
"585 -14 OFFCURVE",
"652 94 OFFCURVE",
"652 278 CURVE SMOOTH",
"652 462 OFFCURVE",
"585 570 OFFCURVE",
"447 570 CURVE SMOOTH",
"371 570 OFFCURVE",
"317 520 OFFCURVE",
"292 488 CURVE"
);
},
{
closed = 1;
nodes = (
"408 228 LINE SMOOTH",
"408 183 OFFCURVE",
"388 164 OFFCURVE",
"350 164 CURVE SMOOTH",
"312 164 OFFCURVE",
"292 183 OFFCURVE",
"292 228 CURVE SMOOTH",
"292 328 LINE SMOOTH",
"292 373 OFFCURVE",
"312 392 OFFCURVE",
"350 392 CURVE SMOOTH",
"388 392 OFFCURVE",
"408 373 OFFCURVE",
"408 328 CURVE SMOOTH"
);
}
);
width = 664;
}
);
unicode = 0062;
},
{
glyphname = p;
lastChange = "2016-07-26 11:06:05 +0000";
layers = (
{
background = {
paths = (
{
closed = 1;
nodes = (
"257 41 LINE",
"286 13 OFFCURVE",
"322 -16 OFFCURVE",
"395 -16 CURVE SMOOTH",
"507 -16 OFFCURVE",
"586 83 OFFCURVE",
"586 248 CURVE SMOOTH",
"586 408 OFFCURVE",
"507 513 OFFCURVE",
"395 513 CURVE SMOOTH",
"322 513 OFFCURVE",
"291 492 OFFCURVE",
"257 468 CURVE"
);
},
{
closed = 1;
nodes = (
"344 397 OFFCURVE",
"352 353 OFFCURVE",
"352 252 CURVE SMOOTH",
"352 151 OFFCURVE",
"345 106 OFFCURVE",
"305 106 CURVE SMOOTH",
"265 106 OFFCURVE",
"257 143 OFFCURVE",
"257 253 CURVE SMOOTH",
"257 363 OFFCURVE",
"264 397 OFFCURVE",
"304 397 CURVE SMOOTH"
);
},
{
closed = 1;
nodes = (
"344 359 OFFCURVE",
"352 324 OFFCURVE",
"352 253 CURVE SMOOTH",
"352 182 OFFCURVE",
"344 148 OFFCURVE",
"304 148 CURVE SMOOTH",
"264 148 OFFCURVE",
"257 180 OFFCURVE",
"257 252 CURVE SMOOTH",
"257 324 OFFCURVE",
"264 359 OFFCURVE",
"304 359 CURVE SMOOTH"
);
}
);
};
layerId = UUID0;
paths = (
{
closed = 1;
nodes = (
"347 -58 LINE",
"278 -58 LINE",
"278 68 LINE",
"303 36 OFFCURVE",
"357 -14 OFFCURVE",
"433 -14 CURVE SMOOTH",
"571 -14 OFFCURVE",
"638 94 OFFCURVE",
"638 278 CURVE SMOOTH",
"638 462 OFFCURVE",
"571 570 OFFCURVE",
"433 570 CURVE SMOOTH",
"357 570 OFFCURVE",
"303 520 OFFCURVE",
"278 488 CURVE",
"278 556 LINE",
"4 556 LINE",
"4 392 LINE",
"48 392 LINE",
"48 -58 LINE",
"4 -58 LINE",
"4 -222 LINE",
"347 -222 LINE"
);
},
{
closed = 1;
nodes = (
"394 228 LINE SMOOTH",
"394 183 OFFCURVE",
"374 164 OFFCURVE",
"336 164 CURVE SMOOTH",
"298 164 OFFCURVE",
"278 183 OFFCURVE",
"278 228 CURVE SMOOTH",
"278 328 LINE SMOOTH",
"278 373 OFFCURVE",
"298 392 OFFCURVE",
"336 392 CURVE SMOOTH",
"374 392 OFFCURVE",
"394 373 OFFCURVE",
"394 328 CURVE SMOOTH"
);
}
);
width = 650;
}
);
unicode = 0070;
},
{
glyphname = q;
lastChange = "2016-07-26 11:06:05 +0000";
layers = (
{
layerId = UUID0;
paths = (
{
closed = 1;
nodes = (
"372 -58 LINE",
"303 -58 LINE",
"303 -222 LINE",
"602 -222 LINE",
"602 392 LINE",
"646 392 LINE",
"646 556 LINE",
"372 556 LINE",
"372 488 LINE",
"347 520 OFFCURVE",
"293 570 OFFCURVE",
"217 570 CURVE SMOOTH",
"79 570 OFFCURVE",
"12 462 OFFCURVE",
"12 278 CURVE SMOOTH",
"12 94 OFFCURVE",
"79 -14 OFFCURVE",
"217 -14 CURVE SMOOTH",
"293 -14 OFFCURVE",
"347 36 OFFCURVE",
"372 68 CURVE"
);
},
{
closed = 1;
nodes = (
"256 328 LINE SMOOTH",
"256 373 OFFCURVE",
"276 392 OFFCURVE",
"314 392 CURVE SMOOTH",
"352 392 OFFCURVE",
"372 373 OFFCURVE",
"372 328 CURVE SMOOTH",
"372 228 LINE SMOOTH",
"372 183 OFFCURVE",
"352 164 OFFCURVE",
"314 164 CURVE SMOOTH",
"276 164 OFFCURVE",
"256 183 OFFCURVE",
"256 228 CURVE SMOOTH"
);
}
);
width = 654;
}
);
unicode = 0071;
},
{
glyphname = l;
lastChange = "2016-07-26 11:06:05 +0000";
layers = (
{
layerId = UUID0;
paths = (
{
closed = 1;
nodes = (
"18 614 LINE",
"62 614 LINE",
"62 164 LINE",
"18 164 LINE",
"18 0 LINE",
"336 0 LINE",
"336 164 LINE",
"292 164 LINE",
"292 778 LINE",
"18 778 LINE"
);
}
);
width = 346;
}
);
unicode = 006C;
},
{
glyphname = g;
lastChange = "2016-07-26 11:06:05 +0000";
layers = (
{
background = {
paths = (
{
closed = 1;
nodes = (
"367 488 LINE",
"334 520 OFFCURVE",
"288 570 OFFCURVE",
"198 570 CURVE SMOOTH",
"60 570 OFFCURVE",
"7 486 OFFCURVE",
"7 278 CURVE SMOOTH",
"7 70 OFFCURVE",
"60 -14 OFFCURVE",
"198 -14 CURVE SMOOTH",
"288 -14 OFFCURVE",
"334 36 OFFCURVE",
"367 68 CURVE",
"367 0 LINE",
"641 0 LINE",
"641 164 LINE",
"597 164 LINE",
"597 778 LINE",
"308 778 LINE",
"308 614 LINE",
"367 614 LINE"
);
},
{
closed = 1;
nodes = (
"251 328 LINE SMOOTH",
"251 373 OFFCURVE",
"271 392 OFFCURVE",
"309 392 CURVE SMOOTH",
"347 392 OFFCURVE",
"367 373 OFFCURVE",
"367 328 CURVE SMOOTH",
"367 228 LINE SMOOTH",
"367 183 OFFCURVE",
"347 164 OFFCURVE",
"309 164 CURVE SMOOTH",
"271 164 OFFCURVE",
"251 183 OFFCURVE",
"251 228 CURVE SMOOTH"
);
}
);
};
layerId = UUID0;
paths = (
{
closed = 1;
nodes = (
"372 488 LINE",
"347 520 OFFCURVE",
"293 570 OFFCURVE",
"217 570 CURVE SMOOTH",
"79 570 OFFCURVE",
"12 462 OFFCURVE",
"12 278 CURVE SMOOTH",
"12 94 OFFCURVE",
"79 -14 OFFCURVE",
"217 -14 CURVE SMOOTH",
"293 -14 OFFCURVE",
"347 36 OFFCURVE",
"372 68 CURVE",
"372 25 LINE SMOOTH",
"372 -42 OFFCURVE",
"336 -58 OFFCURVE",
"264 -58 CURVE SMOOTH",
"199 -58 OFFCURVE",
"130 -49 OFFCURVE",
"74 -39 CURVE",
"74 -203 LINE",
"74 -203 OFFCURVE",
"168 -236 OFFCURVE",
"313 -236 CURVE SMOOTH",
"501 -236 OFFCURVE",
"602 -157 OFFCURVE",
"602 40 CURVE SMOOTH",
"602 392 LINE",
"646 392 LINE",
"646 556 LINE",
"372 556 LINE"
);
},
{
closed = 1;
nodes = (
"256 328 LINE SMOOTH",
"256 373 OFFCURVE",
"276 392 OFFCURVE",
"314 392 CURVE SMOOTH",
"352 392 OFFCURVE",
"372 373 OFFCURVE",
"372 328 CURVE SMOOTH",
"372 228 LINE SMOOTH",
"372 183 OFFCURVE",
"352 164 OFFCURVE",
"314 164 CURVE SMOOTH",
"276 164 OFFCURVE",
"256 183 OFFCURVE",
"256 228 CURVE SMOOTH"
);
}
);
width = 656;
}
);
unicode = 0067;
},
{
glyphname = k;
lastChange = "2016-07-26 11:06:05 +0000";
layers = (
{
anchors = (
{
name = bottom;
position = "{337, 0}";
}
);
background = {
paths = (
{
closed = 1;
nodes = (
"62 0 LINE",
"292 0 LINE",
"292 778 LINE",
"62 778 LINE"
);
},
{
closed = 1;
nodes = (
"18 614 LINE",
"253 614 LINE",
"253 778 LINE",
"18 778 LINE"
);
},
{
closed = 1;
nodes = (
"292 212 LINE",
"632 409 LINE",
"428 409 LINE",
"292 334 LINE"
);
},
{
closed = 1;
nodes = (
"354 280 LINE",
"408 164 LINE",
"624 164 LINE",
"533 359 LINE"
);
},
{
closed = 1;
nodes = (
"657 556 LINE",
"344 556 LINE",
"344 392 LINE",
"657 392 LINE"
);
},
{
closed = 1;
nodes = (
"18 0 LINE",
"336 0 LINE",
"336 164 LINE",
"18 164 LINE"
);
},
{
closed = 1;
nodes = (
"364 0 LINE",
"667 0 LINE",
"667 164 LINE",
"364 164 LINE"
);
}
);
};
layerId = UUID0;
paths = (
{
closed = 1;
nodes = (
"62 0 LINE",
"292 0 LINE",
"292 778 LINE",
"62 778 LINE"
);
},
{
closed = 1;
nodes = (
"18 614 LINE",
"253 614 LINE",
"253 778 LINE",
"18 778 LINE"
);
},
{
closed = 1;
nodes = (
"18 0 LINE",
"268 0 LINE",
"268 164 LINE",
"18 164 LINE"
);
},
{
closed = 1;
nodes = (
"651 392 LINE",
"651 556 LINE",
"440 556 LINE",
"316 372 LINE",
"292 372 LINE",
"292 192 LINE",
"316 192 LINE",
"419 0 LINE",
"664 0 LINE",
"664 164 LINE",
"621 164 LINE",
"525 297 LINE",
"610 392 LINE"
);
}
);
width = 674;
}
);
unicode = 006B;
},
{
glyphname = o;
lastChange = "2016-07-26 11:06:05 +0000";
layers = (
{
anchors = (
{
name = top;
position = "{310, 614}";
}
);
background = {
paths = (
{
closed = 1;
nodes = (
"319 0 LINE",
"637 0 LINE",
"637 164 LINE",
"593 164 LINE",
"593 328 LINE SMOOTH",
"593 495 OFFCURVE",
"525 570 OFFCURVE",
"416 570 CURVE SMOOTH",
"326 570 OFFCURVE",
"279 520 OFFCURVE",
"247 488 CURVE",
"247 556 LINE",
"-27 556 LINE",
"-27 392 LINE",
"17 392 LINE",
"17 164 LINE",
"-27 164 LINE",
"-27 0 LINE",
"291 0 LINE",
"291 164 LINE",
"247 164 LINE",
"247 328 LINE SMOOTH",
"247 373 OFFCURVE",
"267 392 OFFCURVE",
"305 392 CURVE SMOOTH",
"343 392 OFFCURVE",
"363 373 OFFCURVE",
"363 328 CURVE SMOOTH",
"363 164 LINE",
"319 164 LINE"
);
}
);
};
layerId = UUID0;
paths = (
{
closed = 1;
nodes = (
"612 278 LINE",
"612 473 OFFCURVE",
"495 570 OFFCURVE",
"310 570 CURVE SMOOTH",
"125 570 OFFCURVE",
"8 473 OFFCURVE",
"8 278 CURVE SMOOTH",
"8 83 OFFCURVE",
"125 -14 OFFCURVE",
"310 -14 CURVE SMOOTH",
"495 -14 OFFCURVE",
"612 83 OFFCURVE",
"612 278 CURVE SMOOTH"
);
},
{
closed = 1;
nodes = (
"310 164 LINE",
"272 164 OFFCURVE",
"252 183 OFFCURVE",
"252 228 CURVE SMOOTH",
"252 328 LINE SMOOTH",
"252 373 OFFCURVE",
"272 392 OFFCURVE",
"310 392 CURVE SMOOTH",
"348 392 OFFCURVE",
"368 373 OFFCURVE",
"368 328 CURVE SMOOTH",
"368 228 LINE SMOOTH",
"368 183 OFFCURVE",
"348 164 OFFCURVE",
"310 164 CURVE SMOOTH"
);
}
);
width = 620;
}
);
unicode = 006F;
},
{
glyphname = u;
lastChange = "2016-07-26 11:06:05 +0000";
layers = (
{
anchors = (
{
name = top;
position = "{318, 614}";
}
);
background = {
paths = (
{
closed = 1;
nodes = (
"320 556 LINE",
"2 556 LINE",
"2 392 LINE",
"46 392 LINE",
"46 228 LINE SMOOTH",
"46 61 OFFCURVE",
"114 -14 OFFCURVE",
"223 -14 CURVE SMOOTH",
"313 -14 OFFCURVE",
"360 36 OFFCURVE",
"392 68 CURVE",
"392 0 LINE",
"666 0 LINE",
"666 164 LINE",
"622 164 LINE",
"622 392 LINE",
"666 392 LINE",
"666 556 LINE",
"348 556 LINE",
"348 392 LINE",
"392 392 LINE",
"392 228 LINE SMOOTH",
"392 183 OFFCURVE",
"372 164 OFFCURVE",
"334 164 CURVE SMOOTH",
"296 164 OFFCURVE",
"276 183 OFFCURVE",
"276 228 CURVE SMOOTH",
"276 392 LINE",
"320 392 LINE"
);
}
);
};
layerId = UUID0;
paths = (
{
closed = 1;
nodes = (
"276 556 LINE",
"2 556 LINE",
"2 392 LINE",
"46 392 LINE",
"46 228 LINE SMOOTH",
"46 61 OFFCURVE",
"114 -14 OFFCURVE",
"223 -14 CURVE SMOOTH",
"313 -14 OFFCURVE",
"360 36 OFFCURVE",
"392 68 CURVE",
"392 0 LINE",
"666 0 LINE",
"666 164 LINE",
"622 164 LINE",
"622 556 LINE",
"338 556 LINE",
"338 392 LINE",
"392 392 LINE",
"392 228 LINE SMOOTH",
"392 183 OFFCURVE",
"372 164 OFFCURVE",
"334 164 CURVE SMOOTH",
"296 164 OFFCURVE",
"276 183 OFFCURVE",
"276 228 CURVE SMOOTH"
);
}
);
width = 676;
}
);
unicode = 0075;
},
{
glyphname = c;
lastChange = "2016-07-26 11:06:05 +0000";
layers = (
{
anchors = (
{
name = bottom;
position = "{295, 0}";
},
{
name = top;
position = "{301, 614}";
}
);
background = {
paths = (
{
closed = 1;
nodes = (
"612 83 OFFCURVE",
"495 -14 OFFCURVE",
"310 -14 CURVE SMOOTH",
"125 -14 OFFCURVE",
"8 83 OFFCURVE",
"8 278 CURVE SMOOTH",
"8 473 OFFCURVE",
"125 570 OFFCURVE",
"310 570 CURVE SMOOTH",
"495 570 OFFCURVE",
"612 473 OFFCURVE",
"612 278 CURVE SMOOTH"
);
},
{
closed = 1;
nodes = (
"348 164 OFFCURVE",
"368 183 OFFCURVE",
"368 228 CURVE SMOOTH",
"368 328 LINE SMOOTH",
"368 373 OFFCURVE",
"348 392 OFFCURVE",
"310 392 CURVE SMOOTH",
"272 392 OFFCURVE",
"252 373 OFFCURVE",
"252 328 CURVE SMOOTH",
"252 228 LINE SMOOTH",
"252 183 OFFCURVE",
"272 164 OFFCURVE",
"310 164 CURVE SMOOTH"
);
}
);
};
layerId = UUID0;
paths = (
{
closed = 1;
nodes = (
"252 328 LINE SMOOTH",
"252 373 OFFCURVE",
"273 392 OFFCURVE",
"310 392 CURVE SMOOTH",
"349 392 OFFCURVE",
"368 373 OFFCURVE",
"368 328 CURVE SMOOTH",
"368 310 LINE",
"540 310 LINE",
"540 508 LINE",
"540 508 OFFCURVE",
"448 570 OFFCURVE",
"310 570 CURVE SMOOTH",
"125 570 OFFCURVE",
"8 473 OFFCURVE",
"8 278 CURVE SMOOTH",
"8 83 OFFCURVE",
"125 -14 OFFCURVE",
"311 -14 CURVE SMOOTH",
"443 -14 OFFCURVE",
"534 25 OFFCURVE",
"534 25 CURVE",
"534 182 LINE",
"473 172 OFFCURVE",
"406 164 OFFCURVE",
"341 164 CURVE SMOOTH",
"277 164 OFFCURVE",
"252 193 OFFCURVE",
"252 242 CURVE SMOOTH"
);
}
);
width = 554;
}
);
unicode = 0063;
},
{
glyphname = e;
lastChange = "2016-07-26 11:06:05 +0000";
layers = (
{
anchors = (
{
name = top;
position = "{305, 614}";
}
);
background = {
paths = (
{
closed = 1;
nodes = (
"252 328 LINE SMOOTH",
"252 373 OFFCURVE",
"272 392 OFFCURVE",
"310 392 CURVE SMOOTH",
"348 392 OFFCURVE",
"368 373 OFFCURVE",
"368 328 CURVE SMOOTH",
"368 311 LINE",
"560 311 LINE",
"560 488 LINE",
"560 488 OFFCURVE",
"464 570 OFFCURVE",
"310 570 CURVE SMOOTH",
"125 570 OFFCURVE",
"8 473 OFFCURVE",
"8 278 CURVE SMOOTH",
"8 83 OFFCURVE",
"125 -14 OFFCURVE",
"310 -14 CURVE SMOOTH",
"464 -14 OFFCURVE",
"560 68 OFFCURVE",
"560 68 CURVE",
"560 242 LINE",
"368 242 LINE",
"368 228 LINE SMOOTH",
"368 183 OFFCURVE",
"348 164 OFFCURVE",
"310 164 CURVE SMOOTH",
"272 164 OFFCURVE",
"252 183 OFFCURVE",
"252 228 CURVE SMOOTH"
);
}
);
};
layerId = UUID0;
paths = (
{
closed = 1;
nodes = (
"310 570 LINE SMOOTH",
"125 570 OFFCURVE",
"8 473 OFFCURVE",
"8 278 CURVE SMOOTH",
"8 83 OFFCURVE",
"125 -14 OFFCURVE",
"310 -14 CURVE SMOOTH",
"469 -14 OFFCURVE",
"559 36 OFFCURVE",
"559 36 CURVE",
"559 196 LINE",
"511 180 OFFCURVE",
"435 164 OFFCURVE",
"347 164 CURVE SMOOTH",
"277 164 OFFCURVE",
"252 188 OFFCURVE",
"252 236 CURVE SMOOTH",
"252 242 LINE",
"576 242 LINE",
"576 314 LINE SMOOTH",
"576 440 OFFCURVE",
"515 570 OFFCURVE",
"310 570 CURVE SMOOTH"
);
},
{
closed = 1;
nodes = (
"310 392 LINE SMOOTH",
"348 392 OFFCURVE",
"368 373 OFFCURVE",
"368 328 CURVE SMOOTH",
"368 322 LINE",
"252 322 LINE",
"252 328 LINE SMOOTH",
"252 373 OFFCURVE",
"272 392 OFFCURVE",
"310 392 CURVE SMOOTH"
);
}
);
width = 588;
}
);
unicode = 0065;
},
{
glyphname = z;
lastChange = "2016-07-26 11:06:05 +0000";
layers = (
{
background = {
paths = (
{
closed = 1;
nodes = (
"50 0 LINE",
"257 0 LINE",
"257 500 LINE",
"50 500 LINE"
);
},
{
closed = 1;
nodes = (
"10 0 LINE",
"298 0 LINE",
"298 106 LINE",
"10 106 LINE"
);
},
{
closed = 1;
nodes = (
"10 396 LINE",
"222 396 LINE",
"222 500 LINE",
"10 500 LINE"
);
},
{
closed = 1;
nodes = (
"353 0 LINE",
"560 0 LINE",
"560 332 LINE",
"353 332 LINE"
);
},
{
closed = 1;
nodes = (
"313 0 LINE",
"601 0 LINE",
"601 106 LINE",
"313 106 LINE"
);
},
{
closed = 1;
nodes = (
"257 345 LINE",
"258 383 OFFCURVE",
"278 407 OFFCURVE",
"309 407 CURVE SMOOTH",
"346 407 OFFCURVE",
"353 368 OFFCURVE",
"353 332 CURVE",
"560 332 LINE",
"560 493 OFFCURVE",
"471 513 OFFCURVE",
"412 513 CURVE SMOOTH",
"333 513 OFFCURVE",
"287 485 OFFCURVE",
"257 466 CURVE"
);
}
);
};
layerId = UUID0;
paths = (
{
closed = 1;
nodes = (
"254 392 LINE",
"165 392 LINE",
"165 356 LINE",
"16 356 LINE",
"16 556 LINE",
"541 556 LINE",
"541 413 LINE",
"303 164 LINE",
"399 164 LINE",
"399 220 LINE",
"550 220 LINE",
"550 0 LINE",
"10 0 LINE",
"10 149 LINE"
);
}
);
width = 558;
}
);
unicode = 007A;
},
{
glyphname = a;
lastChange = "2016-07-26 15:22:28 +0000";
layers = (
{
anchors = (
{
name = top;
position = "{294, 614}";
}
);
layerId = UUID0;
paths = (
{
closed = 1;
nodes = (
"355 0 LINE",
"619 0 LINE",
"619 164 LINE",
"575 164 LINE",
"575 328 LINE SMOOTH",
"575 489 OFFCURVE",
"512 570 OFFCURVE",
"298 570 CURVE SMOOTH",
"220 570 OFFCURVE",
"131 559 OFFCURVE",
"56 541 CURVE",
"56 368 LINE",
"129 383 OFFCURVE",
"204 392 OFFCURVE",
"259 392 CURVE SMOOTH",
"337 392 OFFCURVE",
"355 372 OFFCURVE",
"355 334 CURVE",
"124 334 OFFCURVE",
"21 266 OFFCURVE",
"21 142 CURVE SMOOTH",
"21 41 OFFCURVE",
"87 -14 OFFCURVE",
"192 -14 CURVE SMOOTH",
"281 -14 OFFCURVE",
"332 36 OFFCURVE",
"355 68 CURVE"
);
},
{
closed = 1;
nodes = (
"355 228 LINE SMOOTH",
"355 181 OFFCURVE",
"333 154 OFFCURVE",
"301 154 CURVE SMOOTH",
"277 154 OFFCURVE",
"265 167 OFFCURVE",
"265 188 CURVE SMOOTH",
"265 223 OFFCURVE",
"300 234 OFFCURVE",
"355 234 CURVE"
);
}
);
width = 629;
},
{
anchors = (
{
name = top;
position = "{317, 614}";
}
);
associatedMasterId = UUID0;
layerId = "BF924C2D-80C1-4B17-BCFF-90B205A7D883";
name = "Regular Jul 26 16, 20:32";
paths = (
{
closed = 1;
nodes = (
"368 0 LINE",
"642 0 LINE",
"642 164 LINE",
"598 164 LINE",
"598 328 LINE SMOOTH",
"598 489 OFFCURVE",
"535 570 OFFCURVE",
"321 570 CURVE SMOOTH",
"162 570 OFFCURVE",
"44 535 OFFCURVE",
"44 535 CURVE",
"44 363 LINE",
"110 378 OFFCURVE",
"197 392 OFFCURVE",
"276 392 CURVE SMOOTH",
"351 392 OFFCURVE",
"368 372 OFFCURVE",
"368 334 CURVE",
"119 334 OFFCURVE",
"8 266 OFFCURVE",
"8 142 CURVE SMOOTH",
"8 41 OFFCURVE",
"79 -14 OFFCURVE",
"193 -14 CURVE SMOOTH",
"289 -14 OFFCURVE",
"343 36 OFFCURVE",
"368 68 CURVE"
);
},
{
closed = 1;
nodes = (
"368 228 LINE SMOOTH",
"368 185 OFFCURVE",
"346 164 OFFCURVE",
"307 164 CURVE SMOOTH",
"269 164 OFFCURVE",
"252 173 OFFCURVE",
"252 196 CURVE SMOOTH",
"252 228 OFFCURVE",
"297 234 OFFCURVE",
"368 234 CURVE"
);
}
);
width = 652;
visible = 1;
}
);
unicode = 0061;
},
{
glyphname = v;
lastChange = "2016-07-26 11:06:05 +0000";
layers = (
{
background = {
paths = (
{
closed = 1;
nodes = (
"344 0 LINE",
"662 0 LINE",
"662 164 LINE",
"618 164 LINE",
"618 328 LINE SMOOTH",
"618 495 OFFCURVE",
"550 570 OFFCURVE",
"441 570 CURVE SMOOTH",
"351 570 OFFCURVE",
"304 520 OFFCURVE",
"272 488 CURVE",
"272 556 LINE",
"-2 556 LINE",
"-2 392 LINE",
"42 392 LINE",
"42 164 LINE",
"-2 164 LINE",
"-2 0 LINE",
"316 0 LINE",
"316 164 LINE",
"272 164 LINE",
"272 328 LINE SMOOTH",
"272 373 OFFCURVE",
"292 392 OFFCURVE",
"330 392 CURVE SMOOTH",
"368 392 OFFCURVE",
"388 373 OFFCURVE",
"388 328 CURVE SMOOTH",
"388 164 LINE",
"344 164 LINE"
);
}
);
};
layerId = UUID0;
paths = (
{
closed = 1;
nodes = (
"4 556 LINE",
"4 392 LINE",
"46 392 LINE",
"153 0 LINE",
"491 0 LINE",
"595 392 LINE",
"638 392 LINE",
"638 556 LINE",
"344 556 LINE",
"344 392 LINE",
"389 392 LINE",
"335 164 LINE",
"325 164 LINE",
"271 392 LINE",
"316 392 LINE",
"316 556 LINE"
);
}
);
width = 642;
}
);
unicode = 0076;
},
{
glyphname = f;
lastChange = "2016-07-26 11:06:05 +0000";
layers = (
{
background = {
paths = (
{
closed = 1;
nodes = (
"18 614 LINE",
"62 614 LINE",
"62 164 LINE",
"18 164 LINE",
"18 0 LINE",
"336 0 LINE",
"336 164 LINE",
"292 164 LINE",
"292 778 LINE",
"18 778 LINE"
);
}
);
};
layerId = UUID0;
paths = (
{
closed = 1;
nodes = (
"18 392 LINE",
"62 392 LINE",
"62 164 LINE",
"18 164 LINE",
"18 0 LINE",
"370 0 LINE",
"370 164 LINE",
"292 164 LINE",
"292 392 LINE",
"370 392 LINE",
"370 556 LINE",
"292 556 LINE",
"292 598 OFFCURVE",
"309 614 OFFCURVE",
"361 614 CURVE SMOOTH",
"410 614 OFFCURVE",
"459 609 OFFCURVE",
"459 609 CURVE",
"459 766 LINE",
"459 766 OFFCURVE",
"407 792 OFFCURVE",
"297 792 CURVE SMOOTH",
"150 792 OFFCURVE",
"64 723 OFFCURVE",
"64 556 CURVE",
"18 556 LINE"
);
}
);
width = 380;
}
);
unicode = 0066;
},
{
glyphname = j;
lastChange = "2016-07-26 11:06:05 +0000";
layers = (
{
background = {
paths = (
{
closed = 1;
nodes = (
"301 556 LINE",
"27 556 LINE",
"27 392 LINE",
"71 392 LINE",
"71 164 LINE",
"27 164 LINE",
"27 0 LINE",
"345 0 LINE",
"345 164 LINE",
"301 164 LINE"
);
},
{
closed = 1;
nodes = (
"85 611 LINE",
"269 611 LINE",
"269 778 LINE",
"85 778 LINE"
);
}
);
};
layerId = UUID0;
paths = (
{
closed = 1;
nodes = (
"4 392 LINE",
"71 392 LINE",
"71 14 LINE SMOOTH",
"71 -36 OFFCURVE",
"47 -58 OFFCURVE",
"4 -58 CURVE SMOOTH",
"-38 -58 OFFCURVE",
"-90 -51 OFFCURVE",
"-90 -51 CURVE",
"-90 -214 LINE",
"-90 -214 OFFCURVE",
"-15 -236 OFFCURVE",
"68 -236 CURVE SMOOTH",
"224 -236 OFFCURVE",
"301 -149 OFFCURVE",
"301 34 CURVE SMOOTH",
"301 556 LINE",
"4 556 LINE"
);
},
{
closed = 1;
nodes = (
"85 611 LINE",
"269 611 LINE",
"269 778 LINE",
"85 778 LINE"
);
}
);
width = 327;
}
);
unicode = 006A;
},
{
glyphname = r;
lastChange = "2016-07-26 12:09:17 +0000";
layers = (
{
anchors = (
{
name = bottom;
position = "{188, 0}";
},
{
name = top;
position = "{277, 614}";
}
);
background = {
paths = (
{
closed = 1;
nodes = (
"18 392 LINE",
"62 392 LINE",
"62 164 LINE",
"18 164 LINE",
"18 0 LINE",
"383 0 LINE",
"383 164 LINE",
"292 164 LINE",
"292 309 LINE SMOOTH",
"292 362 OFFCURVE",
"310 392 OFFCURVE",
"353 392 CURVE SMOOTH",
"377 392 OFFCURVE",
"391 383 OFFCURVE",
"391 383 CURVE",
"531 556 LINE",
"531 556 OFFCURVE",
"497 570 OFFCURVE",
"441 570 CURVE SMOOTH",
"370 570 OFFCURVE",
"323 526 OFFCURVE",
"302 487 CURVE",
"292 490 LINE",
"292 556 LINE",
"18 556 LINE"
);
},
{
closed = 1;
nodes = (
"391 354 LINE",
"531 354 LINE",
"531 556 LINE",
"391 556 LINE"
);
}
);
};
layerId = UUID0;
paths = (
{
closed = 1;
nodes = (
"18 392 LINE",
"62 392 LINE",
"62 164 LINE",
"18 164 LINE",
"18 0 LINE",
"383 0 LINE",
"383 164 LINE",
"292 164 LINE",
"292 261 LINE SMOOTH",
"292 357 OFFCURVE",
"330 392 OFFCURVE",
"418 392 CURVE SMOOTH",
"454 392 OFFCURVE",
"492 387 OFFCURVE",
"511 383 CURVE",
"511 556 LINE",
"499 562 OFFCURVE",
"468 570 OFFCURVE",
"430 570 CURVE SMOOTH",
"361 570 OFFCURVE",
"320 525 OFFCURVE",
"302 487 CURVE",
"292 490 LINE",
"292 556 LINE",
"18 556 LINE"
);
}
);
width = 521;
}
);
unicode = 0072;
},
{
glyphname = t;
lastChange = "2016-07-26 11:06:05 +0000";
layers = (
{
background = {
paths = (
{
closed = 1;
nodes = (
"912 500 LINE",
"558 500 LINE",
"558 350 LINE",
"912 350 LINE"
);
},
{
closed = 1;
nodes = (
"817 597 LINE",
"627 597 LINE",
"627 573 LINE SMOOTH",
"627 528 OFFCURVE",
"606 500 OFFCURVE",
"558 500 CURVE SMOOTH",
"598 500 LINE",
"598 244 LINE",
"817 244 LINE"
);
},
{
closed = 1;
nodes = (
"598 244 LINE",
"598 87 OFFCURVE",
"648 -16 OFFCURVE",
"816 -16 CURVE SMOOTH",
"868 -16 OFFCURVE",
"921 -2 OFFCURVE",
"945 13 CURVE",
"915 163 LINE",
"904 151 OFFCURVE",
"883 148 OFFCURVE",
"873 148 CURVE SMOOTH",
"836 148 OFFCURVE",
"817 169 OFFCURVE",
"817 244 CURVE"
);
},
{
closed = 1;
nodes = (
"49 0 LINE",
"256 0 LINE",
"256 439 LINE",
"246 439 LINE",
"256 500 LINE",
"49 500 LINE"
);
},
{
closed = 1;
nodes = (
"9 0 LINE",
"297 0 LINE",
"297 158 LINE",
"9 158 LINE"
);
},
{
closed = 1;
nodes = (
"351 0 LINE",
"559 0 LINE",
"559 296 LINE",
"351 296 LINE"
);
},
{
closed = 1;
nodes = (
"312 0 LINE",
"600 0 LINE",
"600 158 LINE",
"312 158 LINE"
);
},
{
closed = 1;
nodes = (
"256 296 LINE SMOOTH",
"256 336 OFFCURVE",
"271 359 OFFCURVE",
"303 359 CURVE SMOOTH",
"335 359 OFFCURVE",
"351 336 OFFCURVE",
"351 296 CURVE",
"559 296 LINE",
"559 446 OFFCURVE",
"480 513 OFFCURVE",
"394 513 CURVE SMOOTH",
"310 513 OFFCURVE",
"262 463 OFFCURVE",
"246 439 CURVE",
"256 439 LINE"
);
},
{
closed = 1;
nodes = (
"204 500 LINE",
"9 500 LINE",
"9 350 LINE",
"204 350 LINE"
);
}
);
};
layerId = UUID0;
paths = (
{
closed = 1;
nodes = (
"292 674 LINE",
"80 674 LINE",
"80 629 LINE SMOOTH",
"80 586 OFFCURVE",
"57 556 OFFCURVE",
"4 556 CURVE",
"4 392 LINE",
"48 392 LINE",
"48 211 LINE SMOOTH",
"48 41 OFFCURVE",
"126 -14 OFFCURVE",
"261 -14 CURVE SMOOTH",
"358 -14 OFFCURVE",
"433 16 OFFCURVE",
"433 16 CURVE",
"433 173 LINE",
"433 173 OFFCURVE",
"387 164 OFFCURVE",
"350 164 CURVE SMOOTH",
"312 164 OFFCURVE",
"292 183 OFFCURVE",
"292 228 CURVE SMOOTH",
"292 392 LINE",
"427 392 LINE",
"427 556 LINE",
"292 556 LINE"
);
}
);
width = 447;
}
);
unicode = 0074;
},
{
glyphname = w;
lastChange = "2016-07-26 11:06:05 +0000";
layers = (
{
background = {
paths = (
{
closed = 1;
nodes = (
"308 389 LINE",
"308 556 LINE",
"-26 556 LINE",
"-26 389 LINE",
"17 389 LINE",
"156 0 LINE",
"408 0 LINE",
"454 118 LINE",
"498 0 LINE",
"754 0 LINE",
"875 389 LINE",
"920 389 LINE",
"920 556 LINE",
"637 556 LINE",
"637 389 LINE",
"683 389 LINE",
"637 231 LINE",
"626 231 LINE",
"587 389 LINE",
"621 389 LINE",
"621 556 LINE",
"325 556 LINE",
"325 389 LINE",
"352 389 LINE",
"362 349 LINE",
"325 231 LINE",
"314 231 LINE",
"264 389 LINE"
);
},
{
closed = 1;
nodes = (
"987 556 LINE",
"987 392 LINE",
"1029 392 LINE",
"1171 0 LINE",
"1431 0 LINE",
"1578 392 LINE",
"1621 392 LINE",
"1621 556 LINE",
"1326 556 LINE",
"1326 392 LINE",
"1372 392 LINE",
"1305 164 LINE",
"1325 164 LINE",
"1254 392 LINE",
"1299 392 LINE",
"1299 556 LINE"
);
},
{
closed = 1;
nodes = (
"1326 556 LINE",
"1326 392 LINE",
"1383 392 LINE",
"1464 106 LINE",
"1505 0 LINE",
"1765 0 LINE",
"1902 392 LINE",
"1945 392 LINE",
"1945 556 LINE",
"1650 556 LINE",
"1650 392 LINE",
"1696 392 LINE",
"1629 164 LINE",
"1649 164 LINE",
"1578 392 LINE",
"1623 392 LINE",
"1623 556 LINE"
);
}
);
};
layerId = UUID0;
paths = (
{
closed = 1;
nodes = (
"4 556 LINE",
"4 392 LINE",
"46 392 LINE",
"148 0 LINE",
"443 0 LINE",
"477 168 LINE",
"487 168 LINE",
"523 0 LINE",
"821 0 LINE",
"918 392 LINE",
"961 392 LINE",
"961 556 LINE",
"666 556 LINE",
"666 392 LINE",
"712 392 LINE",
"679 186 LINE",
"669 186 LINE",
"588 556 LINE",
"394 556 LINE",
"317 186 LINE",
"307 186 LINE",
"271 392 LINE",
"316 392 LINE",
"316 556 LINE"
);
}
);
width = 965;
}
);
unicode = 0077;
},
{
glyphname = x;
lastChange = "2016-07-26 11:06:05 +0000";
layers = (
{
background = {
paths = (
{
closed = 1;
nodes = (
"62 392 LINE",
"62 556 LINE",
"412 556 LINE",
"412 392 LINE",
"365 392 LINE",
"420 338 LINE",
"427 338 LINE",
"485 392 LINE",
"439 392 LINE",
"439 556 LINE",
"677 556 LINE",
"677 392 LINE",
"648 392 LINE",
"549 287 LINE",
"667 164 LINE",
"688 164 LINE",
"688 0 LINE",
"327 0 LINE",
"327 164 LINE",
"381 164 LINE",
"319 224 LINE",
"308 224 LINE",
"247 164 LINE",
"299 164 LINE",
"299 0 LINE",
"50 0 LINE",
"50 164 LINE",
"73 164 LINE",
"195 288 LINE",
"92 392 LINE"
);
},
{
closed = 1;
nodes = (
"851 164 LINE",
"851 0 LINE",
"1076 0 LINE",
"1076 164 LINE"
);
},
{
closed = 1;
nodes = (
"1151 164 LINE",
"1151 0 LINE",
"1489 0 LINE",
"1489 164 LINE"
);
},
{
closed = 1;
nodes = (
"1479 392 LINE",
"1479 556 LINE",
"1257 556 LINE",
"1257 392 LINE"
);
},
{
closed = 1;
nodes = (
"1195 392 LINE",
"1195 556 LINE",
"857 556 LINE",
"857 392 LINE"
);
},
{
closed = 1;
nodes = (
"1338 2 LINE",
"1479 143 LINE",
"1342 279 LINE",
"1472 409 LINE",
"1372 467 LINE",
"1237 333 LINE",
"1227 333 LINE",
"1015 545 LINE",
"874 404 LINE",
"998 279 LINE",
"853 135 LINE",
"932 55 LINE",
"1104 226 LINE",
"1114 226 LINE"
);
},
{
closed = 1;
nodes = (
"-221 12 LINE",
"-62 134 LINE",
"-498 540 LINE",
"-663 421 LINE"
);
},
{
closed = 1;
nodes = (
"-675 164 LINE",
"-675 0 LINE",
"-466 0 LINE",
"-466 164 LINE"
);
},
{
closed = 1;
nodes = (
"-73 415 LINE",
"-194 442 LINE",
"-327 273 LINE",
"-239 204 LINE"
);
},
{
closed = 1;
nodes = (
"-434 255 LINE",
"-522 325 LINE",
"-674 131 LINE",
"-567 86 LINE"
);
},
{
closed = 1;
nodes = (
"-422 164 LINE",
"-422 0 LINE",
"-59 0 LINE",
"-59 164 LINE"
);
},
{
closed = 1;
nodes = (
"-62 392 LINE",
"-62 556 LINE",
"-271 556 LINE",
"-271 392 LINE"
);
},
{
closed = 1;
nodes = (
"-302 392 LINE",
"-302 556 LINE",
"-667 556 LINE",
"-667 392 LINE"
);
},
{
closed = 1;
nodes = (
"-1403 164 LINE",
"-1403 0 LINE",
"-1204 0 LINE",
"-1204 164 LINE"
);
},
{
closed = 1;
nodes = (
"-1147 164 LINE",
"-1147 0 LINE",
"-794 0 LINE",
"-794 164 LINE"
);
},
{
closed = 1;
nodes = (
"-797 392 LINE",
"-797 556 LINE",
"-996 556 LINE",
"-996 392 LINE"
);
},
{
closed = 1;
nodes = (
"-1047 392 LINE",
"-1047 556 LINE",
"-1394 556 LINE",
"-1394 392 LINE"
);
},
{
closed = 1;
nodes = (
"-928 1 LINE",
"-799 148 LINE",
"-926 269 LINE",
"-802 406 LINE",
"-921 441 LINE",
"-1009 333 LINE",
"-1019 333 LINE",
"-1240 540 LINE",
"-1384 401 LINE",
"-1268 293 LINE",
"-1394 154 LINE",
"-1303 87 LINE",
"-1185 229 LINE",
"-1175 229 LINE"
);
},
{
closed = 1;
nodes = (
"2079 0 LINE",
"2228 164 LINE",
"1888 556 LINE",
"1736 392 LINE"
);
},
{
closed = 1;
nodes = (
"1686 164 LINE",
"1686 0 LINE",
"1894 0 LINE",
"1894 164 LINE"
);
},
{
closed = 1;
nodes = (
"2242 415 LINE",
"2130 556 LINE",
"1908 273 LINE",
"2076 204 LINE"
);
},
{
closed = 1;
nodes = (
"2027 255 LINE",
"1860 325 LINE",
"1707 131 LINE",
"1827 0 LINE"
);
},
{
closed = 1;
nodes = (
"2004 164 LINE",
"2004 0 LINE",
"2271 0 LINE",
"2271 164 LINE"
);
},
{
closed = 1;
nodes = (
"2265 392 LINE",
"2265 556 LINE",
"2066 556 LINE",
"2066 392 LINE"
);
},
{
closed = 1;
nodes = (
"1971 392 LINE",
"1971 556 LINE",
"1693 556 LINE",
"1693 392 LINE"
);
},
{
closed = 1;
nodes = (
"-1433 392 LINE",
"-1433 556 LINE",
"-1641 556 LINE",
"-1641 462 LINE",
"-1683 409 LINE",
"-1729 462 LINE",
"-1729 556 LINE",
"-2005 556 LINE",
"-2005 392 LINE",
"-1962 392 LINE",
"-1869 285 LINE",
"-1965 164 LINE",
"-2012 164 LINE",
"-2012 0 LINE",
"-1797 0 LINE",
"-1797 94 LINE",
"-1752 152 LINE",
"-1702 94 LINE",
"-1702 0 LINE",
"-1427 0 LINE",
"-1427 164 LINE",
"-1470 164 LINE",
"-1566 275 LINE",
"-1474 392 LINE"
);
},
{
closed = 1;
nodes = (
"2955 392 LINE",
"2955 556 LINE",
"2737 556 LINE",
"2695 369 LINE",
"2675 369 LINE",
"2629 556 LINE",
"2363 556 LINE",
"2363 392 LINE",
"2406 392 LINE",
"2469 285 LINE",
"2403 164 LINE",
"2356 164 LINE",
"2356 0 LINE",
"2581 0 LINE",
"2626 192 LINE",
"2646 192 LINE",
"2696 0 LINE",
"2961 0 LINE",
"2961 164 LINE",
"2918 164 LINE",
"2852 275 LINE",
"2914 392 LINE"
);
},
{
closed = 1;
nodes = (
"-2439 164 LINE",
"-2439 0 LINE",
"-2160 0 LINE",
"-2160 164 LINE"
);
},
{
closed = 1;
nodes = (
"-2365 100 LINE",
"-2167 142 LINE",
"-2357 369 LINE",
"-2525 303 LINE"
);
},
{
closed = 1;
nodes = (
"-2160 392 LINE",
"-2160 556 LINE",
"-2439 556 LINE",
"-2439 392 LINE"
);
},
{
closed = 1;
nodes = (
"-2525 253 LINE",
"-2357 187 LINE",
"-2167 414 LINE",
"-2365 456 LINE"
);
},
{
closed = 1;
nodes = (
"-2775 164 LINE",
"-2775 0 LINE",
"-2496 0 LINE",
"-2496 164 LINE"
);
},
{
closed = 1;
nodes = (
"-2410 303 LINE",
"-2578 369 LINE",
"-2768 142 LINE",
"-2570 100 LINE"
);
},
{
closed = 1;
nodes = (
"-2496 392 LINE",
"-2496 556 LINE",
"-2775 556 LINE",
"-2775 392 LINE"
);
},
{
closed = 1;
nodes = (
"-2570 456 LINE",
"-2768 414 LINE",
"-2578 187 LINE",
"-2410 253 LINE"
);
}
);
};
layerId = UUID0;
paths = (
{
closed = 1;
nodes = (
"617 392 LINE",
"617 556 LINE",
"399 556 LINE",
"357 373 LINE",
"337 373 LINE",
"291 556 LINE",
"25 556 LINE",
"25 392 LINE",
"68 392 LINE",
"121 285 LINE",
"65 164 LINE",
"18 164 LINE",
"18 0 LINE",
"243 0 LINE",
"288 188 LINE",
"308 188 LINE",
"358 0 LINE",
"623 0 LINE",
"623 164 LINE",
"580 164 LINE",
"524 275 LINE",
"576 392 LINE"
);
}
);
width = 633;
}
);
unicode = 0078;
},
{
glyphname = y;
lastChange = "2016-07-26 11:06:05 +0000";
layers = (
{
anchors = (
{
name = top;
position = "{322, 614}";
}
);
background = {
paths = (
{
closed = 1;
nodes = (
"1 556 LINE",
"1 389 LINE",
"45 389 LINE",
"167 18 LINE",
"183 -28 OFFCURVE",
"171 -52 OFFCURVE",
"141 -52 CURVE SMOOTH",
"120 -52 OFFCURVE",
"117 -38 OFFCURVE",
"117 -38 CURVE",
"117 -18 LINE",
"-11 -18 LINE",
"-11 -183 LINE",
"31 -216 OFFCURVE",
"102 -234 OFFCURVE",
"181 -234 CURVE SMOOTH",
"377 -234 OFFCURVE",
"443 -146 OFFCURVE",
"485 18 CURVE",
"570 389 LINE",
"615 389 LINE",
"615 556 LINE",
"330 556 LINE",
"330 389 LINE",
"376 389 LINE",
"336 118 LINE",
"325 118 LINE",
"269 389 LINE",
"313 389 LINE",
"313 556 LINE"
);
},
{
closed = 1;
nodes = (
"-598 0 LINE SMOOTH",
"-581 -58 OFFCURVE",
"-591 -74 OFFCURVE",
"-623 -74 CURVE SMOOTH",
"-652 -74 OFFCURVE",
"-657 -60 OFFCURVE",
"-657 -40 CURVE",
"-795 -40 LINE",
"-795 -205 LINE",
"-795 -205 OFFCURVE",
"-696 -256 OFFCURVE",
"-573 -256 CURVE SMOOTH",
"-377 -256 OFFCURVE",
"-313 -163 OFFCURVE",
"-268 0 CURVE SMOOTH",
"-161 392 LINE",
"-118 392 LINE",
"-118 556 LINE",
"-413 556 LINE",
"-413 392 LINE",
"-367 392 LINE",
"-419 134 LINE",
"-429 134 LINE",
"-485 392 LINE",
"-440 392 LINE",
"-440 556 LINE",
"-752 556 LINE",
"-752 392 LINE",
"-710 392 LINE"
);
},
{
closed = 1;
nodes = (
"993 556 LINE",
"719 556 LINE",
"719 392 LINE",
"763 392 LINE",
"763 228 LINE SMOOTH",
"763 61 OFFCURVE",
"831 -14 OFFCURVE",
"940 -14 CURVE SMOOTH",
"1030 -14 OFFCURVE",
"1077 36 OFFCURVE",
"1109 68 CURVE",
"1109 6 LINE SMOOTH",
"1109 -62 OFFCURVE",
"1083 -85 OFFCURVE",
"1011 -85 CURVE SMOOTH",
"899 -85 OFFCURVE",
"784 -66 OFFCURVE",
"784 -66 CURVE",
"784 -222 LINE",
"784 -222 OFFCURVE",
"888 -256 OFFCURVE",
"1038 -256 CURVE SMOOTH",
"1235 -256 OFFCURVE",
"1339 -161 OFFCURVE",
"1339 36 CURVE SMOOTH",
"1339 556 LINE",
"1055 556 LINE",
"1055 392 LINE",
"1109 392 LINE",
"1109 228 LINE SMOOTH",
"1109 183 OFFCURVE",
"1089 164 OFFCURVE",
"1051 164 CURVE SMOOTH",
"1013 164 OFFCURVE",
"993 183 OFFCURVE",
"993 228 CURVE SMOOTH"
);
},
{
closed = 1;
nodes = (
"-1273 13 LINE SMOOTH",
"-1255 -43 OFFCURVE",
"-1283 -78 OFFCURVE",
"-1328 -78 CURVE SMOOTH",
"-1375 -78 OFFCURVE",
"-1429 -71 OFFCURVE",
"-1429 -71 CURVE",
"-1429 -233 LINE",
"-1429 -233 OFFCURVE",
"-1343 -256 OFFCURVE",
"-1233 -256 CURVE SMOOTH",
"-1081 -256 OFFCURVE",
"-1002 -163 OFFCURVE",
"-957 0 CURVE",
"-845 392 LINE",
"-802 392 LINE",
"-802 556 LINE",
"-1097 556 LINE",
"-1097 392 LINE",
"-1051 392 LINE",
"-1103 134 LINE",
"-1113 134 LINE",
"-1169 392 LINE",
"-1124 392 LINE",
"-1124 556 LINE",
"-1436 556 LINE",
"-1436 392 LINE",
"-1394 392 LINE"
);
}
);
};
layerId = UUID0;
paths = (
{
closed = 1;
nodes = (
"276 556 LINE",
"2 556 LINE",
"2 392 LINE",
"46 392 LINE",
"46 228 LINE SMOOTH",
"46 61 OFFCURVE",
"114 -14 OFFCURVE",
"223 -14 CURVE SMOOTH",
"313 -14 OFFCURVE",
"360 36 OFFCURVE",
"392 68 CURVE",
"392 26 LINE SMOOTH",
"392 -42 OFFCURVE",
"356 -58 OFFCURVE",
"284 -58 CURVE SMOOTH",
"202 -58 OFFCURVE",
"129 -51 OFFCURVE",
"67 -39 CURVE",
"67 -203 LINE",
"67 -203 OFFCURVE",
"171 -236 OFFCURVE",
"321 -236 CURVE SMOOTH",
"518 -236 OFFCURVE",
"622 -141 OFFCURVE",
"622 56 CURVE SMOOTH",
"622 556 LINE",
"338 556 LINE",
"338 392 LINE",
"392 392 LINE",
"392 228 LINE SMOOTH",
"392 183 OFFCURVE",
"372 164 OFFCURVE",
"334 164 CURVE SMOOTH",
"296 164 OFFCURVE",
"276 183 OFFCURVE",
"276 228 CURVE SMOOTH"
);
}
);
width = 648;
}
);
unicode = 0079;
},
{
glyphname = acute;
lastChange = "2016-07-26 11:06:05 +0000";
layers = (
{
anchors = (
{
name = _top;
position = "{100, 614}";
}
);
layerId = UUID0;
paths = (
{
closed = 1;
nodes = (
"312 751 LINE",
"312 778 LINE",
"98 778 LINE",
"-11 626 LINE",
"-11 611 LINE",
"149 611 LINE"
);
}
);
width = 279;
}
);
unicode = 00B4;
},
{
glyphname = grave;
lastChange = "2016-07-26 11:06:05 +0000";
layers = (
{
anchors = (
{
name = _top;
position = "{175, 614}";
}
);
layerId = UUID0;
paths = (
{
closed = 1;
nodes = (
"121 611 LINE",
"281 611 LINE",
"281 626 LINE",
"172 778 LINE",
"-42 778 LINE",
"-42 751 LINE"
);
}
);
width = 267;
}
);
unicode = 0060;
},
{
glyphname = dieresis;
lastChange = "2016-07-26 11:06:05 +0000";
layers = (
{
anchors = (
{
name = _top;
position = "{216, 614}";
}
);
layerId = UUID0;
paths = (
{
closed = 1;
nodes = (
"15 611 LINE",
"182 611 LINE",
"182 778 LINE",
"15 778 LINE"
);
},
{
closed = 1;
nodes = (
"271 611 LINE",
"437 611 LINE",
"437 778 LINE",
"271 778 LINE"
);
}
);
width = 452;
}
);
unicode = 00A8;
},
{
glyphname = circumflex;
lastChange = "2016-07-26 11:06:05 +0000";
layers = (
{
anchors = (
{
name = _top;
position = "{207, 614}";
}
);
layerId = UUID0;
paths = (
{
closed = 1;
nodes = (
"282 611 LINE",
"431 611 LINE",
"431 626 LINE",
"314 778 LINE",
"117 778 LINE",
"0 626 LINE",
"0 611 LINE",
"149 611 LINE",
"211 676 LINE",
"220 676 LINE"
);
}
);
width = 431;
}
);
unicode = 02C6;
},
{
glyphname = tilde;
lastChange = "2016-07-26 11:06:05 +0000";
layers = (
{
anchors = (
{
name = _top;
position = "{243, 614}";
}
);
layerId = UUID0;
paths = (
{
closed = 1;
nodes = (
"94 622 LINE",
"94 637 OFFCURVE",
"107 659 OFFCURVE",
"138 659 CURVE SMOOTH",
"208 659 OFFCURVE",
"285 611 OFFCURVE",
"353 611 CURVE SMOOTH",
"450 611 OFFCURVE",
"466 679 OFFCURVE",
"466 782 CURVE",
"410 782 LINE",
"410 767 OFFCURVE",
"401 747 OFFCURVE",
"371 747 CURVE SMOOTH",
"303 747 OFFCURVE",
"236 793 OFFCURVE",
"161 793 CURVE SMOOTH",
"64 793 OFFCURVE",
"41 727 OFFCURVE",
"41 622 CURVE"
);
}
);
width = 497;
}
);
unicode = 02DC;
},
{
glyphname = one;
lastChange = "2016-07-26 11:06:05 +0000";
layers = (
{
layerId = UUID0;
paths = (
{
closed = 1;
nodes = (
"14 614 LINE",
"140 614 LINE",
"140 164 LINE",
"44 164 LINE",
"44 0 LINE",
"513 0 LINE",
"513 164 LINE",
"429 164 LINE",
"429 778 LINE",
"236 778 LINE",
"14 727 LINE"
);
}
);
width = 529;
}
);
unicode = 0031;
},
{
glyphname = two;
lastChange = "2016-07-26 11:06:05 +0000";
layers = (
{
background = {
paths = (
{
closed = 1;
nodes = (
"616 0 LINE",
"1188 0 LINE",
"1188 208 LINE",
"1022 208 LINE",
"1022 158 LINE",
"911 158 LINE",
"1080 255 OFFCURVE",
"1176 345 OFFCURVE",
"1176 481 CURVE SMOOTH",
"1176 620 OFFCURVE",
"1080 714 OFFCURVE",
"913 714 CURVE SMOOTH",
"716 714 OFFCURVE",
"616 632 OFFCURVE",
"628 459 CURVE",
"826 459 LINE",
"816 503 OFFCURVE",
"826 550 OFFCURVE",
"867 550 CURVE SMOOTH",
"897 550 OFFCURVE",
"912 531 OFFCURVE",
"912 488 CURVE SMOOTH",
"912 369 OFFCURVE",
"616 158 OFFCURVE",
"616 158 CURVE"
);
},
{
closed = 1;
nodes = (
"12 0 LINE",
"637 0 LINE",
"637 231 LINE",
"452 231 LINE",
"452 176 LINE",
"340 176 LINE",
"521 283 OFFCURVE",
"624 383 OFFCURVE",
"624 534 CURVE SMOOTH",
"624 695 OFFCURVE",
"521 799 OFFCURVE",
"342 799 CURVE SMOOTH",
"116 799 OFFCURVE",
"26 693 OFFCURVE",
"26 693 CURVE",
"26 488 LINE",
"246 488 LINE",
"246 540 LINE SMOOTH",
"246 590 OFFCURVE",
"261 611 OFFCURVE",
"294 611 CURVE SMOOTH",
"325 611 OFFCURVE",
"341 590 OFFCURVE",
"341 542 CURVE SMOOTH",
"341 389 OFFCURVE",
"12 176 OFFCURVE",
"12 176 CURVE"
);
}
);
};
layerId = UUID0;
paths = (
{
closed = 1;
nodes = (
"12 0 LINE",
"647 0 LINE",
"647 221 LINE",
"452 221 LINE",
"452 164 LINE",
"330 164 LINE",
"457 267 OFFCURVE",
"628 403 OFFCURVE",
"628 565 CURVE SMOOTH",
"628 727 OFFCURVE",
"525 799 OFFCURVE",
"346 799 CURVE SMOOTH",
"149 799 OFFCURVE",
"30 727 OFFCURVE",
"30 727 CURVE",
"30 490 LINE",
"230 490 LINE",
"230 540 LINE SMOOTH",
"230 592 OFFCURVE",
"253 614 OFFCURVE",
"298 614 CURVE SMOOTH",
"343 614 OFFCURVE",
"366 592 OFFCURVE",
"366 540 CURVE SMOOTH",
"366 477 OFFCURVE",
"220 328 OFFCURVE",
"12 153 CURVE"
);
}
);
width = 649;
}
);
unicode = 0032;
},
{
glyphname = four;
lastChange = "2016-07-26 11:06:05 +0000";
layers = (
{
background = {
paths = (
{
closed = 1;
nodes = (
"38 231 LINE",
"343 231 LINE",
"343 176 LINE",
"216 176 LINE",
"216 0 LINE",
"663 0 LINE",
"663 176 LINE",
"602 176 LINE",
"602 231 LINE",
"682 231 LINE",
"682 383 LINE",
"602 383 LINE",
"602 778 LINE",
"167 778 LINE",
"163 630 OFFCURVE",
"38 423 OFFCURVE",
"38 423 CURVE"
);
},
{
closed = 1;
nodes = (
"343 383 LINE",
"271 383 LINE",
"299 455 OFFCURVE",
"327 548 OFFCURVE",
"343 650 CURVE"
);
}
);
};
layerId = UUID0;
paths = (
{
closed = 1;
nodes = (
"18 402 LINE",
"18 231 LINE",
"343 231 LINE",
"343 176 LINE",
"216 176 LINE",
"216 0 LINE",
"663 0 LINE",
"663 176 LINE",
"602 176 LINE",
"602 231 LINE",
"682 231 LINE",
"682 383 LINE",
"602 383 LINE",
"602 520 LINE",
"343 520 LINE",
"343 383 LINE",
"253 383 LINE",
"376 778 LINE",
"376 778 OFFCURVE",
"139 778 OFFCURVE",
"139 778 CURVE"
);
}
);
width = 694;
}
);
unicode = 0034;
},
{
glyphname = seven;
lastChange = "2016-07-26 11:06:05 +0000";
layers = (
{
layerId = UUID0;
paths = (
{
closed = 1;
nodes = (
"10 492 LINE",
"220 492 LINE",
"220 584 LINE",
"369 584 LINE",
"369 584 OFFCURVE",
"122 261 OFFCURVE",
"122 0 CURVE",
"405 0 LINE",
"405 276 OFFCURVE",
"638 626 OFFCURVE",
"638 626 CURVE",
"638 778 LINE",
"10 778 LINE"
);
}
);
width = 630;
}
);
unicode = 0037;
},
{
glyphname = five;
lastChange = "2016-07-26 11:06:05 +0000";
layers = (
{
layerId = UUID0;
paths = (
{
closed = 1;
nodes = (
"28 372 LINE",
"73 303 LINE",
"263 303 LINE",
"263 333 OFFCURVE",
"275 363 OFFCURVE",
"315 363 CURVE SMOOTH",
"356 363 OFFCURVE",
"369 332 OFFCURVE",
"369 266 CURVE SMOOTH",
"369 204 OFFCURVE",
"356 176 OFFCURVE",
"317 176 CURVE SMOOTH",
"275 176 OFFCURVE",
"262 203 OFFCURVE",
"263 249 CURVE",
"31 249 LINE",
"31 48 LINE",
"31 48 OFFCURVE",
"139 -24 OFFCURVE",
"323 -24 CURVE SMOOTH",
"521 -24 OFFCURVE",
"637 84 OFFCURVE",
"637 267 CURVE SMOOTH",
"637 414 OFFCURVE",
"548 514 OFFCURVE",
"392 514 CURVE SMOOTH",
"349 514 OFFCURVE",
"291 500 OFFCURVE",
"256 480 CURVE",
"265 584 LINE",
"597 584 LINE",
"597 778 LINE",
"65 778 LINE"
);
}
);
width = 651;
}
);
unicode = 0035;
},
{
glyphname = less;
lastChange = "2016-07-26 11:06:05 +0000";
layers = (
{
layerId = UUID0;
paths = (
{
closed = 1;
nodes = (
"434 69 LINE",
"36 230 LINE",
"36 414 LINE",
"434 576 LINE",
"455 576 LINE",
"455 420 LINE",
"184 328 LINE",
"184 317 LINE",
"455 224 LINE",
"455 69 LINE"
);
}
);
width = 499;
}
);
unicode = 003C;
},
{
glyphname = zero;
lastChange = "2016-07-26 11:06:05 +0000";
layers = (
{
background = {
paths = (
{
closed = 1;
nodes = (
"16 82 OFFCURVE",
"155 -18 OFFCURVE",
"372 -18 CURVE SMOOTH",
"582 -18 OFFCURVE",
"721 84 OFFCURVE",
"721 388 CURVE SMOOTH",
"721 691 OFFCURVE",
"582 793 OFFCURVE",
"372 793 CURVE SMOOTH",
"155 793 OFFCURVE",
"16 693 OFFCURVE",
"16 388 CURVE SMOOTH"
);
},
{
closed = 1;
nodes = (
"308 570 OFFCURVE",
"317 611 OFFCURVE",
"366 611 CURVE SMOOTH",
"415 611 OFFCURVE",
"425 570 OFFCURVE",
"425 393 CURVE SMOOTH",
"425 217 OFFCURVE",
"415 176 OFFCURVE",
"366 176 CURVE SMOOTH",
"317 176 OFFCURVE",
"308 203 OFFCURVE",
"308 393 CURVE SMOOTH"
);
}
);
};
layerId = UUID0;
paths = (
{
closed = 1;
nodes = (
"366 164 LINE SMOOTH",
"411 164 OFFCURVE",
"434 186 OFFCURVE",
"434 238 CURVE SMOOTH",
"434 540 LINE SMOOTH",
"434 592 OFFCURVE",
"411 614 OFFCURVE",
"366 614 CURVE SMOOTH",
"321 614 OFFCURVE",
"298 592 OFFCURVE",
"298 540 CURVE SMOOTH",
"298 238 LINE SMOOTH",
"298 186 OFFCURVE",
"321 164 OFFCURVE",
"366 164 CURVE SMOOTH"
);
},
{
closed = 1;
nodes = (
"718 389 LINE SMOOTH",
"718 97 OFFCURVE",
"581 -14 OFFCURVE",
"366 -14 CURVE SMOOTH",
"151 -14 OFFCURVE",
"14 97 OFFCURVE",
"14 389 CURVE SMOOTH",
"14 681 OFFCURVE",
"151 792 OFFCURVE",
"366 792 CURVE SMOOTH",
"581 792 OFFCURVE",
"718 681 OFFCURVE",
"718 389 CURVE SMOOTH"
);
}
);
width = 732;
}
);
unicode = 0030;
},
{
glyphname = three;
lastChange = "2016-07-26 11:06:05 +0000";
layers = (
{
background = {
paths = (
{
closed = 1;
nodes = (
"238 342 LINE",
"327 342 OFFCURVE",
"341 319 OFFCURVE",
"341 252 CURVE SMOOTH",
"341 200 OFFCURVE",
"327 176 OFFCURVE",
"290 176 CURVE SMOOTH",
"241 176 OFFCURVE",
"239 207 OFFCURVE",
"239 263 CURVE",
"24 263 LINE",
"24 68 LINE",
"24 68 OFFCURVE",
"104 -24 OFFCURVE",
"300 -24 CURVE SMOOTH",
"497 -24 OFFCURVE",
"611 72 OFFCURVE",
"611 223 CURVE SMOOTH",
"611 329 OFFCURVE",
"561 379 OFFCURVE",
"504 397 CURVE",
"562 433 OFFCURVE",
"596 477 OFFCURVE",
"596 557 CURVE SMOOTH",
"596 704 OFFCURVE",
"489 799 OFFCURVE",
"310 799 CURVE SMOOTH",
"99 799 OFFCURVE",
"24 693 OFFCURVE",
"24 693 CURVE",
"24 532 LINE",
"243 532 LINE",
"243 586 OFFCURVE",
"248 611 OFFCURVE",
"292 611 CURVE SMOOTH",
"327 611 OFFCURVE",
"339 583 OFFCURVE",
"339 523 CURVE SMOOTH",
"339 484 OFFCURVE",
"324 463 OFFCURVE",
"238 463 CURVE"
);
}
);
};
layerId = UUID0;
paths = (
{
closed = 1;
nodes = (
"218 322 LINE",
"290 322 LINE SMOOTH",
"339 322 OFFCURVE",
"360 297 OFFCURVE",
"360 248 CURVE SMOOTH",
"360 186 OFFCURVE",
"337 164 OFFCURVE",
"292 164 CURVE SMOOTH",
"247 164 OFFCURVE",
"224 186 OFFCURVE",
"224 238 CURVE SMOOTH",
"224 266 LINE",
"24 266 LINE",
"24 55 LINE",
"24 55 OFFCURVE",
"125 -14 OFFCURVE",
"300 -14 CURVE SMOOTH",
"510 -14 OFFCURVE",
"611 79 OFFCURVE",
"611 221 CURVE SMOOTH",
"611 320 OFFCURVE",
"546 366 OFFCURVE",
"504 392 CURVE",
"504 402 LINE",
"542 432 OFFCURVE",
"596 479 OFFCURVE",
"596 570 CURVE SMOOTH",
"596 710 OFFCURVE",
"495 792 OFFCURVE",
"310 792 CURVE SMOOTH",
"123 792 OFFCURVE",
"24 727 OFFCURVE",
"24 727 CURVE",
"24 523 LINE",
"224 523 LINE",
"224 540 LINE SMOOTH",
"224 592 OFFCURVE",
"247 614 OFFCURVE",
"292 614 CURVE SMOOTH",
"337 614 OFFCURVE",
"360 592 OFFCURVE",
"360 540 CURVE SMOOTH",
"360 499 OFFCURVE",
"339 473 OFFCURVE",
"289 473 CURVE SMOOTH",
"218 473 LINE"
);
}
);
width = 623;
}
);
unicode = 0033;
},
{
glyphname = eight;
lastChange = "2016-07-26 11:06:05 +0000";
layers = (
{
background = {
paths = (
{
closed = 1;
nodes = (
"1039 314 OFFCURVE",
"1087 376 OFFCURVE",
"1174 404 CURVE",
"1088 429 OFFCURVE",
"1061 493 OFFCURVE",
"1061 559 CURVE SMOOTH",
"1061 667 OFFCURVE",
"1139 793 OFFCURVE",
"1384 793 CURVE",
"1627 792 OFFCURVE",
"1705 667 OFFCURVE",
"1705 559 CURVE SMOOTH",
"1705 493 OFFCURVE",
"1671 429 OFFCURVE",
"1593 404 CURVE",
"1675 376 OFFCURVE",
"1727 314 OFFCURVE",
"1727 227 CURVE SMOOTH",
"1727 87 OFFCURVE",
"1611 -18 OFFCURVE",
"1384 -18 CURVE",
"1157 -20 OFFCURVE",
"1039 87 OFFCURVE",
"1039 227 CURVE SMOOTH"
);
},
{
closed = 1;
nodes = (
"1457 288 OFFCURVE",
"1433 314 OFFCURVE",
"1384 314 CURVE SMOOTH",
"1335 314 OFFCURVE",
"1309 288 OFFCURVE",
"1309 244 CURVE SMOOTH",
"1309 201 OFFCURVE",
"1335 176 OFFCURVE",
"1384 176 CURVE SMOOTH",
"1433 176 OFFCURVE",
"1457 207 OFFCURVE",
"1457 244 CURVE SMOOTH"
);
},
{
closed = 1;
nodes = (
"1321 507 OFFCURVE",
"1337 481 OFFCURVE",
"1384 481 CURVE SMOOTH",
"1430 481 OFFCURVE",
"1445 507 OFFCURVE",
"1445 544 CURVE SMOOTH",
"1445 579 OFFCURVE",
"1428 611 OFFCURVE",
"1384 611 CURVE SMOOTH",
"1338 611 OFFCURVE",
"1321 579 OFFCURVE",
"1321 544 CURVE SMOOTH"
);
},
{
closed = 1;
nodes = (
"8 356 OFFCURVE",
"140 404 OFFCURVE",
"140 404 CURVE",
"140 404 OFFCURVE",
"27 452 OFFCURVE",
"27 570 CURVE SMOOTH",
"27 693 OFFCURVE",
"134 792 OFFCURVE",
"350 792 CURVE SMOOTH",
"566 792 OFFCURVE",
"671 693 OFFCURVE",
"671 570 CURVE SMOOTH",
"671 452 OFFCURVE",
"559 404 OFFCURVE",
"559 404 CURVE",
"559 404 OFFCURVE",
"692 356 OFFCURVE",
"692 216 CURVE SMOOTH",
"692 78 OFFCURVE",
"571 -14 OFFCURVE",
"350 -14 CURVE SMOOTH",
"129 -14 OFFCURVE",
"8 78 OFFCURVE",
"8 215 CURVE SMOOTH"
);
},
{
closed = 1;
nodes = (
"428 300 OFFCURVE",
"402 326 OFFCURVE",
"350 326 CURVE SMOOTH",
"298 326 OFFCURVE",
"272 300 OFFCURVE",
"272 238 CURVE SMOOTH",
"272 186 OFFCURVE",
"298 164 OFFCURVE",
"350 164 CURVE SMOOTH",
"402 164 OFFCURVE",
"428 186 OFFCURVE",
"428 238 CURVE SMOOTH"
);
},
{
closed = 1;
nodes = (
"282 504 OFFCURVE",
"305 478 OFFCURVE",
"350 478 CURVE SMOOTH",
"395 478 OFFCURVE",
"418 504 OFFCURVE",
"418 540 CURVE SMOOTH",
"418 592 OFFCURVE",
"395 614 OFFCURVE",
"350 614 CURVE SMOOTH",
"305 614 OFFCURVE",
"282 592 OFFCURVE",
"282 540 CURVE SMOOTH"
);
}
);
};
layerId = UUID0;
paths = (
{
closed = 1;
nodes = (
"10 212 LINE SMOOTH",
"10 365 OFFCURVE",
"150 400 OFFCURVE",
"150 400 CURVE",
"150 410 LINE",
"150 410 OFFCURVE",
"32 443 OFFCURVE",
"32 570 CURVE SMOOTH",
"32 693 OFFCURVE",
"139 792 OFFCURVE",
"350 792 CURVE SMOOTH",
"561 792 OFFCURVE",
"666 693 OFFCURVE",
"666 570 CURVE SMOOTH",
"666 443 OFFCURVE",
"549 410 OFFCURVE",
"549 410 CURVE",
"549 400 LINE",
"549 400 OFFCURVE",
"690 365 OFFCURVE",
"690 218 CURVE SMOOTH",
"690 78 OFFCURVE",
"569 -14 OFFCURVE",
"350 -14 CURVE SMOOTH",
"131 -14 OFFCURVE",
"10 78 OFFCURVE",
"10 212 CURVE SMOOTH"
);
},
{
closed = 1;
nodes = (
"428 238 LINE SMOOTH",
"428 300 OFFCURVE",
"402 326 OFFCURVE",
"350 326 CURVE SMOOTH",
"298 326 OFFCURVE",
"272 300 OFFCURVE",
"272 238 CURVE SMOOTH",
"272 186 OFFCURVE",
"298 164 OFFCURVE",
"350 164 CURVE SMOOTH",
"402 164 OFFCURVE",
"428 186 OFFCURVE",
"428 238 CURVE SMOOTH"
);
},
{
closed = 1;
nodes = (
"282 540 LINE SMOOTH",
"282 504 OFFCURVE",
"305 478 OFFCURVE",
"350 478 CURVE SMOOTH",
"395 478 OFFCURVE",
"418 504 OFFCURVE",
"418 540 CURVE SMOOTH",
"418 592 OFFCURVE",
"395 614 OFFCURVE",
"350 614 CURVE SMOOTH",
"305 614 OFFCURVE",
"282 592 OFFCURVE",
"282 540 CURVE SMOOTH"
);
}
);
width = 700;
}
);
unicode = 0038;
},
{
glyphname = six;
lastChange = "2016-07-26 11:06:05 +0000";
layers = (
{
background = {
paths = (
{
closed = 1;
nodes = (
"1393 469 LINE",
"1393 630 OFFCURVE",
"1297 714 OFFCURVE",
"1113 714 CURVE SMOOTH",
"924 714 OFFCURVE",
"811 585 OFFCURVE",
"811 343 CURVE SMOOTH",
"811 75 OFFCURVE",
"942 -16 OFFCURVE",
"1121 -16 CURVE SMOOTH",
"1290 -16 OFFCURVE",
"1409 61 OFFCURVE",
"1409 235 CURVE SMOOTH",
"1409 365 OFFCURVE",
"1306 424 OFFCURVE",
"1162 424 CURVE SMOOTH",
"1052 424 OFFCURVE",
"982 361 OFFCURVE",
"982 361 CURVE",
"1006 250 LINE",
"1006 250 OFFCURVE",
"1068 285 OFFCURVE",
"1123 285 CURVE SMOOTH",
"1160 285 OFFCURVE",
"1176 249 OFFCURVE",
"1176 226 CURVE SMOOTH",
"1176 179 OFFCURVE",
"1156 158 OFFCURVE",
"1126 158 CURVE SMOOTH",
"1093 158 OFFCURVE",
"1076 183 OFFCURVE",
"1075 231 CURVE SMOOTH",
"1073 405 LINE SMOOTH",
"1072 521 OFFCURVE",
"1096 550 OFFCURVE",
"1126 550 CURVE SMOOTH",
"1156 550 OFFCURVE",
"1175 518 OFFCURVE",
"1175 469 CURVE"
);
},
{
closed = 1;
nodes = (
"645 521 LINE",
"645 693 LINE",
"645 693 OFFCURVE",
"548 799 OFFCURVE",
"367 799 CURVE SMOOTH",
"150 799 OFFCURVE",
"20 656 OFFCURVE",
"20 381 CURVE SMOOTH",
"20 83 OFFCURVE",
"166 -18 OFFCURVE",
"365 -18 CURVE SMOOTH",
"552 -18 OFFCURVE",
"685 68 OFFCURVE",
"685 261 CURVE SMOOTH",
"685 406 OFFCURVE",
"570 471 OFFCURVE",
"410 471 CURVE SMOOTH",
"371 471 OFFCURVE",
"339 465 OFFCURVE",
"311 455 CURVE",
"311 579 OFFCURVE",
"337 611 OFFCURVE",
"370 611 CURVE SMOOTH",
"404 611 OFFCURVE",
"425 576 OFFCURVE",
"425 521 CURVE"
);
},
{
closed = 1;
nodes = (
"408 317 OFFCURVE",
"426 277 OFFCURVE",
"426 251 CURVE SMOOTH",
"426 199 OFFCURVE",
"404 176 OFFCURVE",
"370 176 CURVE SMOOTH",
"334 176 OFFCURVE",
"315 203 OFFCURVE",
"314 257 CURVE SMOOTH",
"313 309 LINE",
"330 314 OFFCURVE",
"349 317 OFFCURVE",
"367 317 CURVE SMOOTH"
);
}
);
};
layerId = UUID0;
paths = (
{
closed = 1;
nodes = (
"636 742 LINE",
"636 742 OFFCURVE",
"536 792 OFFCURVE",
"395 792 CURVE SMOOTH",
"172 792 OFFCURVE",
"18 663 OFFCURVE",
"18 334 CURVE SMOOTH",
"18 97 OFFCURVE",
"155 -14 OFFCURVE",
"370 -14 CURVE SMOOTH",
"572 -14 OFFCURVE",
"685 68 OFFCURVE",
"685 253 CURVE SMOOTH",
"685 429 OFFCURVE",
"570 476 OFFCURVE",
"449 476 CURVE SMOOTH",
"372 476 OFFCURVE",
"302 448 OFFCURVE",
"302 448 CURVE",
"302 477 LINE SMOOTH",
"302 556 OFFCURVE",
"343 614 OFFCURVE",
"439 614 CURVE SMOOTH",
"537 614 OFFCURVE",
"636 581 OFFCURVE",
"636 581 CURVE"
);
},
{
closed = 1;
nodes = (
"367 319 LINE SMOOTH",
"413 319 OFFCURVE",
"438 291 OFFCURVE",
"438 238 CURVE SMOOTH",
"438 186 OFFCURVE",
"415 164 OFFCURVE",
"370 164 CURVE SMOOTH",
"325 164 OFFCURVE",
"302 186 OFFCURVE",
"302 238 CURVE SMOOTH",
"302 306 LINE",
"302 306 OFFCURVE",
"336 319 OFFCURVE",
"367 319 CURVE SMOOTH"
);
}
);
width = 693;
}
);
unicode = 0036;
},
{
glyphname = nine;
lastChange = "2016-07-26 11:06:05 +0000";
layers = (
{
background = {
paths = (
{
closed = 1;
nodes = (
"1612 0 LINE",
"1612 144 OFFCURVE",
"1688 273 OFFCURVE",
"1746 359 CURVE",
"1684 495 LINE",
"1612 551 LINE",
"1612 551 OFFCURVE",
"1585 523 OFFCURVE",
"1545 468 CURVE",
"1548 417 LINE",
"1506 419 LINE",
"1431 324 OFFCURVE",
"1352 181 OFFCURVE",
"1352 0 CURVE"
);
},
{
closed = 1;
nodes = (
"1612 0 LINE",
"1612 144 OFFCURVE",
"1688 273 OFFCURVE",
"1746 359 CURVE",
"1684 495 LINE",
"1612 551 LINE",
"1612 551 OFFCURVE",
"1585 523 OFFCURVE",
"1545 468 CURVE",
"1548 417 LINE",
"1506 419 LINE",
"1431 324 OFFCURVE",
"1352 181 OFFCURVE",
"1352 0 CURVE"
);
},
{
closed = 1;
nodes = (
"1746 359 LINE",
"1860 525 OFFCURVE",
"1727 714 OFFCURVE",
"1502 714 CURVE SMOOTH",
"1314 714 OFFCURVE",
"1201 618 OFFCURVE",
"1201 489 CURVE SMOOTH",
"1201 332 OFFCURVE",
"1298 280 OFFCURVE",
"1445 280 CURVE SMOOTH",
"1555 280 OFFCURVE",
"1625 343 OFFCURVE",
"1625 343 CURVE",
"1601 454 LINE",
"1601 454 OFFCURVE",
"1539 419 OFFCURVE",
"1484 419 CURVE SMOOTH",
"1447 419 OFFCURVE",
"1431 438 OFFCURVE",
"1431 463 CURVE SMOOTH",
"1431 498 OFFCURVE",
"1451 513 OFFCURVE",
"1481 513 CURVE SMOOTH",
"1517 513 OFFCURVE",
"1544 480 OFFCURVE",
"1518 438 CURVE SMOOTH",
"1486 386 LINE"
);
},
{
closed = 1;
nodes = (
"1831 235 LINE",
"1831 81 OFFCURVE",
"1924 0 OFFCURVE",
"2103 0 CURVE SMOOTH",
"2304 0 OFFCURVE",
"2405 137 OFFCURVE",
"2405 344 CURVE SMOOTH",
"2405 603 OFFCURVE",
"2301 714 OFFCURVE",
"2110 714 CURVE SMOOTH",
"1928 714 OFFCURVE",
"1819 618 OFFCURVE",
"1819 489 CURVE SMOOTH",
"1819 332 OFFCURVE",
"1916 280 OFFCURVE",
"2063 280 CURVE SMOOTH",
"2173 280 OFFCURVE",
"2243 343 OFFCURVE",
"2243 343 CURVE",
"2219 454 LINE",
"2219 454 OFFCURVE",
"2157 419 OFFCURVE",
"2102 419 CURVE SMOOTH",
"2065 419 OFFCURVE",
"2049 446 OFFCURVE",
"2049 481 CURVE SMOOTH",
"2049 529 OFFCURVE",
"2069 550 OFFCURVE",
"2099 550 CURVE SMOOTH",
"2135 550 OFFCURVE",
"2152 528 OFFCURVE",
"2153 476 CURVE",
"2153 299 LINE",
"2154 185 OFFCURVE",
"2146 158 OFFCURVE",
"2105 158 CURVE SMOOTH",
"2057 158 OFFCURVE",
"2052 186 OFFCURVE",
"2052 235 CURVE"
);
},
{
closed = 1;
nodes = (
"48 269 LINE",
"48 68 LINE",
"48 68 OFFCURVE",
"139 -24 OFFCURVE",
"317 -24 CURVE SMOOTH",
"548 -24 OFFCURVE",
"663 136 OFFCURVE",
"663 382 CURVE SMOOTH",
"663 670 OFFCURVE",
"548 793 OFFCURVE",
"336 793 CURVE SMOOTH",
"133 793 OFFCURVE",
"12 687 OFFCURVE",
"12 543 CURVE SMOOTH",
"12 369 OFFCURVE",
"120 311 OFFCURVE",
"283 311 CURVE SMOOTH",
"322 311 OFFCURVE",
"354 317 OFFCURVE",
"383 327 CURVE",
"383 205 OFFCURVE",
"375 176 OFFCURVE",
"328 176 CURVE SMOOTH",
"277 176 OFFCURVE",
"271 207 OFFCURVE",
"271 269 CURVE"
);
},
{
closed = 1;
nodes = (
"286 466 OFFCURVE",
"268 496 OFFCURVE",
"268 534 CURVE SMOOTH",
"268 588 OFFCURVE",
"290 611 OFFCURVE",
"323 611 CURVE SMOOTH",
"363 611 OFFCURVE",
"382 587 OFFCURVE",
"383 529 CURVE SMOOTH",
"383 474 LINE",
"365 469 OFFCURVE",
"345 466 OFFCURVE",
"327 466 CURVE SMOOTH"
);
}
);
};
layerId = UUID0;
paths = (
{
closed = 1;
nodes = (
"54 36 LINE",
"54 36 OFFCURVE",
"163 -14 OFFCURVE",
"300 -14 CURVE SMOOTH",
"536 -14 OFFCURVE",
"677 106 OFFCURVE",
"677 444 CURVE SMOOTH",
"677 681 OFFCURVE",
"547 792 OFFCURVE",
"325 792 CURVE SMOOTH",
"123 792 OFFCURVE",
"10 710 OFFCURVE",
"10 520 CURVE SMOOTH",
"10 341 OFFCURVE",
"125 294 OFFCURVE",
"246 294 CURVE SMOOTH",
"323 294 OFFCURVE",
"393 322 OFFCURVE",
"393 322 CURVE",
"393 301 LINE SMOOTH",
"393 214 OFFCURVE",
"352 164 OFFCURVE",
"271 164 CURVE SMOOTH",
"162 164 OFFCURVE",
"54 197 OFFCURVE",
"54 197 CURVE"
);
},
{
closed = 1;
nodes = (
"328 451 LINE SMOOTH",
"282 451 OFFCURVE",
"257 479 OFFCURVE",
"257 530 CURVE SMOOTH",
"257 592 OFFCURVE",
"280 614 OFFCURVE",
"325 614 CURVE SMOOTH",
"370 614 OFFCURVE",
"393 592 OFFCURVE",
"393 540 CURVE SMOOTH",
"393 464 LINE",
"393 464 OFFCURVE",
"359 451 OFFCURVE",
"328 451 CURVE SMOOTH"
);
}
);
width = 693;
}
);
unicode = 0039;
},
{
glyphname = slash;
lastChange = "2016-07-26 11:06:05 +0000";
layers = (
{
layerId = UUID0;
paths = (
{
closed = 1;
nodes = (
"-20 -119 LINE",
"-20 -151 LINE",
"123 -151 LINE",
"443 810 LINE",
"443 842 LINE",
"301 842 LINE"
);
}
);
width = 423;
}
);
unicode = 002F;
},
{
glyphname = backslash;
lastChange = "2016-07-26 11:06:05 +0000";
layers = (
{
layerId = UUID0;
paths = (
{
closed = 1;
nodes = (
"123 842 LINE",
"-20 842 LINE",
"-20 810 LINE",
"300 -151 LINE",
"444 -151 LINE",
"444 -119 LINE"
);
}
);
width = 424;
}
);
unicode = 005C;
},
{
glyphname = comma;
lastChange = "2016-07-26 11:06:05 +0000";
layers = (
{
layerId = UUID0;
paths = (
{
closed = 1;
nodes = (
"41 0 LINE",
"92 0 LINE",
"40 -161 LINE",
"126 -161 LINE",
"197 0 LINE",
"197 164 LINE",
"41 164 LINE"
);
}
);
width = 245;
}
);
unicode = 002C;
},
{
glyphname = semicolon;
lastChange = "2016-07-26 11:06:05 +0000";
layers = (
{
layerId = UUID0;
paths = (
{
closed = 1;
nodes = (
"41 0 LINE",
"92 0 LINE",
"40 -161 LINE",
"126 -161 LINE",
"197 0 LINE",
"197 164 LINE",
"41 164 LINE"
);
},
{
closed = 1;
nodes = (
"41 325 LINE",
"197 325 LINE",
"197 489 LINE",
"41 489 LINE"
);
}
);
width = 245;
}
);
unicode = 003B;
},
{
glyphname = asciitilde;
lastChange = "2016-07-26 11:06:05 +0000";
layers = (
{
layerId = UUID0;
paths = (
{
closed = 1;
nodes = (
"83 239 LINE",
"83 253 OFFCURVE",
"98 276 OFFCURVE",
"153 276 CURVE SMOOTH",
"272 276 OFFCURVE",
"323 228 OFFCURVE",
"443 228 CURVE SMOOTH",
"579 228 OFFCURVE",
"588 337 OFFCURVE",
"588 410 CURVE",
"532 410 LINE",
"532 394 OFFCURVE",
"521 374 OFFCURVE",
"467 374 CURVE SMOOTH",
"352 374 OFFCURVE",
"303 421 OFFCURVE",
"182 421 CURVE SMOOTH",
"44 421 OFFCURVE",
"30 308 OFFCURVE",
"30 239 CURVE"
);
}
);
width = 618;
}
);
unicode = 007E;
},
{
glyphname = question;
lastChange = "2016-07-26 11:06:05 +0000";
layers = (
{
background = {
paths = (
{
closed = 1;
nodes = (
"380 201 LINE",
"380 209 LINE SMOOTH",
"380 336 OFFCURVE",
"608 334 OFFCURVE",
"608 557 CURVE SMOOTH",
"608 698 OFFCURVE",
"497 792 OFFCURVE",
"305 792 CURVE SMOOTH",
"70 792 OFFCURVE",
"-12 677 OFFCURVE",
"-12 677 CURVE",
"-12 488 LINE",
"230 488 LINE",
"229 533 LINE",
"229 556 OFFCURVE",
"248 570 OFFCURVE",
"276 570 CURVE SMOOTH",
"309 570 OFFCURVE",
"326 549 OFFCURVE",
"326 520 CURVE SMOOTH",
"326 436 OFFCURVE",
"141 430 OFFCURVE",
"141 276 CURVE SMOOTH",
"141 201 LINE"
);
},
{
closed = 1;
nodes = (
"141 0 LINE",
"379 0 LINE",
"379 164 LINE",
"141 164 LINE"
);
}
);
};
layerId = UUID0;
paths = (
{
closed = 1;
nodes = (
"380 211 LINE",
"380 392 OFFCURVE",
"608 340 OFFCURVE",
"608 575 CURVE SMOOTH",
"608 698 OFFCURVE",
"497 792 OFFCURVE",
"318 792 CURVE SMOOTH",
"150 792 OFFCURVE",
"2 715 OFFCURVE",
"2 715 CURVE",
"55 511 LINE",
"55 511 OFFCURVE",
"171 570 OFFCURVE",
"266 570 CURVE SMOOTH",
"311 570 OFFCURVE",
"326 553 OFFCURVE",
"326 530 CURVE SMOOTH",
"326 442 OFFCURVE",
"141 434 OFFCURVE",
"141 265 CURVE SMOOTH",
"141 211 LINE"
);
},
{
closed = 1;
nodes = (
"141 0 LINE",
"379 0 LINE",
"379 164 LINE",
"141 164 LINE"
);
}
);
width = 614;
}
);
unicode = 003F;
},
{
glyphname = questiondown;
lastChange = "2016-07-26 11:06:05 +0000";
layers = (
{
background = {
paths = (
{
closed = 1;
nodes = (
"234 366 LINE",
"234 358 LINE SMOOTH",
"234 231 OFFCURVE",
"6 233 OFFCURVE",
"6 10 CURVE SMOOTH",
"6 -131 OFFCURVE",
"117 -226 OFFCURVE",
"309 -226 CURVE SMOOTH",
"544 -226 OFFCURVE",
"626 -110 OFFCURVE",
"626 -110 CURVE",
"626 79 LINE",
"384 79 LINE",
"385 34 LINE SMOOTH",
"385 11 OFFCURVE",
"366 -3 OFFCURVE",
"338 -3 CURVE SMOOTH",
"305 -3 OFFCURVE",
"288 18 OFFCURVE",
"288 47 CURVE SMOOTH",
"288 131 OFFCURVE",
"473 137 OFFCURVE",
"473 291 CURVE SMOOTH",
"473 366 LINE"
);
},
{
closed = 1;
nodes = (
"473 567 LINE",
"235 567 LINE",
"235 403 LINE",
"473 403 LINE"
);
}
);
};
layerId = UUID0;
paths = (
{
closed = 1;
nodes = (
"234 345 LINE",
"234 164 OFFCURVE",
"6 216 OFFCURVE",
"6 -19 CURVE SMOOTH",
"6 -142 OFFCURVE",
"117 -236 OFFCURVE",
"296 -236 CURVE SMOOTH",
"464 -236 OFFCURVE",
"612 -159 OFFCURVE",
"612 -159 CURVE",
"559 45 LINE",
"559 45 OFFCURVE",
"443 -14 OFFCURVE",
"348 -14 CURVE SMOOTH",
"303 -14 OFFCURVE",
"288 3 OFFCURVE",
"288 26 CURVE SMOOTH",
"288 114 OFFCURVE",
"473 122 OFFCURVE",
"473 291 CURVE SMOOTH",
"473 345 LINE"
);
},
{
closed = 1;
nodes = (
"473 556 LINE",
"235 556 LINE",
"235 392 LINE",
"473 392 LINE"
);
}
);
width = 614;
}
);
unicode = 00BF;
},
{
glyphname = quotedbl;
lastChange = "2016-07-26 11:06:05 +0000";
layers = (
{
layerId = UUID0;
paths = (
{
closed = 1;
nodes = (
"28 556 LINE",
"128 556 LINE",
"205 778 LINE",
"71 778 LINE"
);
},
{
closed = 1;
nodes = (
"171 556 LINE",
"271 556 LINE",
"347 778 LINE",
"214 778 LINE"
);
}
);
width = 373;
}
);
unicode = 0022;
},
{
glyphname = quoteright;
lastChange = "2016-07-26 11:06:05 +0000";
layers = (
{
layerId = UUID0;
paths = (
{
closed = 1;
nodes = (
"30 650 LINE",
"79 650 LINE",
"36 548 LINE",
"103 548 LINE",
"170 650 LINE",
"170 778 LINE",
"30 778 LINE"
);
}
);
width = 210;
}
);
unicode = 2019;
},
{
glyphname = quoteleft;
lastChange = "2016-07-26 11:06:05 +0000";
layers = (
{
layerId = UUID0;
paths = (
{
closed = 1;
nodes = (
"180 676 LINE",
"131 676 LINE",
"174 778 LINE",
"107 778 LINE",
"40 676 LINE",
"40 548 LINE",
"180 548 LINE"
);
}
);
width = 210;
}
);
unicode = 2018;
},
{
glyphname = quotedblright;
lastChange = "2016-07-26 11:06:05 +0000";
layers = (
{
layerId = UUID0;
paths = (
{
closed = 1;
nodes = (
"30 650 LINE",
"79 650 LINE",
"36 548 LINE",
"103 548 LINE",
"170 650 LINE",
"170 778 LINE",
"30 778 LINE"
);
},
{
closed = 1;
nodes = (
"206 650 LINE",
"255 650 LINE",
"212 548 LINE",
"279 548 LINE",
"346 650 LINE",
"346 778 LINE",
"206 778 LINE"
);
}
);
width = 386;
}
);
unicode = 201D;
},
{
glyphname = quotedblleft;
lastChange = "2016-07-26 11:06:05 +0000";
layers = (
{
layerId = UUID0;
paths = (
{
closed = 1;
nodes = (
"356 676 LINE",
"307 676 LINE",
"350 778 LINE",
"283 778 LINE",
"216 676 LINE",
"216 548 LINE",
"356 548 LINE"
);
},
{
closed = 1;
nodes = (
"180 676 LINE",
"131 676 LINE",
"174 778 LINE",
"107 778 LINE",
"40 676 LINE",
"40 548 LINE",
"180 548 LINE"
);
}
);
width = 386;
}
);
unicode = 201C;
},
{
glyphname = exclam;
lastChange = "2016-07-26 11:06:05 +0000";
layers = (
{
layerId = UUID0;
paths = (
{
closed = 1;
nodes = (
"53 0 LINE",
"284 0 LINE",
"284 153 LINE",
"53 153 LINE"
);
},
{
closed = 1;
nodes = (
"66 187 LINE",
"272 187 LINE",
"319 727 LINE",
"319 778 LINE",
"20 778 LINE",
"20 727 LINE"
);
}
);
width = 343;
}
);
unicode = 0021;
},
{
glyphname = exclamdown;
lastChange = "2016-07-26 11:06:05 +0000";
layers = (
{
layerId = UUID0;
paths = (
{
closed = 1;
nodes = (
"290 556 LINE",
"59 556 LINE",
"59 403 LINE",
"290 403 LINE"
);
},
{
closed = 1;
nodes = (
"277 349 LINE",
"71 349 LINE",
"24 -171 LINE",
"24 -222 LINE",
"323 -222 LINE",
"323 -171 LINE"
);
}
);
width = 343;
}
);
unicode = 00A1;
},
{
glyphname = mu;
lastChange = "2016-07-26 11:06:05 +0000";
layers = (
{
background = {
paths = (
{
closed = 1;
nodes = (
"390 220 LINE",
"388 179 OFFCURVE",
"371 157 OFFCURVE",
"342 157 CURVE SMOOTH",
"309 157 OFFCURVE",
"292 179 OFFCURVE",
"291 220 CURVE",
"291 556 LINE",
"14 556 LINE",
"14 389 LINE",
"60 389 LINE",
"60 -222 LINE",
"291 -222 LINE",
"291 -9 LINE",
"351 -9 OFFCURVE",
"384 33 OFFCURVE",
"401 68 CURVE",
"390 0 LINE",
"664 0 LINE",
"664 176 LINE",
"620 176 LINE",
"620 556 LINE",
"337 556 LINE",
"337 389 LINE",
"390 389 LINE"
);
}
);
};
layerId = UUID0;
paths = (
{
closed = 1;
nodes = (
"44 -222 LINE",
"274 -222 LINE",
"237 -14 LINE",
"308 -14 OFFCURVE",
"367 36 OFFCURVE",
"390 68 CURVE",
"390 0 LINE",
"664 0 LINE",
"664 164 LINE",
"620 164 LINE",
"620 556 LINE",
"336 556 LINE",
"336 392 LINE",
"390 392 LINE",
"390 228 LINE SMOOTH",
"390 183 OFFCURVE",
"370 164 OFFCURVE",
"332 164 CURVE SMOOTH",
"294 164 OFFCURVE",
"274 183 OFFCURVE",
"274 228 CURVE SMOOTH",
"274 556 LINE",
"0 556 LINE",
"0 392 LINE",
"44 392 LINE"
);
}
);
width = 674;
}
);
unicode = 00B5;
},
{
glyphname = parenleft;
lastChange = "2016-07-26 11:06:05 +0000";
layers = (
{
layerId = UUID0;
paths = (
{
closed = 1;
nodes = (
"36 328 LINE SMOOTH",
"36 -40 OFFCURVE",
"255 -229 OFFCURVE",
"255 -229 CURVE",
"364 -177 LINE",
"364 -177 OFFCURVE",
"222 21 OFFCURVE",
"222 328 CURVE SMOOTH",
"222 633 OFFCURVE",
"364 838 OFFCURVE",
"364 838 CURVE",
"255 888 LINE",
"255 888 OFFCURVE",
"36 694 OFFCURVE",
"36 328 CURVE SMOOTH"
);
}
);
width = 350;
}
);
unicode = 0028;
},
{
glyphname = parenright;
lastChange = "2016-07-26 11:06:05 +0000";
layers = (
{
layerId = UUID0;
paths = (
{
closed = 1;
nodes = (
"314 328 LINE",
"314 694 OFFCURVE",
"95 888 OFFCURVE",
"95 888 CURVE",
"-14 838 LINE",
"-14 838 OFFCURVE",
"128 633 OFFCURVE",
"128 328 CURVE SMOOTH",
"128 21 OFFCURVE",
"-14 -177 OFFCURVE",
"-14 -177 CURVE",
"95 -229 LINE",
"95 -229 OFFCURVE",
"314 -40 OFFCURVE",
"314 328 CURVE SMOOTH"
);
}
);
width = 350;
}
);
unicode = 0029;
},
{
glyphname = ampersand;
lastChange = "2016-07-26 11:06:05 +0000";
layers = (
{
background = {
paths = (
{
closed = 1;
nodes = (
"1696 425 LINE",
"1615 425 OFFCURVE",
"1601 444 OFFCURVE",
"1601 486 CURVE SMOOTH",
"1601 518 OFFCURVE",
"1618 550 OFFCURVE",
"1675 550 CURVE SMOOTH",
"1727 550 OFFCURVE",
"1741 531 OFFCURVE",
"1741 510 CURVE",
"1893 510 LINE",
"1893 624 LINE",
"1893 624 OFFCURVE",
"1850 714 OFFCURVE",
"1662 714 CURVE SMOOTH",
"1472 714 OFFCURVE",
"1366 628 OFFCURVE",
"1366 507 CURVE SMOOTH",
"1366 430 OFFCURVE",
"1396 393 OFFCURVE",
"1448 360 CURVE",
"1397 337 OFFCURVE",
"1352 299 OFFCURVE",
"1352 201 CURVE SMOOTH",
"1352 70 OFFCURVE",
"1463 -16 OFFCURVE",
"1656 -16 CURVE SMOOTH",
"1861 -16 OFFCURVE",
"1948 61 OFFCURVE",
"1948 61 CURVE",
"1948 232 LINE",
"1761 232 LINE",
"1761 180 OFFCURVE",
"1760 148 OFFCURVE",
"1671 148 CURVE SMOOTH",
"1613 148 OFFCURVE",
"1595 173 OFFCURVE",
"1595 220 CURVE SMOOTH",
"1595 261 OFFCURVE",
"1613 289 OFFCURVE",
"1696 289 CURVE"
);
},
{
closed = 1;
nodes = (
"1986 425 LINE",
"1735 425 LINE",
"1735 289 LINE",
"1986 289 LINE"
);
},
{
closed = 1;
nodes = (
"1948 482 LINE",
"1788 482 LINE",
"1788 474 LINE SMOOTH",
"1788 454 OFFCURVE",
"1766 425 OFFCURVE",
"1735 425 CURVE SMOOTH",
"1761 425 LINE",
"1761 232 LINE",
"1948 232 LINE"
);
},
{
closed = 1;
nodes = (
"-1331 213 LINE",
"-1358 175 OFFCURVE",
"-1382 148 OFFCURVE",
"-1433 148 CURVE SMOOTH",
"-1487 148 OFFCURVE",
"-1510 169 OFFCURVE",
"-1510 199 CURVE SMOOTH",
"-1510 237 OFFCURVE",
"-1471 255 OFFCURVE",
"-1419 282 CURVE",
"-1287 355 OFFCURVE",
"-1195 409 OFFCURVE",
"-1195 517 CURVE SMOOTH",
"-1195 597 OFFCURVE",
"-1263 714 OFFCURVE",
"-1433 714 CURVE SMOOTH",
"-1615 714 OFFCURVE",
"-1700 597 OFFCURVE",
"-1700 513 CURVE SMOOTH",
"-1700 478 OFFCURVE",
"-1697 421 OFFCURVE",
"-1608 359 CURVE",
"-1664 330 OFFCURVE",
"-1720 276 OFFCURVE",
"-1720 194 CURVE SMOOTH",
"-1720 74 OFFCURVE",
"-1620 -18 OFFCURVE",
"-1437 -16 CURVE",
"-1262 -16 OFFCURVE",
"-1177 98 OFFCURVE",
"-1153 142 CURVE"
);
},
{
closed = 1;
nodes = (
"-1482 526 OFFCURVE",
"-1467 550 OFFCURVE",
"-1430 550 CURVE SMOOTH",
"-1394 550 OFFCURVE",
"-1379 526 OFFCURVE",
"-1379 500 CURVE SMOOTH",
"-1379 480 OFFCURVE",
"-1402 462 OFFCURVE",
"-1433 437 CURVE",
"-1463 461 OFFCURVE",
"-1482 479 OFFCURVE",
"-1482 500 CURVE SMOOTH"
);
},
{
closed = 1;
nodes = (
"-1597 350 LINE",
"-1597 350 OFFCURVE",
"-1480 243 OFFCURVE",
"-1385 164 CURVE",
"-1278 89 OFFCURVE",
"-1180 0 OFFCURVE",
"-1180 0 CURVE",
"-1071 0 LINE",
"-1071 172 LINE",
"-1134 172 LINE",
"-1134 172 OFFCURVE",
"-1160 206 OFFCURVE",
"-1260 285 CURVE SMOOTH",
"-1372 373 OFFCURVE",
"-1430 435 OFFCURVE",
"-1430 435 CURVE"
);
},
{
closed = 1;
nodes = (
"-1331 213 LINE",
"-1153 142 LINE",
"-1098 238 LINE",
"-1098 330 LINE",
"-1268 329 LINE",
"-1268 290 LINE"
);
},
{
closed = 1;
nodes = (
"2504 290 LINE",
"2548 339 LINE",
"2666 242 LINE",
"2623 191 LINE",
"2690 135 LINE",
"2576 0 LINE",
"2508 58 LINE",
"2470 24 OFFCURVE",
"2415 -16 OFFCURVE",
"2302 -16 CURVE",
"2123 -18 OFFCURVE",
"2022 70 OFFCURVE",
"2022 184 CURVE SMOOTH",
"2022 270 OFFCURVE",
"2076 319 OFFCURVE",
"2152 359 CURVE",
"2067 416 OFFCURVE",
"2051 468 OFFCURVE",
"2051 521 CURVE SMOOTH",
"2051 605 OFFCURVE",
"2136 714 OFFCURVE",
"2318 714 CURVE SMOOTH",
"2445 714 OFFCURVE",
"2499 650 OFFCURVE",
"2499 650 CURVE",
"2499 500 LINE",
"2370 500 LINE",
"2370 526 OFFCURVE",
"2355 550 OFFCURVE",
"2321 550 CURVE SMOOTH",
"2284 550 OFFCURVE",
"2269 526 OFFCURVE",
"2269 500 CURVE SMOOTH",
"2269 482 OFFCURVE",
"2286 469 OFFCURVE",
"2313 447 CURVE SMOOTH"
);
},
{
closed = 1;
nodes = (
"2333 148 OFFCURVE",
"2363 154 OFFCURVE",
"2377 165 CURVE",
"2277 248 LINE",
"2248 230 OFFCURVE",
"2234 214 OFFCURVE",
"2234 199 CURVE SMOOTH",
"2234 169 OFFCURVE",
"2257 148 OFFCURVE",
"2312 148 CURVE SMOOTH"
);
},
{
closed = 1;
nodes = (
"-1895 607 OFFCURVE",
"-1969 714 OFFCURVE",
"-2146 714 CURVE SMOOTH",
"-2328 714 OFFCURVE",
"-2413 605 OFFCURVE",
"-2413 521 CURVE SMOOTH",
"-2413 468 OFFCURVE",
"-2397 416 OFFCURVE",
"-2312 359 CURVE",
"-2388 319 OFFCURVE",
"-2442 270 OFFCURVE",
"-2442 184 CURVE SMOOTH",
"-2442 70 OFFCURVE",
"-2341 -18 OFFCURVE",
"-2162 -16 CURVE",
"-2049 -16 OFFCURVE",
"-1994 24 OFFCURVE",
"-1956 58 CURVE",
"-1888 0 LINE",
"-1774 135 LINE",
"-1841 191 LINE",
"-1798 242 LINE",
"-1916 339 LINE",
"-1960 290 LINE",
"-2036 353 LINE",
"-1961 400 OFFCURVE",
"-1895 447 OFFCURVE",
"-1895 527 CURVE SMOOTH"
);
},
{
closed = 1;
nodes = (
"-2195 526 OFFCURVE",
"-2180 550 OFFCURVE",
"-2143 550 CURVE SMOOTH",
"-2109 550 OFFCURVE",
"-2094 526 OFFCURVE",
"-2094 500 CURVE SMOOTH",
"-2094 483 OFFCURVE",
"-2121 469 OFFCURVE",
"-2152 448 CURVE",
"-2180 468 OFFCURVE",
"-2195 482 OFFCURVE",
"-2195 500 CURVE SMOOTH"
);
},
{
closed = 1;
nodes = (
"-2207 148 OFFCURVE",
"-2230 169 OFFCURVE",
"-2230 199 CURVE SMOOTH",
"-2230 214 OFFCURVE",
"-2216 230 OFFCURVE",
"-2187 248 CURVE",
"-2087 165 LINE",
"-2101 154 OFFCURVE",
"-2131 148 OFFCURVE",
"-2152 148 CURVE SMOOTH"
);
},
{
closed = 1;
nodes = (
"428 238 LINE SMOOTH",
"428 186 OFFCURVE",
"405 164 OFFCURVE",
"360 164 CURVE SMOOTH",
"315 164 OFFCURVE",
"292 186 OFFCURVE",
"292 238 CURVE SMOOTH",
"292 540 LINE SMOOTH",
"292 592 OFFCURVE",
"315 614 OFFCURVE",
"360 614 CURVE SMOOTH",
"405 614 OFFCURVE",
"428 592 OFFCURVE",
"428 540 CURVE SMOOTH",
"428 468 LINE",
"668 468 LINE",
"668 718 LINE",
"668 718 OFFCURVE",
"556 792 OFFCURVE",
"360 792 CURVE SMOOTH",
"127 792 OFFCURVE",
"-22 681 OFFCURVE",
"-22 389 CURVE SMOOTH",
"-22 97 OFFCURVE",
"127 -14 OFFCURVE",
"362 -14 CURVE SMOOTH",
"556 -14 OFFCURVE",
"668 60 OFFCURVE",
"668 60 CURVE",
"668 319 LINE",
"428 319 LINE"
);
}
);
};
layerId = UUID0;
paths = (
{
closed = 1;
nodes = (
"428 526 LINE",
"638 526 LINE",
"638 718 LINE",
"638 718 OFFCURVE",
"537 792 OFFCURVE",
"350 792 CURVE SMOOTH",
"166 792 OFFCURVE",
"30 720 OFFCURVE",
"30 589 CURVE SMOOTH",
"30 509 OFFCURVE",
"75 459 OFFCURVE",
"142 409 CURVE",
"66 371 OFFCURVE",
"-5 310 OFFCURVE",
"-5 210 CURVE SMOOTH",
"-5 72 OFFCURVE",
"119 -14 OFFCURVE",
"349 -14 CURVE SMOOTH",
"470 -14 OFFCURVE",
"549 19 OFFCURVE",
"598 56 CURVE",
"671 0 LINE",
"793 161 LINE",
"703 229 LINE",
"712 262 LINE",
"770 262 LINE",
"770 429 LINE",
"529 429 LINE",
"529 411 LINE",
"528 395 OFFCURVE",
"527 379 OFFCURVE",
"525 363 CURVE",
"362 486 LINE SMOOTH",
"332 509 OFFCURVE",
"297 531 OFFCURVE",
"297 561 CURVE SMOOTH",
"297 592 OFFCURVE",
"315 614 OFFCURVE",
"360 614 CURVE SMOOTH",
"405 614 OFFCURVE",
"428 592 OFFCURVE",
"428 540 CURVE SMOOTH"
);
},
{
closed = 1;
nodes = (
"360 164 LINE SMOOTH",
"288 164 OFFCURVE",
"267 182 OFFCURVE",
"267 216 CURVE SMOOTH",
"267 244 OFFCURVE",
"283 267 OFFCURVE",
"308 280 CURVE",
"435 182 LINE",
"417 171 OFFCURVE",
"390 164 OFFCURVE",
"360 164 CURVE SMOOTH"
);
}
);
width = 787;
}
);
unicode = 0026;
},
{
glyphname = plus;
lastChange = "2016-07-26 11:06:05 +0000";
layers = (
{
layerId = UUID0;
paths = (
{
closed = 1;
nodes = (
"40 426 LINE",
"40 259 LINE",
"205 259 LINE",
"205 94 LINE",
"372 94 LINE",
"372 259 LINE",
"536 259 LINE",
"536 426 LINE",
"372 426 LINE",
"372 591 LINE",
"205 591 LINE",
"205 426 LINE"
);
}
);
width = 576;
}
);
unicode = 002B;
},
{
glyphname = hyphen;
lastChange = "2016-07-26 11:06:05 +0000";
layers = (
{
layerId = UUID0;
paths = (
{
closed = 1;
nodes = (
"355 237 LINE",
"355 401 LINE",
"34 401 LINE",
"34 237 LINE"
);
}
);
width = 389;
}
);
unicode = 002D;
},
{
glyphname = quotesingle;
lastChange = "2016-07-26 11:06:05 +0000";
layers = (
{
layerId = UUID0;
paths = (
{
closed = 1;
nodes = (
"28 556 LINE",
"151 556 LINE",
"228 778 LINE",
"71 778 LINE"
);
}
);
width = 254;
}
);
unicode = 0027;
},
{
glyphname = asterisk;
lastChange = "2016-07-26 11:06:05 +0000";
layers = (
{
background = {
paths = (
{
closed = 1;
nodes = (
"436 431 LINE",
"547 351 LINE",
"592 425 LINE",
"592 425 LINE",
"637 351 LINE",
"747 431 LINE",
"689 496 LINE",
"775 517 LINE",
"733 647 LINE",
"652 612 LINE",
"660 700 LINE",
"524 700 LINE",
"532 612 LINE",
"451 647 LINE",
"409 517 LINE",
"494 496 LINE"
);
},
{
closed = 1;
nodes = (
"1062 700 LINE",
"931 700 LINE",
"931 666 LINE",
"939 606 LINE",
"939 606 LINE",
"885 633 LINE",
"853 643 LINE",
"813 518 LINE",
"844 508 LINE",
"904 498 LINE",
"862 454 LINE",
"842 427 LINE",
"948 350 LINE",
"968 377 LINE",
"997 430 LINE",
"1025 377 LINE",
"1045 350 LINE",
"1151 427 LINE",
"1131 454 LINE",
"1089 498 LINE",
"1149 508 LINE",
"1180 518 LINE",
"1140 643 LINE",
"1108 633 LINE",
"1054 606 LINE",
"1062 666 LINE"
);
}
);
};
layerId = UUID0;
paths = (
{
closed = 1;
nodes = (
"265 761 LINE",
"265 778 LINE",
"145 778 LINE",
"145 761 LINE",
"163 667 LINE",
"88 729 LINE",
"76 736 LINE",
"16 633 LINE",
"27 626 LINE",
"127 593 LINE",
"27 560 LINE",
"16 551 LINE",
"76 451 LINE",
"88 458 LINE",
"163 518 LINE",
"145 424 LINE",
"145 409 LINE",
"265 409 LINE",
"265 424 LINE",
"247 518 LINE",
"321 458 LINE",
"332 451 LINE",
"393 551 LINE",
"381 560 LINE",
"280 593 LINE",
"381 626 LINE",
"393 633 LINE",
"332 736 LINE",
"321 729 LINE",
"247 667 LINE"
);
}
);
width = 409;
}
);
unicode = 002A;
},
{
glyphname = multiply;
lastChange = "2016-07-26 11:06:05 +0000";
layers = (
{
layerId = UUID0;
paths = (
{
closed = 1;
nodes = (
"415 80 LINE",
"538 203 LINE",
"408 332 LINE",
"538 462 LINE",
"415 586 LINE",
"285 456 LINE",
"156 586 LINE",
"32 462 LINE",
"161 332 LINE",
"32 203 LINE",
"156 80 LINE",
"285 209 LINE"
);
}
);
width = 570;
}
);
unicode = 00D7;
},
{
glyphname = greater;
lastChange = "2016-07-26 11:06:05 +0000";
layers = (
{
layerId = UUID0;
paths = (
{
closed = 1;
nodes = (
"44 69 LINE",
"44 224 LINE",
"315 317 LINE",
"315 328 LINE",
"44 420 LINE",
"44 576 LINE",
"65 576 LINE",
"463 414 LINE",
"463 230 LINE",
"65 69 LINE"
);
}
);
width = 499;
}
);
unicode = 003E;
},
{
glyphname = equal;
lastChange = "2016-07-26 11:06:05 +0000";
layers = (
{
layerId = UUID0;
paths = (
{
closed = 1;
nodes = (
"40 289 LINE",
"40 122 LINE",
"455 122 LINE",
"455 289 LINE"
);
},
{
closed = 1;
nodes = (
"40 553 LINE",
"40 387 LINE",
"455 387 LINE",
"455 553 LINE"
);
}
);
width = 495;
}
);
unicode = 003D;
},
{
glyphname = bracketleft;
lastChange = "2016-07-26 11:06:05 +0000";
layers = (
{
layerId = UUID0;
paths = (
{
closed = 1;
nodes = (
"44 -263 LINE",
"311 -286 LINE",
"323 -157 LINE",
"212 -134 LINE",
"212 744 LINE",
"323 767 LINE",
"311 896 LINE",
"44 873 LINE"
);
}
);
width = 325;
}
);
unicode = 005B;
},
{
glyphname = bracketright;
lastChange = "2016-07-26 11:06:05 +0000";
layers = (
{
layerId = UUID0;
paths = (
{
closed = 1;
nodes = (
"281 873 LINE",
"14 896 LINE",
"2 767 LINE",
"113 744 LINE",
"113 -134 LINE",
"2 -157 LINE",
"14 -286 LINE",
"281 -263 LINE"
);
}
);
width = 325;
}
);
unicode = 005D;
},
{
glyphname = plusminus;
lastChange = "2016-07-26 11:06:05 +0000";
layers = (
{
layerId = UUID0;
paths = (
{
closed = 1;
nodes = (
"40 582 LINE",
"40 415 LINE",
"206 415 LINE",
"206 251 LINE",
"373 251 LINE",
"373 415 LINE",
"537 415 LINE",
"537 582 LINE",
"373 582 LINE",
"373 748 LINE",
"206 748 LINE",
"206 582 LINE"
);
},
{
closed = 1;
nodes = (
"57 200 LINE",
"57 42 LINE",
"517 42 LINE",
"517 200 LINE"
);
}
);
width = 577;
}
);
unicode = 00B1;
},
{
glyphname = bullet;
lastChange = "2016-07-26 11:06:05 +0000";
layers = (
{
layerId = UUID0;
paths = (
{
closed = 1;
nodes = (
"35 384 LINE SMOOTH",
"35 309 OFFCURVE",
"96 249 OFFCURVE",
"172 249 CURVE SMOOTH",
"246 249 OFFCURVE",
"308 309 OFFCURVE",
"308 384 CURVE SMOOTH",
"308 460 OFFCURVE",
"246 520 OFFCURVE",
"172 520 CURVE SMOOTH",
"96 520 OFFCURVE",
"35 460 OFFCURVE",
"35 384 CURVE SMOOTH"
);
}
);
width = 343;
}
);
unicode = 2022;
},
{
glyphname = endash;
lastChange = "2016-07-26 11:06:05 +0000";
layers = (
{
background = {
paths = (
{
closed = 1;
nodes = (
"11 0 LINE",
"218 0 LINE",
"218 439 LINE",
"208 439 LINE",
"218 500 LINE",
"11 500 LINE"
);
},
{
closed = 1;
nodes = (
"-29 0 LINE",
"259 0 LINE",
"259 158 LINE",
"-29 158 LINE"
);
},
{
closed = 1;
nodes = (
"313 0 LINE",
"521 0 LINE",
"521 296 LINE",
"313 296 LINE"
);
},
{
closed = 1;
nodes = (
"274 0 LINE",
"562 0 LINE",
"562 158 LINE",
"274 158 LINE"
);
},
{
closed = 1;
nodes = (
"218 296 LINE SMOOTH",
"218 336 OFFCURVE",
"233 359 OFFCURVE",
"265 359 CURVE SMOOTH",
"297 359 OFFCURVE",
"313 336 OFFCURVE",
"313 296 CURVE",
"521 296 LINE",
"521 446 OFFCURVE",
"442 513 OFFCURVE",
"356 513 CURVE SMOOTH",
"272 513 OFFCURVE",
"224 463 OFFCURVE",
"208 439 CURVE",
"218 439 LINE"
);
},
{
closed = 1;
nodes = (
"166 500 LINE",
"-29 500 LINE",
"-29 350 LINE",
"166 350 LINE"
);
}
);
};
layerId = UUID0;
paths = (
{
closed = 1;
nodes = (
"577 212 LINE",
"577 363 LINE",
"24 363 LINE",
"24 212 LINE"
);
}
);
width = 601;
}
);
unicode = 2013;
},
{
glyphname = emdash;
lastChange = "2016-07-26 11:06:05 +0000";
layers = (
{
background = {
paths = (
{
closed = 1;
nodes = (
"38 0 LINE",
"245 0 LINE",
"245 439 LINE",
"235 439 LINE",
"245 500 LINE",
"38 500 LINE"
);
},
{
closed = 1;
nodes = (
"-2 0 LINE",
"286 0 LINE",
"286 158 LINE",
"-2 158 LINE"
);
},
{
closed = 1;
nodes = (
"340 0 LINE",
"548 0 LINE",
"548 296 LINE",
"340 296 LINE"
);
},
{
closed = 1;
nodes = (
"301 0 LINE",
"589 0 LINE",
"589 158 LINE",
"301 158 LINE"
);
},
{
closed = 1;
nodes = (
"643 0 LINE",
"851 0 LINE",
"851 296 LINE",
"643 296 LINE"
);
},
{
closed = 1;
nodes = (
"604 0 LINE",
"892 0 LINE",
"892 158 LINE",
"604 158 LINE"
);
},
{
closed = 1;
nodes = (
"245 296 LINE SMOOTH",
"245 336 OFFCURVE",
"260 359 OFFCURVE",
"292 359 CURVE SMOOTH",
"324 359 OFFCURVE",
"340 336 OFFCURVE",
"340 296 CURVE",
"548 296 LINE",
"548 446 OFFCURVE",
"468 513 OFFCURVE",
"382 513 CURVE SMOOTH",
"298 513 OFFCURVE",
"251 463 OFFCURVE",
"235 439 CURVE",
"245 439 LINE"
);
},
{
closed = 1;
nodes = (
"193 500 LINE",
"-2 500 LINE",
"-2 350 LINE",
"193 350 LINE"
);
},
{
closed = 1;
nodes = (
"548 296 LINE",
"549 329 OFFCURVE",
"561 359 OFFCURVE",
"595 359 CURVE SMOOTH",
"629 359 OFFCURVE",
"643 329 OFFCURVE",
"643 296 CURVE",
"851 296 LINE",
"851 453 OFFCURVE",
"759 513 OFFCURVE",
"660 513 CURVE SMOOTH",
"577 513 OFFCURVE",
"531 466 OFFCURVE",
"511 439 CURVE"
);
}
);
};
layerId = UUID0;
paths = (
{
closed = 1;
nodes = (
"963 212 LINE",
"963 363 LINE",
"24 363 LINE",
"24 212 LINE"
);
}
);
width = 987;
}
);
unicode = 2014;
},
{
glyphname = asciicircum;
lastChange = "2016-07-26 11:06:05 +0000";
layers = (
{
layerId = UUID0;
paths = (
{
closed = 1;
nodes = (
"273 522 LINE",
"399 522 LINE",
"399 537 LINE",
"282 778 LINE",
"131 778 LINE",
"14 537 LINE",
"14 522 LINE",
"140 522 LINE",
"202 664 LINE",
"211 664 LINE"
);
}
);
width = 413;
}
);
unicode = 005E;
},
{
glyphname = underscore;
lastChange = "2016-07-26 11:06:05 +0000";
layers = (
{
layerId = UUID0;
paths = (
{
closed = 1;
nodes = (
"16 -166 LINE",
"616 -166 LINE",
"616 -72 LINE",
"16 -72 LINE"
);
}
);
width = 632;
}
);
unicode = 005F;
},
{
glyphname = braceleft;
lastChange = "2016-07-26 11:06:05 +0000";
layers = (
{
layerId = UUID0;
paths = (
{
closed = 1;
nodes = (
"22 249 LINE",
"46 249 OFFCURVE",
"78 234 OFFCURVE",
"78 179 CURVE SMOOTH",
"78 61 OFFCURVE",
"52 16 OFFCURVE",
"52 -102 CURVE SMOOTH",
"52 -238 OFFCURVE",
"180 -247 OFFCURVE",
"271 -247 CURVE",
"271 -158 LINE",
"247 -158 OFFCURVE",
"217 -147 OFFCURVE",
"217 -92 CURVE SMOOTH",
"217 12 OFFCURVE",
"241 56 OFFCURVE",
"241 167 CURVE SMOOTH",
"241 247 OFFCURVE",
"207 284 OFFCURVE",
"164 303 CURVE",
"206 321 OFFCURVE",
"241 360 OFFCURVE",
"241 440 CURVE SMOOTH",
"241 551 OFFCURVE",
"217 595 OFFCURVE",
"217 699 CURVE SMOOTH",
"217 753 OFFCURVE",
"244 764 OFFCURVE",
"271 764 CURVE",
"271 853 LINE",
"180 853 OFFCURVE",
"52 844 OFFCURVE",
"52 709 CURVE SMOOTH",
"52 590 OFFCURVE",
"78 545 OFFCURVE",
"78 428 CURVE SMOOTH",
"78 372 OFFCURVE",
"46 358 OFFCURVE",
"22 358 CURVE"
);
}
);
width = 299;
}
);
unicode = 007B;
},
{
glyphname = braceright;
lastChange = "2016-07-26 11:06:05 +0000";
layers = (
{
layerId = UUID0;
paths = (
{
closed = 1;
nodes = (
"277 358 LINE",
"254 358 OFFCURVE",
"222 372 OFFCURVE",
"222 428 CURVE SMOOTH",
"222 545 OFFCURVE",
"247 590 OFFCURVE",
"247 709 CURVE SMOOTH",
"247 844 OFFCURVE",
"119 853 OFFCURVE",
"28 853 CURVE",
"28 764 LINE",
"56 764 OFFCURVE",
"83 753 OFFCURVE",
"83 699 CURVE SMOOTH",
"83 595 OFFCURVE",
"58 551 OFFCURVE",
"58 440 CURVE SMOOTH",
"58 360 OFFCURVE",
"94 321 OFFCURVE",
"136 303 CURVE",
"93 284 OFFCURVE",
"58 247 OFFCURVE",
"58 167 CURVE SMOOTH",
"58 56 OFFCURVE",
"83 12 OFFCURVE",
"83 -92 CURVE SMOOTH",
"83 -147 OFFCURVE",
"53 -158 OFFCURVE",
"28 -158 CURVE",
"28 -247 LINE",
"119 -247 OFFCURVE",
"247 -238 OFFCURVE",
"247 -102 CURVE SMOOTH",
"247 16 OFFCURVE",
"222 61 OFFCURVE",
"222 179 CURVE SMOOTH",
"222 234 OFFCURVE",
"254 249 OFFCURVE",
"277 249 CURVE"
);
}
);
width = 299;
}
);
unicode = 007D;
},
{
glyphname = bar;
lastChange = "2016-07-26 11:06:05 +0000";
layers = (
{
layerId = UUID0;
paths = (
{
closed = 1;
nodes = (
"193 -327 LINE",
"193 940 LINE",
"62 940 LINE",
"62 -327 LINE"
);
}
);
width = 255;
}
);
unicode = 007C;
},
{
glyphname = cent;
lastChange = "2016-07-26 11:06:05 +0000";
layers = (
{
background = {
paths = (
{
closed = 1;
nodes = (
"365 -87 LINE",
"365 -19 LINE",
"437 -7 OFFCURVE",
"505 24 OFFCURVE",
"554 68 CURVE",
"554 242 LINE",
"362 242 LINE",
"362 198 OFFCURVE",
"357 154 OFFCURVE",
"312 154 CURVE SMOOTH",
"277 154 OFFCURVE",
"257 173 OFFCURVE",
"257 274 CURVE SMOOTH",
"257 279 LINE SMOOTH",
"257 380 OFFCURVE",
"277 399 OFFCURVE",
"312 399 CURVE SMOOTH",
"357 399 OFFCURVE",
"362 356 OFFCURVE",
"362 311 CURVE",
"554 311 LINE",
"554 488 LINE",
"505 528 OFFCURVE",
"437 558 OFFCURVE",
"365 570 CURVE",
"365 647 LINE",
"234 647 LINE",
"234 569 LINE",
"97 543 OFFCURVE",
"15 435 OFFCURVE",
"15 277 CURVE SMOOTH",
"15 116 OFFCURVE",
"97 9 OFFCURVE",
"234 -17 CURVE",
"234 -87 LINE"
);
}
);
};
layerId = UUID0;
paths = (
{
closed = 1;
nodes = (
"365 -104 LINE",
"365 -12 LINE",
"466 -3 OFFCURVE",
"534 25 OFFCURVE",
"534 25 CURVE",
"534 182 LINE",
"473 172 OFFCURVE",
"406 164 OFFCURVE",
"341 164 CURVE SMOOTH",
"277 164 OFFCURVE",
"252 193 OFFCURVE",
"252 242 CURVE SMOOTH",
"252 328 LINE SMOOTH",
"252 373 OFFCURVE",
"273 392 OFFCURVE",
"310 392 CURVE SMOOTH",
"349 392 OFFCURVE",
"368 373 OFFCURVE",
"368 328 CURVE SMOOTH",
"368 310 LINE",
"540 310 LINE",
"540 508 LINE",
"540 508 OFFCURVE",
"472 554 OFFCURVE",
"365 567 CURVE",
"365 657 LINE",
"234 657 LINE",
"234 564 LINE",
"93 540 OFFCURVE",
"8 444 OFFCURVE",
"8 278 CURVE SMOOTH",
"8 111 OFFCURVE",
"93 16 OFFCURVE",
"234 -8 CURVE",
"234 -104 LINE"
);
}
);
width = 554;
}
);
unicode = 00A2;
},
{
glyphname = caron;
lastChange = "2016-07-26 11:06:05 +0000";
layers = (
{
anchors = (
{
name = _top;
position = "{213, 614}";
}
);
layerId = UUID0;
paths = (
{
closed = 1;
nodes = (
"220 713 LINE",
"211 713 LINE",
"149 778 LINE",
"0 778 LINE",
"0 763 LINE",
"117 611 LINE",
"314 611 LINE",
"431 763 LINE",
"431 778 LINE",
"282 778 LINE"
);
}
);
width = 431;
}
);
unicode = 02C7;
},
{
glyphname = sterling;
lastChange = "2016-07-26 11:06:05 +0000";
layers = (
{
layerId = UUID0;
paths = (
{
closed = 1;
nodes = (
"25 315 LINE",
"109 315 LINE",
"110 305 OFFCURVE",
"110 294 OFFCURVE",
"110 283 CURVE SMOOTH",
"110 189 OFFCURVE",
"60 118 OFFCURVE",
"24 76 CURVE",
"110 -10 LINE",
"121 3 OFFCURVE",
"149 20 OFFCURVE",
"202 20 CURVE SMOOTH",
"279 20 OFFCURVE",
"311 -14 OFFCURVE",
"402 -14 CURVE SMOOTH",
"590 -14 OFFCURVE",
"612 127 OFFCURVE",
"612 228 CURVE",
"466 228 LINE",
"466 208 OFFCURVE",
"453 177 OFFCURVE",
"391 177 CURVE SMOOTH",
"353 177 OFFCURVE",
"327 186 OFFCURVE",
"301 197 CURVE",
"318 228 OFFCURVE",
"329 268 OFFCURVE",
"330 315 CURVE",
"477 315 LINE",
"477 440 LINE",
"311 440 LINE",
"301 476 OFFCURVE",
"290 511 OFFCURVE",
"290 548 CURVE SMOOTH",
"290 599 OFFCURVE",
"311 618 OFFCURVE",
"355 618 CURVE SMOOTH",
"404 618 OFFCURVE",
"410 590 OFFCURVE",
"410 590 CURVE",
"410 569 LINE",
"591 569 LINE",
"591 735 LINE",
"531 769 OFFCURVE",
"443 792 OFFCURVE",
"345 792 CURVE SMOOTH",
"141 792 OFFCURVE",
"50 686 OFFCURVE",
"50 567 CURVE SMOOTH",
"50 507 OFFCURVE",
"60 469 OFFCURVE",
"73 440 CURVE",
"25 440 LINE"
);
}
);
width = 616;
}
);
unicode = 00A3;
},
{
glyphname = percent;
lastChange = "2016-07-26 11:06:05 +0000";
layers = (
{
layerId = UUID0;
paths = (
{
closed = 1;
nodes = (
"78 32 LINE",
"78 0 LINE",
"221 0 LINE",
"771 746 LINE",
"771 778 LINE",
"629 778 LINE"
);
},
{
closed = 1;
nodes = (
"487 187 LINE SMOOTH",
"487 35 OFFCURVE",
"556 -14 OFFCURVE",
"663 -14 CURVE SMOOTH",
"768 -14 OFFCURVE",
"836 36 OFFCURVE",
"836 187 CURVE SMOOTH",
"836 337 OFFCURVE",
"768 388 OFFCURVE",
"663 388 CURVE SMOOTH",
"556 388 OFFCURVE",
"487 338 OFFCURVE",
"487 187 CURVE SMOOTH"
);
},
{
closed = 1;
nodes = (
"627 190 LINE SMOOTH",
"627 270 OFFCURVE",
"633 288 OFFCURVE",
"660 288 CURVE SMOOTH",
"689 288 OFFCURVE",
"694 270 OFFCURVE",
"694 190 CURVE SMOOTH",
"694 110 OFFCURVE",
"688 92 OFFCURVE",
"660 92 CURVE SMOOTH",
"633 92 OFFCURVE",
"627 104 OFFCURVE",
"627 190 CURVE SMOOTH"
);
},
{
closed = 1;
nodes = (
"14 591 LINE SMOOTH",
"14 439 OFFCURVE",
"83 390 OFFCURVE",
"190 390 CURVE SMOOTH",
"295 390 OFFCURVE",
"363 440 OFFCURVE",
"363 591 CURVE SMOOTH",
"363 741 OFFCURVE",
"295 792 OFFCURVE",
"190 792 CURVE SMOOTH",
"83 792 OFFCURVE",
"14 742 OFFCURVE",
"14 591 CURVE SMOOTH"
);
},
{
closed = 1;
nodes = (
"154 594 LINE SMOOTH",
"154 674 OFFCURVE",
"160 692 OFFCURVE",
"187 692 CURVE SMOOTH",
"216 692 OFFCURVE",
"221 674 OFFCURVE",
"221 594 CURVE SMOOTH",
"221 514 OFFCURVE",
"216 496 OFFCURVE",
"187 496 CURVE SMOOTH",
"160 496 OFFCURVE",
"154 508 OFFCURVE",
"154 594 CURVE SMOOTH"
);
}
);
width = 850;
}
);
unicode = 0025;
},
{
glyphname = numbersign;
lastChange = "2016-07-26 11:06:05 +0000";
layers = (
{
layerId = UUID0;
paths = (
{
closed = 1;
nodes = (
"377 22 LINE",
"377 0 LINE",
"520 0 LINE",
"543 193 LINE",
"674 193 LINE",
"690 332 LINE",
"560 332 LINE",
"573 437 LINE",
"694 437 LINE",
"710 576 LINE",
"590 576 LINE",
"613 756 LINE",
"613 778 LINE",
"471 778 LINE",
"446 576 LINE",
"326 576 LINE",
"349 756 LINE",
"349 778 LINE",
"207 778 LINE",
"182 576 LINE",
"58 576 LINE",
"42 437 LINE",
"164 437 LINE",
"151 332 LINE",
"38 332 LINE",
"22 193 LINE",
"134 193 LINE",
"113 22 LINE",
"113 0 LINE",
"256 0 LINE",
"279 193 LINE",
"398 193 LINE"
);
},
{
closed = 1;
nodes = (
"309 437 LINE",
"428 437 LINE",
"415 332 LINE",
"296 332 LINE"
);
}
);
width = 732;
}
);
unicode = 0023;
},
{
glyphname = cedilla;
lastChange = "2016-07-26 11:06:05 +0000";
layers = (
{
anchors = (
{
name = _bottom;
position = "{301, 0}";
}
);
background = {
paths = (
{
closed = 1;
nodes = (
"796 245 LINE",
"796 200 OFFCURVE",
"794 148 OFFCURVE",
"750 148 CURVE SMOOTH",
"721 148 OFFCURVE",
"701 160 OFFCURVE",
"701 251 CURVE SMOOTH",
"701 342 OFFCURVE",
"719 359 OFFCURVE",
"751 359 CURVE SMOOTH",
"791 359 OFFCURVE",
"796 310 OFFCURVE",
"796 260 CURVE",
"989 260 LINE",
"989 500 LINE",
"865 500 LINE",
"848 468 LINE",
"822 493 OFFCURVE",
"786 513 OFFCURVE",
"730 513 CURVE SMOOTH",
"593 513 OFFCURVE",
"484 409 OFFCURVE",
"484 249 CURVE SMOOTH",
"484 84 OFFCURVE",
"588 -16 OFFCURVE",
"742 -16 CURVE SMOOTH",
"913 -16 OFFCURVE",
"989 102 OFFCURVE",
"989 245 CURVE"
);
},
{
closed = 1;
nodes = (
"-228 225 LINE",
"-228 192 OFFCURVE",
"-230 148 OFFCURVE",
"-274 148 CURVE SMOOTH",
"-303 148 OFFCURVE",
"-323 160 OFFCURVE",
"-323 251 CURVE SMOOTH",
"-323 342 OFFCURVE",
"-305 359 OFFCURVE",
"-273 359 CURVE SMOOTH",
"-233 359 OFFCURVE",
"-228 320 OFFCURVE",
"-228 280 CURVE",
"-35 280 LINE",
"-35 439 LINE",
"-96 480 OFFCURVE",
"-188 513 OFFCURVE",
"-281 513 CURVE SMOOTH",
"-441 513 OFFCURVE",
"-540 409 OFFCURVE",
"-540 249 CURVE SMOOTH",
"-540 84 OFFCURVE",
"-436 -16 OFFCURVE",
"-282 -16 CURVE SMOOTH",
"-111 -16 OFFCURVE",
"-35 94 OFFCURVE",
"-35 225 CURVE"
);
}
);
};
layerId = UUID0;
paths = (
{
closed = 1;
nodes = (
"251 -107 LINE",
"295 -107 LINE SMOOTH",
"319 -107 OFFCURVE",
"329 -121 OFFCURVE",
"329 -139 CURVE SMOOTH",
"329 -157 OFFCURVE",
"319 -171 OFFCURVE",
"295 -171 CURVE SMOOTH",
"243 -171 OFFCURVE",
"183 -157 OFFCURVE",
"183 -157 CURVE",
"183 -228 LINE",
"216 -237 OFFCURVE",
"259 -246 OFFCURVE",
"306 -246 CURVE SMOOTH",
"394 -246 OFFCURVE",
"447 -205 OFFCURVE",
"447 -133 CURVE SMOOTH",
"447 -70 OFFCURVE",
"404 -39 OFFCURVE",
"346 -39 CURVE",
"346 0 LINE",
"251 0 LINE"
);
}
);
width = 567;
}
);
unicode = 00B8;
},
{
glyphname = ring;
lastChange = "2016-07-26 11:06:05 +0000";
layers = (
{
anchors = (
{
name = _top;
position = "{93, 614}";
}
);
layerId = UUID0;
paths = (
{
closed = 1;
nodes = (
"-29 725 LINE SMOOTH",
"-29 657 OFFCURVE",
"25 603 OFFCURVE",
"93 603 CURVE SMOOTH",
"160 603 OFFCURVE",
"215 657 OFFCURVE",
"215 725 CURVE SMOOTH",
"215 792 OFFCURVE",
"160 847 OFFCURVE",
"93 847 CURVE SMOOTH",
"25 847 OFFCURVE",
"-29 792 OFFCURVE",
"-29 725 CURVE SMOOTH"
);
},
{
closed = 1;
nodes = (
"53 725 LINE",
"53 746 OFFCURVE",
"70 764 OFFCURVE",
"93 764 CURVE SMOOTH",
"114 764 OFFCURVE",
"132 746 OFFCURVE",
"132 725 CURVE SMOOTH",
"132 702 OFFCURVE",
"114 685 OFFCURVE",
"93 685 CURVE SMOOTH",
"70 685 OFFCURVE",
"53 702 OFFCURVE",
"53 725 CURVE SMOOTH"
);
}
);
width = 186;
}
);
unicode = 02DA;
},
{
glyphname = paragraph;
lastChange = "2016-07-26 11:06:05 +0000";
layers = (
{
layerId = UUID0;
paths = (
{
closed = 1;
nodes = (
"687 -160 LINE",
"687 624 LINE",
"751 663 OFFCURVE",
"757 731 OFFCURVE",
"757 792 CURVE",
"701 792 LINE",
"701 766 OFFCURVE",
"675 742 OFFCURVE",
"604 742 CURVE SMOOTH",
"477 742 OFFCURVE",
"423 792 OFFCURVE",
"278 792 CURVE SMOOTH",
"100 792 OFFCURVE",
"14 668 OFFCURVE",
"14 547 CURVE SMOOTH",
"14 402 OFFCURVE",
"100 301 OFFCURVE",
"290 301 CURVE",
"290 -160 LINE",
"453 -160 LINE",
"453 615 LINE",
"475 609 OFFCURVE",
"497 603 OFFCURVE",
"523 600 CURVE",
"523 -160 LINE"
);
}
);
width = 759;
}
);
unicode = 00B6;
},
{
glyphname = thorn;
lastChange = "2016-07-26 11:06:05 +0000";
layers = (
{
background = {
paths = (
{
closed = 1;
nodes = (
"240 41 LINE",
"269 13 OFFCURVE",
"305 -16 OFFCURVE",
"378 -16 CURVE SMOOTH",
"490 -16 OFFCURVE",
"569 83 OFFCURVE",
"569 248 CURVE SMOOTH",
"569 408 OFFCURVE",
"490 513 OFFCURVE",
"378 513 CURVE SMOOTH",
"305 513 OFFCURVE",
"274 492 OFFCURVE",
"240 468 CURVE"
);
},
{
closed = 1;
nodes = (
"327 397 OFFCURVE",
"335 353 OFFCURVE",
"335 252 CURVE SMOOTH",
"335 151 OFFCURVE",
"328 106 OFFCURVE",
"288 106 CURVE SMOOTH",
"248 106 OFFCURVE",
"240 143 OFFCURVE",
"240 253 CURVE SMOOTH",
"240 363 OFFCURVE",
"247 397 OFFCURVE",
"287 397 CURVE SMOOTH"
);
},
{
closed = 1;
nodes = (
"327 359 OFFCURVE",
"335 324 OFFCURVE",
"335 253 CURVE SMOOTH",
"335 182 OFFCURVE",
"327 148 OFFCURVE",
"287 148 CURVE SMOOTH",
"247 148 OFFCURVE",
"240 180 OFFCURVE",
"240 252 CURVE SMOOTH",
"240 324 OFFCURVE",
"247 359 OFFCURVE",
"287 359 CURVE SMOOTH"
);
},
{
closed = 1;
nodes = (
"255 68 LINE",
"275 31 OFFCURVE",
"323 -18 OFFCURVE",
"403 -18 CURVE SMOOTH",
"526 -18 OFFCURVE",
"610 92 OFFCURVE",
"610 276 CURVE SMOOTH",
"610 453 OFFCURVE",
"526 570 OFFCURVE",
"403 570 CURVE SMOOTH",
"324 570 OFFCURVE",
"279 514 OFFCURVE",
"255 488 CURVE",
"266 556 LINE",
"266 778 LINE",
"-8 778 LINE",
"-8 611 LINE",
"36 611 LINE",
"36 556 LINE",
"36 -56 LINE",
"-14 -56 LINE",
"-14 -222 LINE",
"340 -222 LINE",
"340 -56 LINE",
"266 -56 LINE",
"266 0 LINE"
);
},
{
closed = 1;
nodes = (
"353 399 OFFCURVE",
"361 360 OFFCURVE",
"361 281 CURVE SMOOTH",
"361 202 OFFCURVE",
"352 164 OFFCURVE",
"307 164 CURVE SMOOTH",
"266 164 OFFCURVE",
"256 194 OFFCURVE",
"255 262 CURVE SMOOTH",
"255 297 LINE SMOOTH",
"256 366 OFFCURVE",
"267 399 OFFCURVE",
"309 399 CURVE SMOOTH"
);
}
);
};
layerId = UUID0;
paths = (
{
closed = 1;
nodes = (
"349 -58 LINE",
"280 -58 LINE",
"280 68 LINE",
"305 36 OFFCURVE",
"359 -14 OFFCURVE",
"435 -14 CURVE SMOOTH",
"573 -14 OFFCURVE",
"640 94 OFFCURVE",
"640 278 CURVE SMOOTH",
"640 462 OFFCURVE",
"573 570 OFFCURVE",
"435 570 CURVE SMOOTH",
"359 570 OFFCURVE",
"305 520 OFFCURVE",
"280 488 CURVE",
"280 556 LINE",
"50 556 LINE",
"50 -58 LINE",
"6 -58 LINE",
"6 -222 LINE",
"349 -222 LINE"
);
},
{
closed = 1;
nodes = (
"396 228 LINE SMOOTH",
"396 183 OFFCURVE",
"376 164 OFFCURVE",
"338 164 CURVE SMOOTH",
"300 164 OFFCURVE",
"280 183 OFFCURVE",
"280 228 CURVE SMOOTH",
"280 328 LINE SMOOTH",
"280 373 OFFCURVE",
"300 392 OFFCURVE",
"338 392 CURVE SMOOTH",
"376 392 OFFCURVE",
"396 373 OFFCURVE",
"396 328 CURVE SMOOTH"
);
},
{
closed = 1;
nodes = (
"6 614 LINE",
"50 614 LINE",
"50 164 LINE",
"280 164 LINE",
"280 778 LINE",
"6 778 LINE"
);
}
);
width = 652;
}
);
unicode = 00FE;
},
{
glyphname = Thorn;
lastChange = "2016-07-26 11:06:05 +0000";
layers = (
{
background = {
paths = (
{
closed = 1;
nodes = (
"29 611 LINE",
"87 611 LINE",
"87 176 LINE",
"29 176 LINE",
"29 0 LINE",
"483 0 LINE",
"483 176 LINE",
"375 176 LINE",
"375 200 LINE",
"545 200 LINE SMOOTH",
"684 200 OFFCURVE",
"770 281 OFFCURVE",
"770 390 CURVE SMOOTH",
"770 493 OFFCURVE",
"684 589 OFFCURVE",
"545 589 CURVE SMOOTH",
"375 589 LINE",
"375 611 LINE",
"433 611 LINE",
"433 778 LINE",
"29 778 LINE"
);
},
{
closed = 1;
nodes = (
"375 325 LINE",
"375 436 LINE",
"424 436 LINE SMOOTH",
"467 436 OFFCURVE",
"494 415 OFFCURVE",
"494 379 CURVE SMOOTH",
"494 340 OFFCURVE",
"465 325 OFFCURVE",
"424 325 CURVE SMOOTH"
);
}
);
};
layerId = UUID0;
paths = (
{
closed = 1;
nodes = (
"368 331 LINE",
"368 435 LINE",
"392 435 LINE SMOOTH",
"420 435 OFFCURVE",
"440 422 OFFCURVE",
"440 391 CURVE SMOOTH",
"440 375 LINE SMOOTH",
"440 344 OFFCURVE",
"419 331 OFFCURVE",
"392 331 CURVE SMOOTH"
);
},
{
closed = 1;
nodes = (
"464 164 LINE",
"368 164 LINE",
"368 229 LINE",
"486 229 LINE SMOOTH",
"621 229 OFFCURVE",
"722 271 OFFCURVE",
"722 404 CURVE SMOOTH",
"722 531 OFFCURVE",
"621 569 OFFCURVE",
"486 569 CURVE SMOOTH",
"88 569 LINE",
"88 164 LINE",
"28 164 LINE",
"28 0 LINE",
"464 0 LINE"
);
},
{
closed = 1;
nodes = (
"28 614 LINE",
"88 614 LINE",
"88 164 LINE",
"28 164 LINE",
"28 0 LINE",
"428 0 LINE",
"428 164 LINE",
"368 164 LINE",
"368 614 LINE",
"428 614 LINE",
"428 778 LINE",
"28 778 LINE"
);
}
);
width = 762;
}
);
unicode = 00DE;
},
{
glyphname = eth;
lastChange = "2016-07-26 11:06:05 +0000";
layers = (
{
background = {
paths = (
{
closed = 1;
nodes = (
"598 130 OFFCURVE",
"517 -18 OFFCURVE",
"304 -18 CURVE SMOOTH",
"100 -18 OFFCURVE",
"8 103 OFFCURVE",
"8 278 CURVE SMOOTH",
"8 423 OFFCURVE",
"99 569 OFFCURVE",
"302 570 CURVE",
"276 643 OFFCURVE",
"205 715 OFFCURVE",
"175 738 CURVE",
"175 759 LINE",
"289 830 LINE",
"396 778 OFFCURVE",
"598 596 OFFCURVE",
"598 277 CURVE SMOOTH"
);
},
{
closed = 1;
nodes = (
"250 171 OFFCURVE",
"274 164 OFFCURVE",
"302 164 CURVE SMOOTH",
"330 164 OFFCURVE",
"355 171 OFFCURVE",
"355 281 CURVE SMOOTH",
"355 391 OFFCURVE",
"330 399 OFFCURVE",
"302 399 CURVE SMOOTH",
"274 399 OFFCURVE",
"250 391 OFFCURVE",
"250 281 CURVE SMOOTH"
);
},
{
closed = 1;
nodes = (
"509 791 LINE",
"525 791 LINE",
"525 699 LINE",
"165 577 LINE",
"149 577 LINE",
"149 668 LINE"
);
}
);
};
layerId = UUID0;
paths = (
{
closed = 1;
nodes = (
"612 278 LINE SMOOTH",
"612 473 OFFCURVE",
"495 570 OFFCURVE",
"310 570 CURVE SMOOTH",
"125 570 OFFCURVE",
"8 473 OFFCURVE",
"8 278 CURVE SMOOTH",
"8 83 OFFCURVE",
"125 -14 OFFCURVE",
"310 -14 CURVE SMOOTH",
"495 -14 OFFCURVE",
"612 83 OFFCURVE",
"612 278 CURVE SMOOTH"
);
},
{
closed = 1;
nodes = (
"310 164 LINE SMOOTH",
"272 164 OFFCURVE",
"252 183 OFFCURVE",
"252 228 CURVE SMOOTH",
"252 328 LINE SMOOTH",
"252 373 OFFCURVE",
"272 392 OFFCURVE",
"310 392 CURVE SMOOTH",
"348 392 OFFCURVE",
"368 373 OFFCURVE",
"368 328 CURVE SMOOTH",
"368 228 LINE SMOOTH",
"368 183 OFFCURVE",
"348 164 OFFCURVE",
"310 164 CURVE SMOOTH"
);
},
{
closed = 1;
nodes = (
"612 278 LINE",
"612 504 OFFCURVE",
"504 693 OFFCURVE",
"293 830 CURVE",
"179 759 LINE",
"179 738 LINE",
"218 713 OFFCURVE",
"286 643 OFFCURVE",
"316 569 CURVE"
);
},
{
closed = 1;
nodes = (
"159 669 LINE",
"159 578 LINE",
"175 578 LINE",
"535 700 LINE",
"535 792 LINE",
"519 792 LINE"
);
}
);
width = 606;
}
);
unicode = 00F0;
},
{
glyphname = periodcentered;
lastChange = "2016-07-26 11:06:05 +0000";
layers = (
{
layerId = UUID0;
paths = (
{
closed = 1;
nodes = (
"22 320 LINE",
"178 320 LINE",
"178 472 LINE",
"22 472 LINE"
);
}
);
width = 211;
}
);
unicode = 00B7;
},
{
glyphname = brokenbar;
lastChange = "2016-07-26 11:06:05 +0000";
layers = (
{
layerId = UUID0;
paths = (
{
closed = 1;
nodes = (
"62 208 LINE",
"62 -327 LINE",
"193 -327 LINE",
"193 208 LINE"
);
},
{
closed = 1;
nodes = (
"193 406 LINE",
"193 940 LINE",
"62 940 LINE",
"62 406 LINE"
);
}
);
width = 255;
}
);
unicode = 00A6;
},
{
glyphname = section;
lastChange = "2016-07-26 11:06:05 +0000";
layers = (
{
background = {
paths = (
{
closed = 1;
nodes = (
"-636 198 LINE",
"-454 198 LINE",
"-454 176 LINE SMOOTH",
"-454 152 OFFCURVE",
"-424 138 OFFCURVE",
"-384 138 CURVE SMOOTH",
"-349 138 OFFCURVE",
"-335 150 OFFCURVE",
"-335 169 CURVE SMOOTH",
"-335 182 OFFCURVE",
"-353 193 OFFCURVE",
"-388 199 CURVE",
"-522 214 OFFCURVE",
"-652 242 OFFCURVE",
"-652 379 CURVE SMOOTH",
"-652 483 OFFCURVE",
"-582 576 OFFCURVE",
"-376 576 CURVE SMOOTH",
"-235 576 OFFCURVE",
"-160 524 OFFCURVE",
"-128 488 CURVE",
"-128 369 LINE",
"-305 369 LINE",
"-305 386 LINE SMOOTH",
"-305 402 OFFCURVE",
"-333 419 OFFCURVE",
"-365 419 CURVE SMOOTH",
"-397 419 OFFCURVE",
"-425 411 OFFCURVE",
"-425 391 CURVE SMOOTH",
"-425 374 OFFCURVE",
"-397 370 OFFCURVE",
"-369 368 CURVE",
"-249 354 OFFCURVE",
"-106 322 OFFCURVE",
"-106 178 CURVE SMOOTH",
"-106 48 OFFCURVE",
"-193 -24 OFFCURVE",
"-387 -24 CURVE SMOOTH",
"-509 -24 OFFCURVE",
"-592 16 OFFCURVE",
"-636 68 CURVE"
);
},
{
closed = 1;
nodes = (
"-591 421 LINE",
"-409 421 LINE",
"-409 399 LINE SMOOTH",
"-409 375 OFFCURVE",
"-379 361 OFFCURVE",
"-339 361 CURVE SMOOTH",
"-304 361 OFFCURVE",
"-290 373 OFFCURVE",
"-290 392 CURVE SMOOTH",
"-290 405 OFFCURVE",
"-308 416 OFFCURVE",
"-343 422 CURVE",
"-477 437 OFFCURVE",
"-607 465 OFFCURVE",
"-607 602 CURVE SMOOTH",
"-607 706 OFFCURVE",
"-537 799 OFFCURVE",
"-331 799 CURVE SMOOTH",
"-190 799 OFFCURVE",
"-115 747 OFFCURVE",
"-83 711 CURVE",
"-83 592 LINE",
"-260 592 LINE",
"-260 609 LINE SMOOTH",
"-260 625 OFFCURVE",
"-288 642 OFFCURVE",
"-320 642 CURVE SMOOTH",
"-352 642 OFFCURVE",
"-380 634 OFFCURVE",
"-380 614 CURVE SMOOTH",
"-380 597 OFFCURVE",
"-352 593 OFFCURVE",
"-324 591 CURVE",
"-204 577 OFFCURVE",
"-61 545 OFFCURVE",
"-61 401 CURVE SMOOTH",
"-61 271 OFFCURVE",
"-148 199 OFFCURVE",
"-342 199 CURVE SMOOTH",
"-464 199 OFFCURVE",
"-547 239 OFFCURVE",
"-591 291 CURVE"
);
},
{
closed = 1;
nodes = (
"723 198 LINE",
"905 198 LINE",
"905 176 LINE SMOOTH",
"905 152 OFFCURVE",
"935 138 OFFCURVE",
"975 138 CURVE SMOOTH",
"1010 138 OFFCURVE",
"1024 150 OFFCURVE",
"1024 169 CURVE SMOOTH",
"1024 182 OFFCURVE",
"1006 193 OFFCURVE",
"971 199 CURVE",
"837 214 OFFCURVE",
"707 242 OFFCURVE",
"707 379 CURVE SMOOTH",
"707 433 OFFCURVE",
"726 484 OFFCURVE",
"773 520 CURVE",
"759 542 OFFCURVE",
"752 569 OFFCURVE",
"752 602 CURVE SMOOTH",
"752 706 OFFCURVE",
"822 799 OFFCURVE",
"1028 799 CURVE SMOOTH",
"1169 799 OFFCURVE",
"1244 747 OFFCURVE",
"1276 711 CURVE",
"1276 592 LINE",
"1099 592 LINE",
"1099 609 LINE SMOOTH",
"1099 625 OFFCURVE",
"1071 642 OFFCURVE",
"1039 642 CURVE SMOOTH",
"1007 642 OFFCURVE",
"979 634 OFFCURVE",
"979 614 CURVE SMOOTH",
"979 597 OFFCURVE",
"1007 593 OFFCURVE",
"1035 591 CURVE",
"1155 577 OFFCURVE",
"1298 545 OFFCURVE",
"1298 401 CURVE SMOOTH",
"1298 338 OFFCURVE",
"1278 289 OFFCURVE",
"1235 255 CURVE",
"1246 233 OFFCURVE",
"1253 208 OFFCURVE",
"1253 178 CURVE SMOOTH",
"1253 48 OFFCURVE",
"1166 -24 OFFCURVE",
"972 -24 CURVE SMOOTH",
"850 -24 OFFCURVE",
"767 16 OFFCURVE",
"723 68 CURVE"
);
},
{
closed = 1;
nodes = (
"929 365 OFFCURVE",
"969 357 OFFCURVE",
"1031 357 CURVE SMOOTH",
"1055 357 OFFCURVE",
"1074 365 OFFCURVE",
"1074 394 CURVE SMOOTH",
"1074 423 OFFCURVE",
"1033 432 OFFCURVE",
"971 432 CURVE SMOOTH",
"947 432 OFFCURVE",
"929 423 OFFCURVE",
"929 394 CURVE SMOOTH"
);
},
{
closed = 1;
nodes = (
"13 78 LINE",
"195 78 LINE",
"195 56 LINE SMOOTH",
"195 32 OFFCURVE",
"225 18 OFFCURVE",
"265 18 CURVE SMOOTH",
"300 18 OFFCURVE",
"314 30 OFFCURVE",
"314 49 CURVE SMOOTH",
"314 62 OFFCURVE",
"295 68 OFFCURVE",
"261 79 CURVE SMOOTH",
"108 125 OFFCURVE",
"-23 176 OFFCURVE",
"-23 299 CURVE SMOOTH",
"-23 424 OFFCURVE",
"74 496 OFFCURVE",
"273 496 CURVE SMOOTH",
"414 496 OFFCURVE",
"489 420 OFFCURVE",
"521 368 CURVE",
"521 249 LINE",
"344 279 LINE",
"344 296 LINE SMOOTH",
"344 312 OFFCURVE",
"316 329 OFFCURVE",
"284 329 CURVE SMOOTH",
"252 329 OFFCURVE",
"224 321 OFFCURVE",
"224 301 CURVE SMOOTH",
"224 284 OFFCURVE",
"252 280 OFFCURVE",
"280 278 CURVE",
"400 261 OFFCURVE",
"548 216 OFFCURVE",
"548 64 CURVE SMOOTH",
"548 -66 OFFCURVE",
"456 -144 OFFCURVE",
"262 -144 CURVE SMOOTH",
"140 -144 OFFCURVE",
"57 -104 OFFCURVE",
"13 -52 CURVE"
);
},
{
closed = 1;
nodes = (
"92 433 LINE",
"236 431 LINE",
"236 409 LINE SMOOTH",
"236 385 OFFCURVE",
"266 371 OFFCURVE",
"306 371 CURVE SMOOTH",
"341 371 OFFCURVE",
"355 383 OFFCURVE",
"355 402 CURVE SMOOTH",
"355 415 OFFCURVE",
"337 426 OFFCURVE",
"302 432 CURVE",
"168 450 OFFCURVE",
"38 481 OFFCURVE",
"38 642 CURVE SMOOTH",
"38 746 OFFCURVE",
"108 839 OFFCURVE",
"314 839 CURVE SMOOTH",
"455 839 OFFCURVE",
"530 787 OFFCURVE",
"562 751 CURVE",
"562 632 LINE",
"385 632 LINE",
"385 649 LINE SMOOTH",
"385 665 OFFCURVE",
"357 682 OFFCURVE",
"325 682 CURVE SMOOTH",
"293 682 OFFCURVE",
"265 674 OFFCURVE",
"265 654 CURVE SMOOTH",
"265 637 OFFCURVE",
"294 638 OFFCURVE",
"321 631 CURVE SMOOTH",
"457 597 OFFCURVE",
"604 547 OFFCURVE",
"604 381 CURVE SMOOTH",
"604 247 OFFCURVE",
"484 179 OFFCURVE",
"303 179 CURVE SMOOTH",
"181 179 OFFCURVE",
"98 243 OFFCURVE",
"54 331 CURVE"
);
},
{
closed = 1;
nodes = (
"13 78 LINE",
"195 78 LINE",
"195 56 LINE SMOOTH",
"195 32 OFFCURVE",
"225 18 OFFCURVE",
"265 18 CURVE SMOOTH",
"300 18 OFFCURVE",
"314 30 OFFCURVE",
"314 49 CURVE SMOOTH",
"314 62 OFFCURVE",
"295 68 OFFCURVE",
"261 79 CURVE SMOOTH",
"108 125 OFFCURVE",
"-23 176 OFFCURVE",
"-23 299 CURVE SMOOTH",
"-23 424 OFFCURVE",
"74 496 OFFCURVE",
"273 496 CURVE SMOOTH",
"414 496 OFFCURVE",
"489 420 OFFCURVE",
"521 368 CURVE",
"521 249 LINE",
"344 279 LINE",
"344 296 LINE SMOOTH",
"344 312 OFFCURVE",
"316 329 OFFCURVE",
"284 329 CURVE SMOOTH",
"252 329 OFFCURVE",
"224 321 OFFCURVE",
"224 301 CURVE SMOOTH",
"224 284 OFFCURVE",
"252 280 OFFCURVE",
"280 278 CURVE",
"400 261 OFFCURVE",
"548 216 OFFCURVE",
"548 64 CURVE SMOOTH",
"548 -66 OFFCURVE",
"456 -144 OFFCURVE",
"262 -144 CURVE SMOOTH",
"140 -144 OFFCURVE",
"57 -104 OFFCURVE",
"13 -52 CURVE"
);
},
{
closed = 1;
nodes = (
"92 433 LINE",
"236 431 LINE",
"236 409 LINE SMOOTH",
"236 385 OFFCURVE",
"266 371 OFFCURVE",
"306 371 CURVE SMOOTH",
"341 371 OFFCURVE",
"355 383 OFFCURVE",
"355 402 CURVE SMOOTH",
"355 415 OFFCURVE",
"337 426 OFFCURVE",
"302 432 CURVE",
"168 450 OFFCURVE",
"38 481 OFFCURVE",
"38 642 CURVE SMOOTH",
"38 746 OFFCURVE",
"108 839 OFFCURVE",
"314 839 CURVE SMOOTH",
"455 839 OFFCURVE",
"530 787 OFFCURVE",
"562 751 CURVE",
"562 632 LINE",
"385 632 LINE",
"385 649 LINE SMOOTH",
"385 665 OFFCURVE",
"357 682 OFFCURVE",
"325 682 CURVE SMOOTH",
"293 682 OFFCURVE",
"265 674 OFFCURVE",
"265 654 CURVE SMOOTH",
"265 637 OFFCURVE",
"294 638 OFFCURVE",
"321 631 CURVE SMOOTH",
"457 597 OFFCURVE",
"604 547 OFFCURVE",
"604 381 CURVE SMOOTH",
"604 247 OFFCURVE",
"484 179 OFFCURVE",
"303 179 CURVE SMOOTH",
"181 179 OFFCURVE",
"98 243 OFFCURVE",
"54 331 CURVE"
);
},
{
closed = 1;
nodes = (
"224 326 OFFCURVE",
"288 307 OFFCURVE",
"338 292 CURVE SMOOTH",
"343 290 OFFCURVE",
"361 300 OFFCURVE",
"361 322 CURVE SMOOTH",
"361 355 OFFCURVE",
"286 379 OFFCURVE",
"250 389 CURVE SMOOTH",
"245 390 OFFCURVE",
"224 381 OFFCURVE",
"224 356 CURVE SMOOTH"
);
},
{
closed = 1;
nodes = (
"1442 78 LINE",
"1624 78 LINE",
"1624 56 LINE SMOOTH",
"1624 32 OFFCURVE",
"1654 18 OFFCURVE",
"1694 18 CURVE SMOOTH",
"1729 18 OFFCURVE",
"1743 30 OFFCURVE",
"1743 49 CURVE SMOOTH",
"1743 62 OFFCURVE",
"1724 68 OFFCURVE",
"1690 79 CURVE SMOOTH",
"1537 125 OFFCURVE",
"1406 176 OFFCURVE",
"1406 299 CURVE SMOOTH",
"1406 388 OFFCURVE",
"1456 451 OFFCURVE",
"1557 479 CURVE",
"1503 509 OFFCURVE",
"1467 557 OFFCURVE",
"1467 642 CURVE SMOOTH",
"1467 746 OFFCURVE",
"1537 839 OFFCURVE",
"1743 839 CURVE SMOOTH",
"1884 839 OFFCURVE",
"1959 787 OFFCURVE",
"1991 751 CURVE",
"1991 632 LINE",
"1814 632 LINE",
"1814 649 LINE SMOOTH",
"1814 665 OFFCURVE",
"1786 682 OFFCURVE",
"1754 682 CURVE SMOOTH",
"1722 682 OFFCURVE",
"1694 674 OFFCURVE",
"1694 654 CURVE SMOOTH",
"1694 637 OFFCURVE",
"1723 638 OFFCURVE",
"1750 631 CURVE SMOOTH",
"1886 597 OFFCURVE",
"2033 547 OFFCURVE",
"2033 381 CURVE SMOOTH",
"2033 297 OFFCURVE",
"1986 240 OFFCURVE",
"1908 208 CURVE",
"1953 174 OFFCURVE",
"1981 131 OFFCURVE",
"1981 62 CURVE SMOOTH",
"1981 -66 OFFCURVE",
"1889 -144 OFFCURVE",
"1691 -144 CURVE SMOOTH",
"1569 -144 OFFCURVE",
"1486 -104 OFFCURVE",
"1442 -52 CURVE"
);
},
{
closed = 1;
nodes = (
"1654 328 OFFCURVE",
"1762 284 OFFCURVE",
"1770 284 CURVE SMOOTH",
"1772 284 OFFCURVE",
"1788 292 OFFCURVE",
"1788 311 CURVE SMOOTH",
"1788 347 OFFCURVE",
"1682 396 OFFCURVE",
"1675 396 CURVE SMOOTH",
"1673 396 OFFCURVE",
"1654 386 OFFCURVE",
"1654 366 CURVE SMOOTH"
);
},
{
closed = 1;
nodes = (
"-1877 78 LINE",
"-1695 78 LINE",
"-1695 56 LINE SMOOTH",
"-1695 32 OFFCURVE",
"-1665 18 OFFCURVE",
"-1625 18 CURVE SMOOTH",
"-1590 18 OFFCURVE",
"-1576 30 OFFCURVE",
"-1576 49 CURVE SMOOTH",
"-1576 62 OFFCURVE",
"-1595 68 OFFCURVE",
"-1629 79 CURVE SMOOTH",
"-1782 125 OFFCURVE",
"-1913 176 OFFCURVE",
"-1913 299 CURVE SMOOTH",
"-1913 388 OFFCURVE",
"-1863 451 OFFCURVE",
"-1762 479 CURVE",
"-1816 509 OFFCURVE",
"-1852 557 OFFCURVE",
"-1852 642 CURVE SMOOTH",
"-1852 746 OFFCURVE",
"-1782 839 OFFCURVE",
"-1576 839 CURVE SMOOTH",
"-1435 839 OFFCURVE",
"-1360 787 OFFCURVE",
"-1328 751 CURVE",
"-1328 632 LINE",
"-1505 632 LINE",
"-1505 649 LINE SMOOTH",
"-1505 665 OFFCURVE",
"-1533 682 OFFCURVE",
"-1565 682 CURVE SMOOTH",
"-1597 682 OFFCURVE",
"-1625 674 OFFCURVE",
"-1625 654 CURVE SMOOTH",
"-1625 637 OFFCURVE",
"-1596 638 OFFCURVE",
"-1569 631 CURVE SMOOTH",
"-1433 597 OFFCURVE",
"-1286 547 OFFCURVE",
"-1286 381 CURVE SMOOTH",
"-1286 297 OFFCURVE",
"-1333 240 OFFCURVE",
"-1411 208 CURVE",
"-1366 174 OFFCURVE",
"-1338 131 OFFCURVE",
"-1338 62 CURVE SMOOTH",
"-1338 -66 OFFCURVE",
"-1430 -144 OFFCURVE",
"-1628 -144 CURVE SMOOTH",
"-1750 -144 OFFCURVE",
"-1833 -104 OFFCURVE",
"-1877 -52 CURVE"
);
},
{
closed = 1;
nodes = (
"-1665 294 OFFCURVE",
"-1564 277 OFFCURVE",
"-1564 277 CURVE",
"-1564 277 OFFCURVE",
"-1529 286 OFFCURVE",
"-1529 324 CURVE SMOOTH",
"-1529 379 OFFCURVE",
"-1623 402 OFFCURVE",
"-1623 402 CURVE",
"-1623 402 OFFCURVE",
"-1665 395 OFFCURVE",
"-1665 356 CURVE SMOOTH"
);
}
);
};
layerId = UUID0;
paths = (
{
closed = 1;
nodes = (
"76 76 LINE",
"76 76 OFFCURVE",
"178 58 OFFCURVE",
"240 58 CURVE SMOOTH",
"299 58 OFFCURVE",
"312 68 OFFCURVE",
"312 87 CURVE SMOOTH",
"312 107 OFFCURVE",
"299 111 OFFCURVE",
"235 127 CURVE SMOOTH",
"113 157 OFFCURVE",
"22 205 OFFCURVE",
"22 312 CURVE SMOOTH",
"22 370 OFFCURVE",
"44 416 OFFCURVE",
"86 448 CURVE",
"73 472 OFFCURVE",
"66 500 OFFCURVE",
"66 533 CURVE SMOOTH",
"66 637 OFFCURVE",
"139 716 OFFCURVE",
"321 716 CURVE SMOOTH",
"448 716 OFFCURVE",
"518 686 OFFCURVE",
"518 686 CURVE",
"518 551 LINE",
"518 551 OFFCURVE",
"433 565 OFFCURVE",
"363 565 CURVE SMOOTH",
"309 565 OFFCURVE",
"286 557 OFFCURVE",
"286 538 CURVE SMOOTH",
"286 519 OFFCURVE",
"300 514 OFFCURVE",
"362 502 CURVE SMOOTH",
"498 475 OFFCURVE",
"578 425 OFFCURVE",
"578 320 CURVE SMOOTH",
"578 265 OFFCURVE",
"558 210 OFFCURVE",
"519 177 CURVE",
"529 155 OFFCURVE",
"534 128 OFFCURVE",
"534 98 CURVE SMOOTH",
"534 -21 OFFCURVE",
"455 -94 OFFCURVE",
"282 -94 CURVE SMOOTH",
"153 -94 OFFCURVE",
"76 -63 OFFCURVE",
"76 -63 CURVE"
);
},
{
closed = 1;
nodes = (
"398 299 LINE SMOOTH",
"398 322 OFFCURVE",
"384 337 OFFCURVE",
"316 351 CURVE SMOOTH",
"222 371 OFFCURVE",
"209 357 OFFCURVE",
"209 330 CURVE SMOOTH",
"209 304 OFFCURVE",
"228 292 OFFCURVE",
"302 278 CURVE SMOOTH",
"390 261 OFFCURVE",
"398 274 OFFCURVE",
"398 299 CURVE SMOOTH"
);
}
);
width = 604;
}
);
unicode = 00A7;
},
{
glyphname = germandbls;
lastChange = "2016-07-26 11:06:05 +0000";
layers = (
{
background = {
paths = (
{
closed = 1;
nodes = (
"314 28 LINE",
"335 5 OFFCURVE",
"384 -24 OFFCURVE",
"451 -24 CURVE SMOOTH",
"581 -24 OFFCURVE",
"660 38 OFFCURVE",
"660 155 CURVE SMOOTH",
"660 254 OFFCURVE",
"598 308 OFFCURVE",
"517 360 CURVE SMOOTH",
"504 369 OFFCURVE",
"492 378 OFFCURVE",
"492 392 CURVE SMOOTH",
"492 404 OFFCURVE",
"500 411 OFFCURVE",
"511 419 CURVE SMOOTH",
"583 473 OFFCURVE",
"618 512 OFFCURVE",
"618 579 CURVE SMOOTH",
"618 723 OFFCURVE",
"501 793 OFFCURVE",
"352 793 CURVE SMOOTH",
"159 793 OFFCURVE",
"78 721 OFFCURVE",
"64 556 CURVE",
"18 556 LINE",
"18 389 LINE",
"62 389 LINE",
"62 176 LINE",
"18 176 LINE",
"18 0 LINE",
"292 0 LINE",
"292 555 LINE SMOOTH",
"292 600 OFFCURVE",
"312 618 OFFCURVE",
"345 618 CURVE SMOOTH",
"382 618 OFFCURVE",
"399 592 OFFCURVE",
"399 561 CURVE SMOOTH",
"399 502 OFFCURVE",
"298 447 OFFCURVE",
"298 365 CURVE SMOOTH",
"298 333 OFFCURVE",
"307 283 OFFCURVE",
"424 209 CURVE",
"459 185 OFFCURVE",
"473 176 OFFCURVE",
"473 159 CURVE SMOOTH",
"473 141 OFFCURVE",
"454 129 OFFCURVE",
"432 129 CURVE SMOOTH",
"415 129 OFFCURVE",
"401 135 OFFCURVE",
"401 146 CURVE SMOOTH",
"401 155 LINE",
"314 155 LINE"
);
}
);
};
layerId = UUID0;
paths = (
{
closed = 1;
nodes = (
"342 156 LINE",
"342 156 OFFCURVE",
"400 138 OFFCURVE",
"431 138 CURVE SMOOTH",
"466 138 OFFCURVE",
"473 148 OFFCURVE",
"473 164 CURVE SMOOTH",
"473 182 OFFCURVE",
"456 195 OFFCURVE",
"421 214 CURVE SMOOTH",
"353 252 OFFCURVE",
"323 291 OFFCURVE",
"323 355 CURVE SMOOTH",
"323 440 OFFCURVE",
"399 508 OFFCURVE",
"399 567 CURVE SMOOTH",
"399 600 OFFCURVE",
"385 614 OFFCURVE",
"345 614 CURVE SMOOTH",
"305 614 OFFCURVE",
"292 600 OFFCURVE",
"292 555 CURVE SMOOTH",
"292 0 LINE",
"18 0 LINE",
"18 164 LINE",
"62 164 LINE",
"62 392 LINE",
"18 392 LINE",
"18 556 LINE",
"64 556 LINE",
"64 731 OFFCURVE",
"152 792 OFFCURVE",
"353 792 CURVE SMOOTH",
"509 792 OFFCURVE",
"618 741 OFFCURVE",
"618 609 CURVE SMOOTH",
"618 535 OFFCURVE",
"586 496 OFFCURVE",
"560 459 CURVE SMOOTH",
"548 442 OFFCURVE",
"533 425 OFFCURVE",
"533 405 CURVE SMOOTH",
"533 385 OFFCURVE",
"541 375 OFFCURVE",
"597 342 CURVE SMOOTH",
"650 311 OFFCURVE",
"695 267 OFFCURVE",
"695 168 CURVE SMOOTH",
"695 63 OFFCURVE",
"630 -14 OFFCURVE",
"491 -14 CURVE SMOOTH",
"411 -14 OFFCURVE",
"342 17 OFFCURVE",
"342 17 CURVE"
);
}
);
width = 707;
}
);
unicode = 00DF;
},
{
glyphname = quotesinglbase;
lastChange = "2016-07-26 11:06:05 +0000";
layers = (
{
layerId = UUID0;
paths = (
{
closed = 1;
nodes = (
"30 0 LINE",
"79 0 LINE",
"36 -102 LINE",
"103 -102 LINE",
"170 0 LINE",
"170 128 LINE",
"30 128 LINE"
);
}
);
width = 210;
}
);
unicode = 201A;
},
{
glyphname = quotedblbase;
lastChange = "2016-07-26 11:06:05 +0000";
layers = (
{
layerId = UUID0;
paths = (
{
closed = 1;
nodes = (
"30 0 LINE",
"79 0 LINE",
"36 -102 LINE",
"103 -102 LINE",
"170 0 LINE",
"170 128 LINE",
"30 128 LINE"
);
},
{
closed = 1;
nodes = (
"206 0 LINE",
"255 0 LINE",
"212 -102 LINE",
"279 -102 LINE",
"346 0 LINE",
"346 128 LINE",
"206 128 LINE"
);
}
);
width = 386;
}
);
unicode = 201E;
},
{
glyphname = currency;
lastChange = "2016-07-26 11:06:05 +0000";
layers = (
{
layerId = UUID0;
paths = (
{
closed = 1;
nodes = (
"116 53 LINE",
"182 119 LINE",
"211 105 OFFCURVE",
"248 98 OFFCURVE",
"292 98 CURVE SMOOTH",
"336 98 OFFCURVE",
"373 105 OFFCURVE",
"402 119 CURVE",
"469 53 LINE",
"576 160 LINE",
"496 239 LINE",
"502 265 OFFCURVE",
"506 295 OFFCURVE",
"506 327 CURVE SMOOTH",
"506 359 OFFCURVE",
"503 388 OFFCURVE",
"496 413 CURVE",
"576 493 LINE",
"469 601 LINE",
"403 535 LINE",
"373 549 OFFCURVE",
"336 556 OFFCURVE",
"292 556 CURVE SMOOTH",
"247 556 OFFCURVE",
"211 549 OFFCURVE",
"181 535 CURVE",
"116 601 LINE",
"8 493 LINE",
"88 412 LINE",
"82 387 OFFCURVE",
"79 358 OFFCURVE",
"79 327 CURVE SMOOTH",
"79 295 OFFCURVE",
"81 266 OFFCURVE",
"88 240 CURVE",
"8 160 LINE"
);
},
{
closed = 1;
nodes = (
"222 327 LINE SMOOTH",
"222 402 OFFCURVE",
"242 433 OFFCURVE",
"292 433 CURVE SMOOTH",
"342 433 OFFCURVE",
"363 402 OFFCURVE",
"363 327 CURVE SMOOTH",
"363 252 OFFCURVE",
"342 221 OFFCURVE",
"292 221 CURVE SMOOTH",
"242 221 OFFCURVE",
"222 252 OFFCURVE",
"222 327 CURVE SMOOTH"
);
}
);
width = 584;
}
);
unicode = 00A4;
},
{
glyphname = onesuperior;
lastChange = "2016-07-26 11:06:05 +0000";
layers = (
{
background = {
paths = (
{
closed = 1;
nodes = (
"-40 0 LINE",
"-40 -32 LINE",
"103 -32 LINE",
"700 778 LINE",
"700 810 LINE",
"558 810 LINE"
);
},
{
closed = 1;
nodes = (
"373 31 OFFCURVE",
"442 -18 OFFCURVE",
"549 -18 CURVE SMOOTH",
"654 -18 OFFCURVE",
"722 32 OFFCURVE",
"722 183 CURVE SMOOTH",
"722 333 OFFCURVE",
"654 384 OFFCURVE",
"549 384 CURVE SMOOTH",
"442 384 OFFCURVE",
"373 334 OFFCURVE",
"373 183 CURVE SMOOTH"
);
},
{
closed = 1;
nodes = (
"513 266 OFFCURVE",
"519 284 OFFCURVE",
"546 284 CURVE SMOOTH",
"575 284 OFFCURVE",
"580 266 OFFCURVE",
"580 186 CURVE SMOOTH",
"580 106 OFFCURVE",
"574 88 OFFCURVE",
"546 88 CURVE SMOOTH",
"519 88 OFFCURVE",
"513 100 OFFCURVE",
"513 186 CURVE SMOOTH"
);
},
{
closed = 1;
nodes = (
"-60 440 OFFCURVE",
"9 391 OFFCURVE",
"116 391 CURVE SMOOTH",
"221 391 OFFCURVE",
"289 441 OFFCURVE",
"289 592 CURVE SMOOTH",
"289 742 OFFCURVE",
"221 793 OFFCURVE",
"116 793 CURVE SMOOTH",
"9 793 OFFCURVE",
"-60 743 OFFCURVE",
"-60 592 CURVE SMOOTH"
);
},
{
closed = 1;
nodes = (
"80 675 OFFCURVE",
"86 693 OFFCURVE",
"113 693 CURVE SMOOTH",
"142 693 OFFCURVE",
"147 675 OFFCURVE",
"147 595 CURVE SMOOTH",
"147 515 OFFCURVE",
"142 497 OFFCURVE",
"113 497 CURVE SMOOTH",
"86 497 OFFCURVE",
"80 509 OFFCURVE",
"80 595 CURVE SMOOTH"
);
}
);
};
layerId = UUID0;
paths = (
{
closed = 1;
nodes = (
"10 706 LINE",
"67 706 LINE",
"67 536 LINE",
"20 536 LINE",
"20 429 LINE",
"249 429 LINE",
"249 536 LINE",
"208 536 LINE",
"208 811 LINE",
"100 811 LINE",
"10 774 LINE"
);
}
);
width = 261;
}
);
unicode = 00B9;
},
{
glyphname = twosuperior;
lastChange = "2016-07-26 11:06:05 +0000";
layers = (
{
background = {
paths = (
{
closed = 1;
nodes = (
"-5 0 LINE",
"-5 -32 LINE",
"138 -32 LINE",
"735 778 LINE",
"735 810 LINE",
"593 810 LINE"
);
},
{
closed = 1;
nodes = (
"408 31 OFFCURVE",
"477 -18 OFFCURVE",
"584 -18 CURVE SMOOTH",
"689 -18 OFFCURVE",
"757 32 OFFCURVE",
"757 183 CURVE SMOOTH",
"757 333 OFFCURVE",
"689 384 OFFCURVE",
"584 384 CURVE SMOOTH",
"477 384 OFFCURVE",
"408 334 OFFCURVE",
"408 183 CURVE SMOOTH"
);
},
{
closed = 1;
nodes = (
"548 266 OFFCURVE",
"554 284 OFFCURVE",
"581 284 CURVE SMOOTH",
"610 284 OFFCURVE",
"615 266 OFFCURVE",
"615 186 CURVE SMOOTH",
"615 106 OFFCURVE",
"609 88 OFFCURVE",
"581 88 CURVE SMOOTH",
"554 88 OFFCURVE",
"548 100 OFFCURVE",
"548 186 CURVE SMOOTH"
);
},
{
closed = 1;
nodes = (
"-25 440 OFFCURVE",
"44 391 OFFCURVE",
"151 391 CURVE SMOOTH",
"256 391 OFFCURVE",
"324 441 OFFCURVE",
"324 592 CURVE SMOOTH",
"324 742 OFFCURVE",
"256 793 OFFCURVE",
"151 793 CURVE SMOOTH",
"44 793 OFFCURVE",
"-25 743 OFFCURVE",
"-25 592 CURVE SMOOTH"
);
},
{
closed = 1;
nodes = (
"115 675 OFFCURVE",
"121 693 OFFCURVE",
"148 693 CURVE SMOOTH",
"177 693 OFFCURVE",
"182 675 OFFCURVE",
"182 595 CURVE SMOOTH",
"182 515 OFFCURVE",
"177 497 OFFCURVE",
"148 497 CURVE SMOOTH",
"121 497 OFFCURVE",
"115 509 OFFCURVE",
"115 595 CURVE SMOOTH"
);
}
);
};
layerId = UUID0;
paths = (
{
closed = 1;
nodes = (
"24 429 LINE",
"304 429 LINE",
"304 533 LINE",
"185 533 LINE",
"251 589 OFFCURVE",
"294 650 OFFCURVE",
"294 715 CURVE SMOOTH",
"294 780 OFFCURVE",
"244 823 OFFCURVE",
"160 823 CURVE SMOOTH",
"80 823 OFFCURVE",
"31 796 OFFCURVE",
"31 796 CURVE",
"31 700 LINE",
"31 700 OFFCURVE",
"79 713 OFFCURVE",
"112 713 CURVE SMOOTH",
"134 713 OFFCURVE",
"148 705 OFFCURVE",
"148 683 CURVE SMOOTH",
"148 630 OFFCURVE",
"24 533 OFFCURVE",
"24 533 CURVE"
);
}
);
width = 314;
}
);
unicode = 00B2;
},
{
glyphname = threesuperior;
lastChange = "2016-07-26 11:06:05 +0000";
layers = (
{
background = {
paths = (
{
closed = 1;
nodes = (
"-45 0 LINE",
"-45 -32 LINE",
"98 -32 LINE",
"695 778 LINE",
"695 810 LINE",
"553 810 LINE"
);
},
{
closed = 1;
nodes = (
"368 31 OFFCURVE",
"437 -18 OFFCURVE",
"544 -18 CURVE SMOOTH",
"649 -18 OFFCURVE",
"717 32 OFFCURVE",
"717 183 CURVE SMOOTH",
"717 333 OFFCURVE",
"649 384 OFFCURVE",
"544 384 CURVE SMOOTH",
"437 384 OFFCURVE",
"368 334 OFFCURVE",
"368 183 CURVE SMOOTH"
);
},
{
closed = 1;
nodes = (
"508 266 OFFCURVE",
"514 284 OFFCURVE",
"541 284 CURVE SMOOTH",
"570 284 OFFCURVE",
"575 266 OFFCURVE",
"575 186 CURVE SMOOTH",
"575 106 OFFCURVE",
"569 88 OFFCURVE",
"541 88 CURVE SMOOTH",
"514 88 OFFCURVE",
"508 100 OFFCURVE",
"508 186 CURVE SMOOTH"
);
},
{
closed = 1;
nodes = (
"-65 440 OFFCURVE",
"4 391 OFFCURVE",
"111 391 CURVE SMOOTH",
"216 391 OFFCURVE",
"284 441 OFFCURVE",
"284 592 CURVE SMOOTH",
"284 742 OFFCURVE",
"216 793 OFFCURVE",
"111 793 CURVE SMOOTH",
"4 793 OFFCURVE",
"-65 743 OFFCURVE",
"-65 592 CURVE SMOOTH"
);
},
{
closed = 1;
nodes = (
"75 675 OFFCURVE",
"81 693 OFFCURVE",
"108 693 CURVE SMOOTH",
"137 693 OFFCURVE",
"142 675 OFFCURVE",
"142 595 CURVE SMOOTH",
"142 515 OFFCURVE",
"137 497 OFFCURVE",
"108 497 CURVE SMOOTH",
"81 497 OFFCURVE",
"75 509 OFFCURVE",
"75 595 CURVE SMOOTH"
);
}
);
};
layerId = UUID0;
paths = (
{
closed = 1;
nodes = (
"54 591 LINE",
"112 591 OFFCURVE",
"120 580 OFFCURVE",
"120 561 CURVE SMOOTH",
"120 544 OFFCURVE",
"114 533 OFFCURVE",
"84 533 CURVE SMOOTH",
"46 533 OFFCURVE",
"18 539 OFFCURVE",
"18 539 CURVE",
"18 439 LINE",
"18 439 OFFCURVE",
"61 421 OFFCURVE",
"128 421 CURVE SMOOTH",
"203 421 OFFCURVE",
"262 462 OFFCURVE",
"262 534 CURVE SMOOTH",
"262 576 OFFCURVE",
"241 606 OFFCURVE",
"206 627 CURVE",
"239 653 OFFCURVE",
"254 685 OFFCURVE",
"254 722 CURVE SMOOTH",
"254 781 OFFCURVE",
"202 823 OFFCURVE",
"128 823 CURVE SMOOTH",
"64 823 OFFCURVE",
"21 802 OFFCURVE",
"21 802 CURVE",
"21 709 LINE",
"21 709 OFFCURVE",
"49 713 OFFCURVE",
"84 713 CURVE SMOOTH",
"114 713 OFFCURVE",
"119 703 OFFCURVE",
"119 690 CURVE SMOOTH",
"119 673 OFFCURVE",
"111 662 OFFCURVE",
"54 662 CURVE"
);
}
);
width = 264;
}
);
unicode = 00B3;
},
{
glyphname = onequarter;
lastChange = "2016-07-26 11:06:05 +0000";
layers = (
{
layerId = UUID0;
paths = (
{
closed = 1;
nodes = (
"63 32 LINE",
"63 0 LINE",
"206 0 LINE",
"670 746 LINE",
"670 778 LINE",
"528 778 LINE"
);
},
{
closed = 1;
nodes = (
"576 181 LINE",
"631 181 LINE",
"631 262 LINE",
"758 262 LINE",
"758 181 LINE",
"797 181 LINE",
"797 85 LINE",
"758 85 LINE",
"758 0 LINE",
"631 0 LINE",
"631 85 LINE",
"459 85 LINE",
"459 167 LINE",
"507 381 LINE",
"507 381 OFFCURVE",
"619 381 OFFCURVE",
"619 381 CURVE"
);
},
{
closed = 1;
nodes = (
"-3 673 LINE",
"54 673 LINE",
"54 503 LINE",
"7 503 LINE",
"7 396 LINE",
"236 396 LINE",
"236 503 LINE",
"195 503 LINE",
"195 778 LINE",
"87 778 LINE",
"-3 741 LINE"
);
}
);
width = 803;
}
);
unicode = 00BC;
},
{
glyphname = onehalf;
lastChange = "2016-07-26 11:06:05 +0000";
layers = (
{
layerId = UUID0;
paths = (
{
closed = 1;
nodes = (
"63 32 LINE",
"63 0 LINE",
"206 0 LINE",
"670 746 LINE",
"670 778 LINE",
"528 778 LINE"
);
},
{
closed = 1;
nodes = (
"492 0 LINE",
"772 0 LINE",
"772 104 LINE",
"653 104 LINE",
"719 160 OFFCURVE",
"762 221 OFFCURVE",
"762 286 CURVE SMOOTH",
"762 351 OFFCURVE",
"712 394 OFFCURVE",
"628 394 CURVE SMOOTH",
"548 394 OFFCURVE",
"499 367 OFFCURVE",
"499 367 CURVE",
"499 271 LINE",
"499 271 OFFCURVE",
"547 284 OFFCURVE",
"580 284 CURVE SMOOTH",
"602 284 OFFCURVE",
"616 276 OFFCURVE",
"616 254 CURVE SMOOTH",
"616 201 OFFCURVE",
"492 104 OFFCURVE",
"492 104 CURVE"
);
},
{
closed = 1;
nodes = (
"-3 673 LINE",
"54 673 LINE",
"54 503 LINE",
"7 503 LINE",
"7 396 LINE",
"236 396 LINE",
"236 503 LINE",
"195 503 LINE",
"195 778 LINE",
"87 778 LINE",
"-3 741 LINE"
);
}
);
width = 803;
}
);
unicode = 00BD;
},
{
glyphname = threequarters;
lastChange = "2016-07-26 11:06:05 +0000";
layers = (
{
layerId = UUID0;
paths = (
{
closed = 1;
nodes = (
"63 32 LINE",
"63 0 LINE",
"206 0 LINE",
"670 746 LINE",
"670 778 LINE",
"528 778 LINE"
);
},
{
closed = 1;
nodes = (
"576 181 LINE",
"631 181 LINE",
"631 262 LINE",
"758 262 LINE",
"758 181 LINE",
"797 181 LINE",
"797 85 LINE",
"758 85 LINE",
"758 0 LINE",
"631 0 LINE",
"631 85 LINE",
"459 85 LINE",
"459 167 LINE",
"507 381 LINE",
"507 381 OFFCURVE",
"619 381 OFFCURVE",
"619 381 CURVE"
);
},
{
closed = 1;
nodes = (
"40 560 LINE",
"98 560 OFFCURVE",
"106 549 OFFCURVE",
"106 530 CURVE SMOOTH",
"106 513 OFFCURVE",
"100 502 OFFCURVE",
"70 502 CURVE SMOOTH",
"32 502 OFFCURVE",
"4 508 OFFCURVE",
"4 508 CURVE",
"4 408 LINE",
"4 408 OFFCURVE",
"47 390 OFFCURVE",
"114 390 CURVE SMOOTH",
"189 390 OFFCURVE",
"248 431 OFFCURVE",
"248 503 CURVE SMOOTH",
"248 545 OFFCURVE",
"227 575 OFFCURVE",
"192 596 CURVE",
"225 622 OFFCURVE",
"240 654 OFFCURVE",
"240 691 CURVE SMOOTH",
"240 750 OFFCURVE",
"188 792 OFFCURVE",
"114 792 CURVE SMOOTH",
"50 792 OFFCURVE",
"7 771 OFFCURVE",
"7 771 CURVE",
"7 678 LINE",
"7 678 OFFCURVE",
"35 682 OFFCURVE",
"70 682 CURVE SMOOTH",
"100 682 OFFCURVE",
"105 672 OFFCURVE",
"105 659 CURVE SMOOTH",
"105 642 OFFCURVE",
"97 631 OFFCURVE",
"40 631 CURVE"
);
}
);
width = 803;
}
);
unicode = 00BE;
},
{
glyphname = guilsinglleft;
lastChange = "2016-07-26 11:06:05 +0000";
layers = (
{
layerId = UUID0;
paths = (
{
closed = 1;
nodes = (
"289 492 LINE",
"158 492 LINE",
"42 300 LINE",
"42 253 LINE",
"158 61 LINE",
"289 61 LINE",
"210 269 LINE",
"210 284 LINE"
);
}
);
width = 299;
}
);
unicode = 2039;
},
{
glyphname = guilsinglright;
lastChange = "2016-07-26 11:06:05 +0000";
layers = (
{
layerId = UUID0;
paths = (
{
closed = 1;
nodes = (
"89 284 LINE",
"89 269 LINE",
"10 61 LINE",
"141 61 LINE",
"257 253 LINE",
"257 300 LINE",
"141 492 LINE",
"10 492 LINE"
);
}
);
width = 299;
}
);
unicode = 203A;
},
{
glyphname = guillemotleft;
lastChange = "2016-07-26 11:06:05 +0000";
layers = (
{
layerId = UUID0;
paths = (
{
closed = 1;
nodes = (
"289 492 LINE",
"158 492 LINE",
"42 300 LINE",
"42 253 LINE",
"158 61 LINE",
"289 61 LINE",
"210 269 LINE",
"210 284 LINE"
);
},
{
closed = 1;
nodes = (
"510 492 LINE",
"379 492 LINE",
"263 300 LINE",
"263 253 LINE",
"379 61 LINE",
"510 61 LINE",
"431 269 LINE",
"431 284 LINE"
);
}
);
width = 520;
}
);
unicode = 00AB;
},
{
glyphname = guillemotright;
lastChange = "2016-07-26 11:06:05 +0000";
layers = (
{
layerId = UUID0;
paths = (
{
closed = 1;
nodes = (
"310 284 LINE",
"310 269 LINE",
"231 61 LINE",
"362 61 LINE",
"478 253 LINE",
"478 300 LINE",
"362 492 LINE",
"231 492 LINE"
);
},
{
closed = 1;
nodes = (
"89 284 LINE",
"89 269 LINE",
"10 61 LINE",
"141 61 LINE",
"257 253 LINE",
"257 300 LINE",
"141 492 LINE",
"10 492 LINE"
);
}
);
width = 520;
}
);
unicode = 00BB;
},
{
glyphname = A;
lastChange = "2016-07-26 11:06:05 +0000";
layers = (
{
anchors = (
{
name = top_cap;
position = "{405, 811}";
}
);
background = {
paths = (
{
closed = 1;
nodes = (
"317 778 LINE",
"488 164 LINE",
"780 164 LINE",
"581 778 LINE"
);
},
{
closed = 1;
nodes = (
"237 778 LINE",
"38 164 LINE",
"280 164 LINE",
"451 778 LINE"
);
},
{
closed = 1;
nodes = (
"-2 0 LINE",
"360 0 LINE",
"360 164 LINE",
"-2 164 LINE"
);
},
{
closed = 1;
nodes = (
"408 0 LINE",
"820 0 LINE",
"820 164 LINE",
"408 164 LINE"
);
},
{
closed = 1;
nodes = (
"285 244 LINE",
"491 244 LINE",
"491 370 LINE",
"285 370 LINE"
);
}
);
};
hints = (
{
place = "{13, 21}";
},
{
place = "{13, 21}";
}
);
layerId = UUID0;
paths = (
{
closed = 1;
nodes = (
"18 0 LINE",
"360 0 LINE",
"360 164 LINE",
"18 164 LINE"
);
},
{
closed = 1;
nodes = (
"408 0 LINE",
"800 0 LINE",
"800 164 LINE",
"408 164 LINE"
);
},
{
closed = 1;
nodes = (
"285 244 LINE",
"491 244 LINE",
"491 350 LINE",
"285 350 LINE"
);
},
{
closed = 1;
nodes = (
"227 778 LINE",
"58 164 LINE",
"300 164 LINE",
"379 549 LINE",
"389 549 LINE",
"468 164 LINE",
"760 164 LINE",
"591 778 LINE"
);
}
);
width = 806;
}
);
unicode = 0041;
},
{
glyphname = ae;
lastChange = "2016-07-26 11:06:05 +0000";
layers = (
{
background = {
paths = (
{
closed = 1;
nodes = (
"-178 576 OFFCURVE",
"-265 488 OFFCURVE",
"-265 488 CURVE",
"-265 352 LINE",
"-80 352 LINE",
"-80 364 LINE SMOOTH",
"-80 376 OFFCURVE",
"-63 399 OFFCURVE",
"-14 399 CURVE SMOOTH",
"29 399 OFFCURVE",
"50 381 OFFCURVE",
"56 329 CURVE",
"-182 329 OFFCURVE",
"-290 283 OFFCURVE",
"-290 143 CURVE SMOOTH",
"-290 43 OFFCURVE",
"-203 -18 OFFCURVE",
"-76 -18 CURVE SMOOTH",
"20 -18 OFFCURVE",
"84 14 OFFCURVE",
"119 46 CURVE",
"168 0 OFFCURVE",
"236 -24 OFFCURVE",
"319 -24 CURVE SMOOTH",
"418 -24 OFFCURVE",
"528 12 OFFCURVE",
"594 68 CURVE",
"594 231 LINE",
"417 231 LINE",
"417 192 OFFCURVE",
"407 154 OFFCURVE",
"352 154 CURVE SMOOTH",
"299 154 OFFCURVE",
"275 171 OFFCURVE",
"273 262 CURVE",
"594 262 LINE",
"594 306 LINE SMOOTH",
"594 468 OFFCURVE",
"496 570 OFFCURVE",
"329 570 CURVE SMOOTH",
"275 570 OFFCURVE",
"217 554 OFFCURVE",
"176 520 CURVE",
"134 561 OFFCURVE",
"77 576 OFFCURVE",
"7 576 CURVE SMOOTH"
);
},
{
closed = 1;
nodes = (
"58 216 LINE",
"56 188 OFFCURVE",
"44 156 OFFCURVE",
"-4 156 CURVE SMOOTH",
"-30 156 OFFCURVE",
"-57 162 OFFCURVE",
"-57 191 CURVE SMOOTH",
"-57 226 OFFCURVE",
"-13 234 OFFCURVE",
"58 234 CURVE"
);
},
{
closed = 1;
nodes = (
"364 399 OFFCURVE",
"374 371 OFFCURVE",
"377 334 CURVE",
"275 334 LINE",
"282 388 OFFCURVE",
"300 399 OFFCURVE",
"328 399 CURVE SMOOTH"
);
}
);
};
layerId = UUID0;
paths = (
{
closed = 1;
nodes = (
"598 164 LINE",
"598 328 LINE SMOOTH",
"598 471 OFFCURVE",
"509 570 OFFCURVE",
"321 570 CURVE SMOOTH",
"162 570 OFFCURVE",
"44 535 OFFCURVE",
"44 535 CURVE",
"44 363 LINE",
"110 378 OFFCURVE",
"197 392 OFFCURVE",
"276 392 CURVE SMOOTH",
"351 392 OFFCURVE",
"368 372 OFFCURVE",
"368 334 CURVE",
"119 334 OFFCURVE",
"8 266 OFFCURVE",
"8 142 CURVE SMOOTH",
"8 41 OFFCURVE",
"79 -14 OFFCURVE",
"193 -14 CURVE SMOOTH",
"312 -14 OFFCURVE",
"395 47 OFFCURVE",
"430 89 CURVE"
);
},
{
closed = 1;
nodes = (
"368 228 LINE SMOOTH",
"368 185 OFFCURVE",
"346 164 OFFCURVE",
"307 164 CURVE SMOOTH",
"269 164 OFFCURVE",
"252 173 OFFCURVE",
"252 196 CURVE SMOOTH",
"252 228 OFFCURVE",
"297 234 OFFCURVE",
"368 234 CURVE"
);
},
{
closed = 1;
nodes = (
"668 570 LINE SMOOTH",
"507 570 OFFCURVE",
"376 473 OFFCURVE",
"376 278 CURVE SMOOTH",
"376 83 OFFCURVE",
"489 -14 OFFCURVE",
"668 -14 CURVE SMOOTH",
"827 -14 OFFCURVE",
"917 36 OFFCURVE",
"917 36 CURVE",
"917 196 LINE",
"869 180 OFFCURVE",
"793 164 OFFCURVE",
"705 164 CURVE SMOOTH",
"635 164 OFFCURVE",
"610 188 OFFCURVE",
"610 236 CURVE SMOOTH",
"610 242 LINE",
"934 242 LINE",
"934 314 LINE SMOOTH",
"934 440 OFFCURVE",
"873 570 OFFCURVE",
"668 570 CURVE SMOOTH"
);
},
{
closed = 1;
nodes = (
"668 392 LINE SMOOTH",
"706 392 OFFCURVE",
"726 373 OFFCURVE",
"726 328 CURVE SMOOTH",
"726 322 LINE",
"610 322 LINE",
"610 328 LINE SMOOTH",
"610 373 OFFCURVE",
"630 392 OFFCURVE",
"668 392 CURVE SMOOTH"
);
}
);
width = 946;
}
);
unicode = 00E6;
},
{
glyphname = AE;
lastChange = "2016-07-26 11:06:05 +0000";
layers = (
{
background = {
paths = (
{
closed = 1;
nodes = (
"427 452 LINE",
"671 452 LINE",
"671 778 LINE",
"27 778 LINE",
"-199 778 LINE",
"-372 176 LINE",
"-421 176 LINE",
"-421 0 LINE",
"-20 0 LINE",
"-20 176 LINE",
"-81 176 LINE",
"-81 176 OFFCURVE",
"-73 212 OFFCURVE",
"-62 264 CURVE",
"27 264 LINE",
"27 0 LINE",
"671 0 LINE",
"671 349 LINE",
"427 349 LINE",
"427 176 LINE",
"316 176 LINE",
"316 334 LINE",
"404 334 LINE",
"404 468 LINE",
"316 468 LINE",
"316 611 LINE",
"427 611 LINE"
);
},
{
closed = 1;
nodes = (
"9 591 LINE",
"27 591 LINE",
"27 390 LINE",
"-35 390 LINE"
);
}
);
};
hints = (
{
place = "{-408, 21}";
},
{
place = "{-408, 21}";
}
);
layerId = UUID0;
paths = (
{
closed = 1;
nodes = (
"-2 0 LINE",
"375 0 LINE",
"375 164 LINE",
"-2 164 LINE"
);
},
{
closed = 1;
nodes = (
"331 244 LINE",
"612 244 LINE",
"612 360 LINE",
"355 360 LINE"
);
},
{
closed = 1;
nodes = (
"297 778 LINE",
"38 164 LINE",
"315 164 LINE",
"471 591 LINE",
"481 591 LINE",
"481 778 LINE"
);
},
{
closed = 1;
nodes = (
"882 476 LINE",
"1106 476 LINE",
"1106 778 LINE",
"481 778 LINE",
"481 164 LINE",
"431 164 LINE",
"431 0 LINE",
"1106 0 LINE",
"1106 322 LINE",
"882 322 LINE",
"882 164 LINE",
"761 164 LINE",
"761 342 LINE",
"849 342 LINE",
"849 456 LINE",
"761 456 LINE",
"761 614 LINE",
"882 614 LINE"
);
}
);
width = 1126;
}
);
unicode = 00C6;
},
{
glyphname = OE;
lastChange = "2016-07-26 11:06:05 +0000";
layers = (
{
layerId = UUID0;
paths = (
{
closed = 1;
nodes = (
"402 164 LINE",
"357 164 OFFCURVE",
"334 186 OFFCURVE",
"334 238 CURVE SMOOTH",
"334 540 LINE SMOOTH",
"334 592 OFFCURVE",
"357 614 OFFCURVE",
"402 614 CURVE SMOOTH",
"447 614 OFFCURVE",
"470 592 OFFCURVE",
"470 540 CURVE SMOOTH",
"470 238 LINE SMOOTH",
"470 186 OFFCURVE",
"447 164 OFFCURVE",
"402 164 CURVE SMOOTH"
);
},
{
closed = 1;
nodes = (
"646 383 LINE SMOOTH",
"646 579 OFFCURVE",
"717 699 OFFCURVE",
"603 753 CURVE SMOOTH",
"547 780 OFFCURVE",
"479 792 OFFCURVE",
"402 792 CURVE SMOOTH",
"169 792 OFFCURVE",
"20 681 OFFCURVE",
"20 389 CURVE SMOOTH",
"20 97 OFFCURVE",
"169 -14 OFFCURVE",
"402 -14 CURVE SMOOTH",
"479 -14 OFFCURVE",
"548 -2 OFFCURVE",
"604 25 CURVE SMOOTH",
"718 79 OFFCURVE",
"646 188 OFFCURVE",
"646 383 CURVE SMOOTH"
);
},
{
closed = 1;
nodes = (
"871 476 LINE",
"1095 476 LINE",
"1095 778 LINE",
"470 778 LINE",
"470 0 LINE",
"1095 0 LINE",
"1095 322 LINE",
"871 322 LINE",
"871 164 LINE",
"750 164 LINE",
"750 342 LINE",
"838 342 LINE",
"838 456 LINE",
"750 456 LINE",
"750 614 LINE",
"871 614 LINE"
);
}
);
width = 1115;
}
);
unicode = 0152;
},
{
glyphname = Eth;
lastChange = "2016-07-26 11:06:05 +0000";
layers = (
{
layerId = UUID0;
paths = (
{
closed = 1;
nodes = (
"28 613 LINE",
"88 613 LINE",
"88 164 LINE",
"28 164 LINE",
"28 0 LINE",
"444 0 LINE SMOOTH",
"649 0 OFFCURVE",
"808 97 OFFCURVE",
"808 389 CURVE SMOOTH",
"808 681 OFFCURVE",
"649 778 OFFCURVE",
"444 778 CURVE SMOOTH",
"28 778 LINE"
);
},
{
closed = 1;
nodes = (
"368 164 LINE",
"368 614 LINE",
"426 614 LINE SMOOTH",
"469 614 OFFCURVE",
"494 592 OFFCURVE",
"494 540 CURVE SMOOTH",
"494 238 LINE SMOOTH",
"494 186 OFFCURVE",
"471 164 OFFCURVE",
"426 164 CURVE SMOOTH"
);
},
{
closed = 1;
nodes = (
"429 311 LINE",
"429 475 LINE",
"17 475 LINE",
"17 311 LINE"
);
}
);
width = 826;
}
);
unicode = 00D0;
},
{
glyphname = IJ;
lastChange = "2016-07-26 11:06:05 +0000";
layers = (
{
components = (
{
name = I;
}
);
layerId = UUID0;
paths = (
{
closed = 1;
nodes = (
"530 164 LINE SMOOTH",
"566 164 OFFCURVE",
"592 193 OFFCURVE",
"592 258 CURVE SMOOTH",
"592 614 LINE",
"491 614 LINE",
"491 778 LINE",
"932 778 LINE",
"932 614 LINE",
"872 614 LINE",
"872 278 LINE SMOOTH",
"872 68 OFFCURVE",
"739 -14 OFFCURVE",
"584 -14 CURVE SMOOTH",
"494 -14 OFFCURVE",
"446 7 OFFCURVE",
"446 7 CURVE",
"446 175 LINE",
"446 175 OFFCURVE",
"489 164 OFFCURVE",
"530 164 CURVE SMOOTH"
);
}
);
width = 934;
}
);
unicode = 0132;
},
{
glyphname = oslash;
lastChange = "2016-07-26 11:06:05 +0000";
layers = (
{
components = (
{
name = o;
}
);
layerId = UUID0;
paths = (
{
closed = 1;
nodes = (
"218 -95 LINE",
"218 -121 LINE",
"275 -121 LINE",
"403 648 LINE",
"403 674 LINE",
"346 674 LINE"
);
}
);
width = 620;
}
);
unicode = 00F8;
},
{
glyphname = Oslash;
lastChange = "2016-07-26 11:06:05 +0000";
layers = (
{
components = (
{
name = O;
}
);
layerId = UUID0;
paths = (
{
closed = 1;
nodes = (
"282 -82 LINE",
"282 -114 LINE",
"353 -114 LINE",
"513 847 LINE",
"513 879 LINE",
"442 879 LINE"
);
}
);
width = 798;
}
);
unicode = 00D8;
},
{
glyphname = dotaccentcmb;
lastChange = "2016-07-26 11:06:05 +0000";
layers = (
{
anchors = (
{
name = _top;
position = "{158, 614}";
}
);
layerId = UUID0;
paths = (
{
closed = 1;
nodes = (
"67 611 LINE",
"251 611 LINE",
"251 778 LINE",
"67 778 LINE"
);
}
);
width = 334;
}
);
unicode = 0307;
},
{
glyphname = dotlessj;
lastChange = "2016-07-26 11:06:05 +0000";
layers = (
{
anchors = (
{
name = top;
position = "{171, 614}";
}
);
layerId = UUID0;
paths = (
{
closed = 1;
nodes = (
"4 392 LINE",
"71 392 LINE",
"71 14 LINE SMOOTH",
"71 -36 OFFCURVE",
"47 -58 OFFCURVE",
"4 -58 CURVE SMOOTH",
"-38 -58 OFFCURVE",
"-90 -51 OFFCURVE",
"-90 -51 CURVE",
"-90 -214 LINE",
"-90 -214 OFFCURVE",
"-15 -236 OFFCURVE",
"68 -236 CURVE SMOOTH",
"224 -236 OFFCURVE",
"301 -149 OFFCURVE",
"301 34 CURVE SMOOTH",
"301 556 LINE",
"4 556 LINE"
);
}
);
width = 327;
}
);
unicode = 0237;
},
{
glyphname = dotlessi;
lastChange = "2016-07-26 11:06:05 +0000";
layers = (
{
anchors = (
{
name = top;
position = "{165, 614}";
}
);
layerId = UUID0;
paths = (
{
closed = 1;
nodes = (
"292 556 LINE",
"18 556 LINE",
"18 392 LINE",
"62 392 LINE",
"62 164 LINE",
"18 164 LINE",
"18 0 LINE",
"336 0 LINE",
"336 164 LINE",
"292 164 LINE"
);
}
);
width = 346;
}
);
unicode = 0131;
},
{
glyphname = lslash;
lastChange = "2016-07-26 11:06:05 +0000";
layers = (
{
components = (
{
name = l;
transform = "{1, 0, 0, 1, 18, 0}";
}
);
layerId = UUID0;
paths = (
{
closed = 1;
nodes = (
"418 472 LINE",
"418 593 LINE",
"-35 363 LINE",
"-35 242 LINE"
);
}
);
width = 372;
}
);
unicode = 0142;
},
{
glyphname = hbar;
lastChange = "2016-07-26 11:06:05 +0000";
layers = (
{
layerId = UUID0;
paths = (
{
closed = 1;
nodes = (
"453 614 LINE",
"453 693 LINE",
"-32 693 LINE",
"-32 614 LINE"
);
},
{
closed = 1;
nodes = (
"364 0 LINE",
"682 0 LINE",
"682 164 LINE",
"638 164 LINE",
"638 328 LINE SMOOTH",
"638 495 OFFCURVE",
"570 570 OFFCURVE",
"461 570 CURVE SMOOTH",
"371 570 OFFCURVE",
"324 520 OFFCURVE",
"292 488 CURVE",
"292 778 LINE",
"18 778 LINE",
"18 614 LINE",
"62 614 LINE",
"62 164 LINE",
"18 164 LINE",
"18 0 LINE",
"336 0 LINE",
"336 164 LINE",
"292 164 LINE",
"292 328 LINE SMOOTH",
"292 373 OFFCURVE",
"312 392 OFFCURVE",
"350 392 CURVE SMOOTH",
"388 392 OFFCURVE",
"408 373 OFFCURVE",
"408 328 CURVE SMOOTH",
"408 164 LINE",
"364 164 LINE"
);
}
);
width = 692;
}
);
unicode = 0127;
},
{
glyphname = commaaccent;
lastChange = "2016-07-26 11:06:05 +0000";
layers = (
{
anchors = (
{
name = _bottom;
position = "{157, 0}";
}
);
layerId = UUID0;
paths = (
{
closed = 1;
nodes = (
"75 -220 LINE",
"116 -220 LINE",
"84 -333 LINE",
"170 -333 LINE",
"225 -220 LINE",
"225 -78 LINE",
"75 -78 LINE"
);
}
);
width = 300;
}
);
unicode = F6C3;
},
{
glyphname = Lslash;
lastChange = "2016-07-26 11:06:05 +0000";
layers = (
{
components = (
{
name = L;
}
);
layerId = UUID0;
paths = (
{
closed = 1;
nodes = (
"591 452 LINE",
"591 573 LINE",
"-12 343 LINE",
"-12 222 LINE"
);
}
);
width = 671;
}
);
unicode = 0141;
},
{
glyphname = Ldotaccent;
lastChange = "2016-07-26 11:06:05 +0000";
layers = (
{
background = {
paths = (
{
closed = 1;
nodes = (
"5 614 LINE",
"65 614 LINE",
"65 164 LINE",
"5 164 LINE",
"5 0 LINE",
"405 0 LINE",
"405 164 LINE",
"345 164 LINE",
"345 614 LINE",
"405 614 LINE",
"405 778 LINE",
"5 778 LINE"
);
}
);
};
components = (
{
name = periodcentered;
transform = "{1, 0, 0, 1, 456, 0}";
}
);
layerId = UUID0;
paths = (
{
closed = 1;
nodes = (
"5 614 LINE",
"65 614 LINE",
"65 164 LINE",
"5 164 LINE",
"5 0 LINE",
"634 0 LINE",
"634 256 LINE",
"435 256 LINE",
"435 164 LINE",
"345 164 LINE",
"345 614 LINE",
"437 614 LINE",
"437 778 LINE",
"5 778 LINE"
);
}
);
width = 644;
}
);
unicode = 013F;
},
{
glyphname = kgreenlandic;
lastChange = "2016-07-26 11:06:05 +0000";
layers = (
{
layerId = UUID0;
paths = (
{
closed = 1;
nodes = (
"62 0 LINE",
"292 0 LINE",
"292 556 LINE",
"62 556 LINE"
);
},
{
closed = 1;
nodes = (
"18 392 LINE",
"253 392 LINE",
"253 556 LINE",
"18 556 LINE"
);
},
{
closed = 1;
nodes = (
"18 0 LINE",
"268 0 LINE",
"268 164 LINE",
"18 164 LINE"
);
},
{
closed = 1;
nodes = (
"651 392 LINE",
"651 556 LINE",
"440 556 LINE",
"316 372 LINE",
"292 372 LINE",
"292 192 LINE",
"316 192 LINE",
"419 0 LINE",
"664 0 LINE",
"664 164 LINE",
"621 164 LINE",
"525 297 LINE",
"610 392 LINE"
);
}
);
width = 674;
}
);
unicode = 0138;
},
{
glyphname = Euro;
lastChange = "2016-07-26 11:06:05 +0000";
layers = (
{
anchors = (
{
name = bottom;
position = "{437, -1}";
}
);
background = {
paths = (
{
closed = 1;
nodes = (
"515 238 LINE",
"515 186 OFFCURVE",
"492 164 OFFCURVE",
"447 164 CURVE SMOOTH",
"402 164 OFFCURVE",
"379 186 OFFCURVE",
"379 238 CURVE SMOOTH",
"379 540 LINE SMOOTH",
"379 592 OFFCURVE",
"402 614 OFFCURVE",
"447 614 CURVE SMOOTH",
"492 614 OFFCURVE",
"515 592 OFFCURVE",
"515 540 CURVE",
"755 540 LINE",
"755 718 LINE",
"755 718 OFFCURVE",
"643 792 OFFCURVE",
"447 792 CURVE SMOOTH",
"214 792 OFFCURVE",
"65 681 OFFCURVE",
"65 389 CURVE SMOOTH",
"65 97 OFFCURVE",
"214 -14 OFFCURVE",
"449 -14 CURVE SMOOTH",
"643 -14 OFFCURVE",
"755 60 OFFCURVE",
"755 60 CURVE",
"755 238 LINE"
);
}
);
};
layerId = UUID0;
paths = (
{
closed = 1;
nodes = (
"654 431 LINE",
"668 510 LINE",
"12 510 LINE",
"12 431 LINE"
);
},
{
closed = 1;
nodes = (
"627 276 LINE",
"641 355 LINE",
"12 355 LINE",
"12 276 LINE"
);
},
{
closed = 1;
nodes = (
"527 614 LINE SMOOTH",
"601 614 OFFCURVE",
"682 589 OFFCURVE",
"682 589 CURVE",
"709 742 LINE",
"709 742 OFFCURVE",
"614 792 OFFCURVE",
"470 792 CURVE SMOOTH",
"228 792 OFFCURVE",
"75 681 OFFCURVE",
"75 389 CURVE SMOOTH",
"75 97 OFFCURVE",
"220 -14 OFFCURVE",
"449 -14 CURVE SMOOTH",
"596 -14 OFFCURVE",
"689 46 OFFCURVE",
"689 46 CURVE",
"689 199 LINE",
"689 199 OFFCURVE",
"585 164 OFFCURVE",
"527 164 CURVE SMOOTH",
"430 164 OFFCURVE",
"389 215 OFFCURVE",
"389 320 CURVE SMOOTH",
"389 466 LINE SMOOTH",
"389 565 OFFCURVE",
"432 614 OFFCURVE",
"527 614 CURVE SMOOTH"
);
}
);
width = 723;
}
);
unicode = 20AC;
},
{
glyphname = acute.cap;
lastChange = "2016-07-26 11:06:05 +0000";
layers = (
{
anchors = (
{
name = _top_cap;
position = "{91, 811}";
}
);
background = {
paths = (
{
closed = 1;
nodes = (
"256 676 LINE",
"256 700 LINE",
"63 700 LINE",
"-35 563 LINE",
"-35 550 LINE",
"13 550 OFFCURVE",
"61 550 OFFCURVE",
"109 550 CURVE"
);
}
);
};
layerId = UUID0;
paths = (
{
closed = 1;
nodes = (
"343 926 LINE",
"343 952 LINE",
"92 952 LINE",
"-17 856 LINE",
"-17 841 LINE",
"180 841 LINE"
);
}
);
width = 296;
}
);
},
{
glyphname = grave.cap;
lastChange = "2016-07-26 11:06:05 +0000";
layers = (
{
anchors = (
{
name = _top_cap;
position = "{186, 811}";
}
);
background = {
paths = (
{
closed = 1;
nodes = (
"121 611 LINE",
"174 611 OFFCURVE",
"228 611 OFFCURVE",
"281 611 CURVE",
"281 626 LINE",
"172 778 LINE",
"-42 778 LINE",
"-42 751 LINE"
);
}
);
};
layerId = UUID0;
paths = (
{
closed = 1;
nodes = (
"108 841 LINE",
"305 841 LINE",
"305 856 LINE",
"196 952 LINE",
"-55 952 LINE",
"-55 926 LINE"
);
}
);
width = 267;
}
);
},
{
glyphname = dieresis.cap;
lastChange = "2016-07-26 11:06:05 +0000";
layers = (
{
anchors = (
{
name = _top_cap;
position = "{226, 811}";
}
);
layerId = UUID0;
paths = (
{
closed = 1;
nodes = (
"-6 841 LINE",
"181 841 LINE",
"181 952 LINE",
"-6 952 LINE"
);
},
{
closed = 1;
nodes = (
"280 841 LINE",
"466 841 LINE",
"466 952 LINE",
"280 952 LINE"
);
}
);
width = 470;
}
);
},
{
glyphname = circumflex.cap;
lastChange = "2016-07-26 11:06:05 +0000";
layers = (
{
anchors = (
{
name = _top_cap;
position = "{210, 811}";
}
);
layerId = UUID0;
paths = (
{
closed = 1;
nodes = (
"306 841 LINE",
"474 841 LINE",
"474 856 LINE",
"347 952 LINE",
"84 952 LINE",
"-43 856 LINE",
"-43 841 LINE",
"125 841 LINE",
"204 898 LINE",
"227 898 LINE"
);
}
);
width = 431;
}
);
},
{
glyphname = tilde.cap;
lastChange = "2016-07-26 11:06:05 +0000";
layers = (
{
anchors = (
{
name = _top_cap;
position = "{245, 811}";
}
);
background = {
paths = (
{
closed = 1;
nodes = (
"35 825 LINE",
"35 839 OFFCURVE",
"50 862 OFFCURVE",
"105 862 CURVE SMOOTH",
"216 862 OFFCURVE",
"263 804 OFFCURVE",
"375 804 CURVE SMOOTH",
"511 804 OFFCURVE",
"520 895 OFFCURVE",
"520 956 CURVE",
"464 956 LINE",
"464 939 OFFCURVE",
"453 920 OFFCURVE",
"399 920 CURVE SMOOTH",
"292 920 OFFCURVE",
"247 977 OFFCURVE",
"134 977 CURVE SMOOTH",
"-4 977 OFFCURVE",
"-18 882 OFFCURVE",
"-18 825 CURVE"
);
}
);
};
layerId = UUID0;
paths = (
{
closed = 1;
nodes = (
"50 836 LINE",
"50 851 OFFCURVE",
"69 873 OFFCURVE",
"114 873 CURVE SMOOTH",
"196 873 OFFCURVE",
"289 835 OFFCURVE",
"379 835 CURVE SMOOTH",
"479 835 OFFCURVE",
"502 892 OFFCURVE",
"502 1006 CURVE",
"446 1006 LINE",
"446 991 OFFCURVE",
"433 971 OFFCURVE",
"387 971 CURVE SMOOTH",
"307 971 OFFCURVE",
"228 1007 OFFCURVE",
"127 1007 CURVE SMOOTH",
"24 1007 OFFCURVE",
"-3 953 OFFCURVE",
"-3 836 CURVE"
);
}
);
width = 497;
}
);
},
{
glyphname = caron.cap;
lastChange = "2016-07-26 11:06:05 +0000";
layers = (
{
anchors = (
{
name = _top_cap;
position = "{215, 811}";
}
);
layerId = UUID0;
paths = (
{
closed = 1;
nodes = (
"227 895 LINE",
"204 895 LINE",
"125 952 LINE",
"-43 952 LINE",
"-43 937 LINE",
"84 841 LINE",
"347 841 LINE",
"474 937 LINE",
"474 952 LINE",
"306 952 LINE"
);
}
);
width = 431;
}
);
},
{
glyphname = ring.cap;
lastChange = "2016-07-26 11:06:05 +0000";
layers = (
{
anchors = (
{
name = _top_cap;
position = "{93, 811}";
}
);
background = {
paths = (
{
closed = 1;
nodes = (
"-55 843 OFFCURVE",
"11 811 OFFCURVE",
"97 811 CURVE SMOOTH",
"179 811 OFFCURVE",
"249 843 OFFCURVE",
"249 928 CURVE SMOOTH",
"249 1013 OFFCURVE",
"179 1045 OFFCURVE",
"97 1045 CURVE SMOOTH",
"11 1045 OFFCURVE",
"-55 1013 OFFCURVE",
"-55 928 CURVE SMOOTH"
);
},
{
closed = 1;
nodes = (
"37 954 OFFCURVE",
"62 962 OFFCURVE",
"97 962 CURVE SMOOTH",
"128 962 OFFCURVE",
"156 954 OFFCURVE",
"156 928 CURVE SMOOTH",
"156 902 OFFCURVE",
"128 893 OFFCURVE",
"97 893 CURVE SMOOTH",
"62 893 OFFCURVE",
"37 902 OFFCURVE",
"37 928 CURVE SMOOTH"
);
}
);
};
layerId = UUID0;
paths = (
{
closed = 1;
nodes = (
"-22 914 LINE SMOOTH",
"-22 846 OFFCURVE",
"32 792 OFFCURVE",
"100 792 CURVE SMOOTH",
"167 792 OFFCURVE",
"222 846 OFFCURVE",
"222 914 CURVE SMOOTH",
"222 981 OFFCURVE",
"167 1036 OFFCURVE",
"100 1036 CURVE SMOOTH",
"32 1036 OFFCURVE",
"-22 981 OFFCURVE",
"-22 914 CURVE SMOOTH"
);
},
{
closed = 1;
nodes = (
"60 914 LINE SMOOTH",
"60 935 OFFCURVE",
"77 953 OFFCURVE",
"100 953 CURVE SMOOTH",
"121 953 OFFCURVE",
"139 935 OFFCURVE",
"139 914 CURVE SMOOTH",
"139 891 OFFCURVE",
"121 874 OFFCURVE",
"100 874 CURVE SMOOTH",
"77 874 OFFCURVE",
"60 891 OFFCURVE",
"60 914 CURVE SMOOTH"
);
}
);
width = 186;
}
);
},
{
glyphname = dotaccentcmb.cap;
lastChange = "2016-07-26 11:06:05 +0000";
layers = (
{
anchors = (
{
name = _top_cap;
position = "{158, 811}";
}
);
layerId = UUID0;
paths = (
{
closed = 1;
nodes = (
"67 832 LINE",
"251 832 LINE",
"251 959 LINE",
"67 959 LINE"
);
}
);
width = 334;
}
);
},
{
glyphname = uni00AD;
lastChange = "2016-07-26 11:06:05 +0000";
layers = (
{
layerId = UUID0;
paths = (
{
closed = 1;
nodes = (
"313 206 LINE",
"313 370 LINE",
"22 370 LINE",
"22 206 LINE"
);
}
);
width = 336;
}
);
unicode = 00AD;
},
{
glyphname = dollar;
lastChange = "2016-07-26 11:06:05 +0000";
layers = (
{
layerId = UUID0;
paths = (
{
closed = 1;
nodes = (
"410 -132 LINE",
"410 -11 LINE",
"581 5 OFFCURVE",
"674 90 OFFCURVE",
"674 243 CURVE SMOOTH",
"674 415 OFFCURVE",
"545 468 OFFCURVE",
"390 518 CURVE SMOOTH",
"349 531 OFFCURVE",
"328 538 OFFCURVE",
"328 561 CURVE SMOOTH",
"328 589 OFFCURVE",
"346 599 OFFCURVE",
"390 599 CURVE SMOOTH",
"421 599 OFFCURVE",
"445 587 OFFCURVE",
"445 549 CURVE",
"655 549 LINE",
"655 728 LINE",
"655 728 OFFCURVE",
"572 781 OFFCURVE",
"410 790 CURVE",
"410 903 LINE",
"279 903 LINE",
"279 788 LINE",
"88 769 OFFCURVE",
"22 682 OFFCURVE",
"22 551 CURVE SMOOTH",
"22 395 OFFCURVE",
"118 342 OFFCURVE",
"316 268 CURVE SMOOTH",
"363 251 OFFCURVE",
"374 237 OFFCURVE",
"374 219 CURVE SMOOTH",
"374 193 OFFCURVE",
"357 179 OFFCURVE",
"313 179 CURVE SMOOTH",
"263 179 OFFCURVE",
"251 198 OFFCURVE",
"251 238 CURVE",
"31 238 LINE",
"31 40 LINE",
"31 40 OFFCURVE",
"125 -2 OFFCURVE",
"279 -12 CURVE",
"279 -132 LINE"
);
}
);
width = 686;
}
);
unicode = 0024;
},
{
glyphname = divide;
lastChange = "2016-07-26 11:06:05 +0000";
layers = (
{
layerId = UUID0;
paths = (
{
closed = 1;
nodes = (
"179 456 LINE",
"335 456 LINE",
"335 608 LINE",
"179 608 LINE"
);
},
{
closed = 1;
nodes = (
"179 52 LINE",
"335 52 LINE",
"335 204 LINE",
"179 204 LINE"
);
},
{
closed = 1;
nodes = (
"481 260 LINE",
"481 404 LINE",
"40 404 LINE",
"40 260 LINE"
);
}
);
width = 521;
}
);
unicode = 00F7;
},
{
glyphname = logicalnot;
lastChange = "2016-07-26 11:06:05 +0000";
layers = (
{
layerId = UUID0;
paths = (
{
closed = 1;
nodes = (
"501 282 LINE",
"501 426 LINE",
"40 426 LINE",
"40 282 LINE"
);
},
{
closed = 1;
nodes = (
"501 124 LINE",
"501 426 LINE",
"340 426 LINE",
"340 124 LINE"
);
}
);
width = 547;
}
);
unicode = 00AC;
},
{
glyphname = degree;
lastChange = "2016-07-26 11:06:05 +0000";
layers = (
{
layerId = UUID0;
paths = (
{
closed = 1;
nodes = (
"4 674 LINE SMOOTH",
"4 608 OFFCURVE",
"56 556 OFFCURVE",
"122 556 CURVE SMOOTH",
"187 556 OFFCURVE",
"240 608 OFFCURVE",
"240 674 CURVE SMOOTH",
"240 739 OFFCURVE",
"187 792 OFFCURVE",
"122 792 CURVE SMOOTH",
"56 792 OFFCURVE",
"4 739 OFFCURVE",
"4 674 CURVE SMOOTH"
);
},
{
closed = 1;
nodes = (
"76 674 LINE",
"76 698 OFFCURVE",
"97 719 OFFCURVE",
"122 719 CURVE SMOOTH",
"146 719 OFFCURVE",
"167 698 OFFCURVE",
"167 674 CURVE SMOOTH",
"167 649 OFFCURVE",
"146 628 OFFCURVE",
"122 628 CURVE SMOOTH",
"97 628 OFFCURVE",
"76 649 OFFCURVE",
"76 674 CURVE SMOOTH"
);
}
);
width = 252;
}
);
unicode = 00B0;
},
{
glyphname = ordmasculine;
lastChange = "2016-07-26 11:06:05 +0000";
layers = (
{
layerId = UUID0;
paths = (
{
closed = 1;
nodes = (
"312 646 LINE",
"312 743 OFFCURVE",
"253 792 OFFCURVE",
"161 792 CURVE SMOOTH",
"68 792 OFFCURVE",
"10 743 OFFCURVE",
"10 646 CURVE SMOOTH",
"10 548 OFFCURVE",
"68 500 OFFCURVE",
"161 500 CURVE SMOOTH",
"253 500 OFFCURVE",
"312 548 OFFCURVE",
"312 646 CURVE SMOOTH"
);
},
{
closed = 1;
nodes = (
"161 579 LINE",
"135 579 OFFCURVE",
"122 588 OFFCURVE",
"122 611 CURVE SMOOTH",
"122 681 LINE SMOOTH",
"122 703 OFFCURVE",
"135 713 OFFCURVE",
"161 713 CURVE SMOOTH",
"187 713 OFFCURVE",
"200 703 OFFCURVE",
"200 681 CURVE SMOOTH",
"200 611 LINE SMOOTH",
"200 588 OFFCURVE",
"187 579 OFFCURVE",
"161 579 CURVE SMOOTH"
);
}
);
width = 322;
}
);
unicode = 00BA;
},
